<svg xmlns="http://www.w3.org/2000/svg" xmlns:xlink="http://www.w3.org/1999/xlink" width="240" zoomAndPan="magnify" viewBox="0 0 180 179.999997" height="240" preserveAspectRatio="xMidYMid meet" version="1.0"><path fill="#9340ff" d="M 16.324219 93.765625 C 16.324219 90.300781 19.136719 87.488281 22.605469 87.488281 L 156.558594 87.488281 C 160.027344 87.488281 162.835938 90.300781 162.835938 93.765625 L 162.835938 135.628906 C 162.835938 139.09375 160.027344 141.90625 156.558594 141.90625 C 153.089844 141.90625 150.277344 139.09375 150.277344 135.628906 L 150.277344 100.046875 L 28.882812 100.046875 L 28.882812 135.628906 C 28.882812 139.09375 26.074219 141.90625 22.605469 141.90625 C 19.136719 141.90625 16.324219 139.09375 16.324219 135.628906 Z M 16.324219 93.765625 " fill-opacity="1" fill-rule="evenodd"/><path fill="#9340ff" d="M 89.582031 37.253906 C 93.050781 37.253906 95.859375 40.066406 95.859375 43.535156 L 95.859375 135.628906 C 95.859375 139.09375 93.050781 141.90625 89.582031 141.90625 C 86.113281 141.90625 83.300781 139.09375 83.300781 135.628906 L 83.300781 43.535156 C 83.300781 40.066406 86.113281 37.253906 89.582031 37.253906 Z M 89.582031 37.253906 " fill-opacity="1" fill-rule="evenodd"/><path fill="#9340ff" d="M 66.558594 139.8125 C 66.558594 136.347656 69.371094 133.535156 72.835938 133.535156 L 106.324219 133.535156 C 109.792969 133.535156 112.605469 136.347656 112.605469 139.8125 L 112.605469 173.300781 C 112.605469 176.769531 109.792969 179.582031 106.324219 179.582031 L 72.835938 179.582031 C 69.371094 179.582031 66.558594 176.769531 66.558594 173.300781 Z M 79.117188 146.09375 L 79.117188 167.023438 L 100.046875 167.023438 L 100.046875 146.09375 Z M 79.117188 146.09375 " fill-opacity="1" fill-rule="evenodd"/><path fill="#9340ff" d="M 72.835938 -0.417969 C 69.371094 -0.417969 66.558594 2.394531 66.558594 5.859375 L 66.558594 39.347656 C 66.558594 42.816406 69.371094 45.628906 72.835938 45.628906 L 106.324219 45.628906 C 109.792969 45.628906 112.605469 42.816406 112.605469 39.347656 L 112.605469 5.859375 C 112.605469 2.394531 109.792969 -0.417969 106.324219 -0.417969 Z M 72.835938 -0.417969 " fill-opacity="1" fill-rule="evenodd"/><path fill="#9340ff" d="M 133.535156 139.8125 C 133.535156 136.347656 136.347656 133.535156 139.8125 133.535156 L 173.300781 133.535156 C 176.769531 133.535156 179.582031 136.347656 179.582031 139.8125 L 179.582031 173.300781 C 179.582031 176.769531 176.769531 179.582031 173.300781 179.582031 L 139.8125 179.582031 C 136.347656 179.582031 133.535156 176.769531 133.535156 173.300781 Z M 146.09375 146.09375 L 146.09375 167.023438 L 167.023438 167.023438 L 167.023438 146.09375 Z M 146.09375 146.09375 " fill-opacity="1" fill-rule="evenodd"/><path fill="#9340ff" d="M -0.417969 139.8125 C -0.417969 136.347656 2.394531 133.535156 5.859375 133.535156 L 39.347656 133.535156 C 42.816406 133.535156 45.628906 136.347656 45.628906 139.8125 L 45.628906 173.300781 C 45.628906 176.769531 42.816406 179.582031 39.347656 179.582031 L 5.859375 179.582031 C 2.394531 179.582031 -0.417969 176.769531 -0.417969 173.300781 Z M 12.140625 146.09375 L 12.140625 167.023438 L 33.070312 167.023438 L 33.070312 146.09375 Z M 12.140625 146.09375 " fill-opacity="1" fill-rule="evenodd"/></svg>