<svg xmlns="http://www.w3.org/2000/svg" xmlns:xlink="http://www.w3.org/1999/xlink" width="1920" zoomAndPan="magnify" viewBox="0 0 1440 809.999993" height="1080" preserveAspectRatio="xMidYMid meet" version="1.0"><defs><clipPath id="580643884c"><path d="M 648 129 L 790 129 L 790 269 L 648 269 Z M 648 129 " clip-rule="nonzero"/></clipPath><clipPath id="8e650a17de"><path d="M 444 538 L 584 538 L 584 680 L 444 680 Z M 444 538 " clip-rule="nonzero"/></clipPath></defs><path fill="#9340ff" d="M 494.066406 416.554688 C 494.066406 405.917969 502.6875 397.296875 513.320312 397.296875 L 924.113281 397.296875 C 934.746094 397.296875 943.367188 405.917969 943.367188 416.554688 L 943.367188 544.925781 C 943.367188 555.558594 934.746094 564.179688 924.113281 564.179688 C 913.476562 564.179688 904.855469 555.558594 904.855469 544.925781 L 904.855469 435.808594 L 532.578125 435.808594 L 532.578125 544.925781 C 532.578125 555.558594 523.957031 564.179688 513.320312 564.179688 C 502.6875 564.179688 494.066406 555.558594 494.066406 544.925781 Z M 494.066406 416.554688 " fill-opacity="1" fill-rule="evenodd"/><path fill="#9340ff" d="M 718.714844 243.25 C 729.351562 243.25 737.972656 251.871094 737.972656 262.507812 L 737.972656 544.925781 C 737.972656 555.558594 729.351562 564.179688 718.714844 564.179688 C 708.082031 564.179688 699.460938 555.558594 699.460938 544.925781 L 699.460938 262.507812 C 699.460938 251.871094 708.082031 243.25 718.714844 243.25 Z M 718.714844 243.25 " fill-opacity="1" fill-rule="evenodd"/><path fill="#9340ff" d="M 648.113281 557.761719 C 648.113281 547.128906 656.734375 538.507812 667.367188 538.507812 L 770.066406 538.507812 C 780.699219 538.507812 789.320312 547.128906 789.320312 557.761719 L 789.320312 660.460938 C 789.320312 671.09375 780.699219 679.714844 770.066406 679.714844 L 667.367188 679.714844 C 656.734375 679.714844 648.113281 671.09375 648.113281 660.460938 Z M 686.625 577.019531 L 686.625 641.203125 L 750.808594 641.203125 L 750.808594 577.019531 Z M 686.625 577.019531 " fill-opacity="1" fill-rule="evenodd"/><g clip-path="url(#580643884c)"><path fill="#9340ff" d="M 667.367188 127.714844 C 656.734375 127.714844 648.113281 136.335938 648.113281 146.972656 L 648.113281 249.667969 C 648.113281 260.304688 656.734375 268.925781 667.367188 268.925781 L 770.066406 268.925781 C 780.699219 268.925781 789.320312 260.304688 789.320312 249.667969 L 789.320312 146.972656 C 789.320312 136.335938 780.699219 127.714844 770.066406 127.714844 Z M 667.367188 127.714844 " fill-opacity="1" fill-rule="evenodd"/></g><path fill="#9340ff" d="M 853.507812 557.761719 C 853.507812 547.128906 862.128906 538.507812 872.761719 538.507812 L 975.460938 538.507812 C 986.09375 538.507812 994.714844 547.128906 994.714844 557.761719 L 994.714844 660.460938 C 994.714844 671.09375 986.09375 679.714844 975.460938 679.714844 L 872.761719 679.714844 C 862.128906 679.714844 853.507812 671.09375 853.507812 660.460938 Z M 892.019531 577.019531 L 892.019531 641.203125 L 956.203125 641.203125 L 956.203125 577.019531 Z M 892.019531 577.019531 " fill-opacity="1" fill-rule="evenodd"/><g clip-path="url(#8e650a17de)"><path fill="#9340ff" d="M 442.714844 557.761719 C 442.714844 547.128906 451.335938 538.507812 461.972656 538.507812 L 564.667969 538.507812 C 575.304688 538.507812 583.925781 547.128906 583.925781 557.761719 L 583.925781 660.460938 C 583.925781 671.09375 575.304688 679.714844 564.667969 679.714844 L 461.972656 679.714844 C 451.335938 679.714844 442.714844 671.09375 442.714844 660.460938 Z M 481.226562 577.019531 L 481.226562 641.203125 L 545.414062 641.203125 L 545.414062 577.019531 Z M 481.226562 577.019531 " fill-opacity="1" fill-rule="evenodd"/></g></svg>