<svg xmlns="http://www.w3.org/2000/svg" xmlns:xlink="http://www.w3.org/1999/xlink" width="1920" zoomAndPan="magnify" viewBox="0 0 1440 809.999993" height="1080" preserveAspectRatio="xMidYMid meet" version="1.0"><defs><g/><clipPath id="5f0cefd5a3"><path d="M 163.5 249 L 1277.175781 249 L 1277.175781 560.828125 L 163.5 560.828125 Z M 163.5 249 " clip-rule="nonzero"/></clipPath><clipPath id="19bbda7293"><path d="M 219 295.117188 L 398.863281 295.117188 L 398.863281 514 L 219 514 Z M 219 295.117188 " clip-rule="nonzero"/></clipPath></defs><g clip-path="url(#5f0cefd5a3)"><path fill="#ffffff" d="M 177.09375 249 L 1263.582031 249 C 1271.035156 249 1277.078125 255.039062 1277.078125 262.492188 L 1277.078125 547.335938 C 1277.078125 554.789062 1271.035156 560.828125 1263.582031 560.828125 L 177.09375 560.828125 C 169.640625 560.828125 163.597656 554.789062 163.597656 547.335938 L 163.597656 262.492188 C 163.597656 255.039062 169.640625 249 177.09375 249 " fill-opacity="1" fill-rule="nonzero"/></g><g clip-path="url(#19bbda7293)"><path fill="#000000" d="M 369.21875 411.183594 C 369.53125 444.242188 398.367188 455.242188 398.6875 455.382812 C 398.445312 456.160156 394.078125 471.066406 383.492188 486.457031 C 374.34375 499.765625 364.847656 513.027344 349.878906 513.300781 C 335.179688 513.570312 330.453125 504.628906 313.644531 504.628906 C 296.839844 504.628906 291.589844 513.027344 277.671875 513.570312 C 263.230469 514.113281 252.234375 499.179688 243.007812 485.921875 C 224.152344 458.792969 209.742188 409.277344 229.089844 375.847656 C 238.703125 359.25 255.878906 348.738281 274.523438 348.464844 C 288.703125 348.199219 302.089844 357.960938 310.757812 357.960938 C 319.425781 357.960938 335.691406 346.21875 352.792969 347.945312 C 359.949219 348.242188 380.042969 350.820312 392.949219 369.613281 C 391.90625 370.253906 368.972656 383.539062 369.21875 411.183594 M 341.589844 330 C 349.257812 320.765625 354.421875 307.910156 353.007812 295.117188 C 341.960938 295.5625 328.59375 302.445312 320.667969 311.675781 C 313.566406 319.851562 307.34375 332.929688 309.019531 345.46875 C 321.339844 346.417969 333.921875 339.242188 341.589844 330 " fill-opacity="1" fill-rule="nonzero"/></g><g fill="#101728" fill-opacity="1"><g transform="translate(583.895257, 364.779654)"><g><path d="M 6.640625 -50.515625 L 28.578125 -50.515625 C 33.828125 -50.515625 37.96875 -49.394531 41 -47.15625 C 44.03125 -44.925781 45.546875 -41.835938 45.546875 -37.890625 C 45.546875 -35.046875 44.75 -32.625 43.15625 -30.625 C 41.570312 -28.632812 39.40625 -27.300781 36.65625 -26.625 C 40.03125 -26.050781 42.675781 -24.632812 44.59375 -22.375 C 46.519531 -20.113281 47.484375 -17.273438 47.484375 -13.859375 C 47.484375 -9.523438 45.847656 -6.128906 42.578125 -3.671875 C 39.304688 -1.222656 34.804688 0 29.078125 0 L 6.640625 0 Z M 15.15625 -42.9375 L 15.15625 -29.59375 L 28.140625 -29.59375 C 30.835938 -29.59375 32.957031 -30.191406 34.5 -31.390625 C 36.039062 -32.597656 36.8125 -34.257812 36.8125 -36.375 C 36.8125 -38.488281 36.050781 -40.109375 34.53125 -41.234375 C 33.019531 -42.367188 30.890625 -42.9375 28.140625 -42.9375 Z M 15.15625 -22.078125 L 15.15625 -7.578125 L 28.140625 -7.578125 C 31.515625 -7.578125 34.125 -8.210938 35.96875 -9.484375 C 37.820312 -10.765625 38.75 -12.582031 38.75 -14.9375 C 38.75 -17.15625 37.8125 -18.898438 35.9375 -20.171875 C 34.0625 -21.441406 31.460938 -22.078125 28.140625 -22.078125 Z M 15.15625 -22.078125 "/></g></g></g><g fill="#101728" fill-opacity="1"><g transform="translate(634.8492, 364.779654)"><g><path d="M 29.15625 0 L 29.15625 -4.6875 C 26.414062 -1.320312 22.179688 0.359375 16.453125 0.359375 C 12.367188 0.359375 9.097656 -0.753906 6.640625 -2.984375 C 4.179688 -5.222656 2.953125 -8.078125 2.953125 -11.546875 C 2.953125 -15.054688 4.226562 -17.84375 6.78125 -19.90625 C 9.332031 -21.976562 12.894531 -23.039062 17.46875 -23.09375 L 29.078125 -23.09375 L 29.078125 -24.25 C 29.078125 -26.707031 28.296875 -28.609375 26.734375 -29.953125 C 25.171875 -31.296875 22.898438 -31.96875 19.921875 -31.96875 C 16.210938 -31.96875 12.4375 -30.671875 8.59375 -28.078125 L 5.203125 -33.84375 C 8.128906 -35.582031 10.757812 -36.820312 13.09375 -37.5625 C 15.425781 -38.3125 18.300781 -38.6875 21.71875 -38.6875 C 26.625 -38.6875 30.425781 -37.492188 33.125 -35.109375 C 35.820312 -32.734375 37.191406 -29.425781 37.234375 -25.1875 L 37.3125 0 Z M 18.1875 -6.203125 C 21.125 -6.203125 23.613281 -6.890625 25.65625 -8.265625 C 27.695312 -9.640625 28.835938 -11.382812 29.078125 -13.5 L 29.078125 -17.03125 L 18.6875 -17.03125 C 15.945312 -17.03125 13.9375 -16.632812 12.65625 -15.84375 C 11.382812 -15.050781 10.75 -13.738281 10.75 -11.90625 C 10.75 -10.175781 11.410156 -8.789062 12.734375 -7.75 C 14.054688 -6.71875 15.875 -6.203125 18.1875 -6.203125 Z M 18.1875 -6.203125 "/></g></g></g><g fill="#101728" fill-opacity="1"><g transform="translate(677.14244, 364.779654)"><g><path d="M 6.78125 -53.015625 C 7.695312 -53.953125 8.851562 -54.421875 10.25 -54.421875 C 11.644531 -54.421875 12.796875 -53.953125 13.703125 -53.015625 C 14.617188 -52.078125 15.078125 -50.859375 15.078125 -49.359375 C 15.078125 -47.921875 14.617188 -46.734375 13.703125 -45.796875 C 12.796875 -44.859375 11.644531 -44.390625 10.25 -44.390625 C 8.851562 -44.390625 7.695312 -44.859375 6.78125 -45.796875 C 5.863281 -46.734375 5.40625 -47.921875 5.40625 -49.359375 C 5.40625 -50.859375 5.863281 -52.078125 6.78125 -53.015625 Z M 14.359375 0 L 6.140625 0 L 6.140625 -38.390625 L 14.359375 -38.390625 Z M 14.359375 0 "/></g></g></g><g fill="#101728" fill-opacity="1"><g transform="translate(697.639485, 364.779654)"><g><path d="M 20.0625 -25.265625 L 28.796875 -38.390625 L 37.890625 -38.390625 L 25.546875 -19.703125 L 38.75 0 L 29.234375 0 L 20.0625 -14.078125 L 10.25 0 L 1.015625 0 L 14.578125 -19.703125 L 1.953125 -38.390625 L 11.46875 -38.390625 Z M 20.0625 -25.265625 "/></g></g></g><g fill="#101728" fill-opacity="1"><g transform="translate(737.623163, 364.779654)"><g><path d="M 21.9375 -38.6875 C 28.53125 -38.6875 33.304688 -36.703125 36.265625 -32.734375 C 39.222656 -28.765625 40.4375 -23.191406 39.90625 -16.015625 L 10.890625 -16.015625 C 11.566406 -13.035156 12.960938 -10.691406 15.078125 -8.984375 C 17.203125 -7.273438 19.78125 -6.421875 22.8125 -6.421875 C 27.132812 -6.421875 30.738281 -7.910156 33.625 -10.890625 L 38.03125 -6.203125 C 34.082031 -1.878906 28.789062 0.28125 22.15625 0.28125 C 16.238281 0.28125 11.488281 -1.507812 7.90625 -5.09375 C 4.320312 -8.675781 2.53125 -13.351562 2.53125 -19.125 C 2.53125 -24.894531 4.332031 -29.582031 7.9375 -33.1875 C 11.550781 -36.800781 16.21875 -38.632812 21.9375 -38.6875 Z M 10.75 -22.078125 L 32.6875 -22.078125 C 32.550781 -25.160156 31.519531 -27.59375 29.59375 -29.375 C 27.664062 -31.15625 25.140625 -32.046875 22.015625 -32.046875 C 18.984375 -32.046875 16.46875 -31.15625 14.46875 -29.375 C 12.46875 -27.59375 11.226562 -25.160156 10.75 -22.078125 Z M 10.75 -22.078125 "/></g></g></g><g fill="#101728" fill-opacity="1"><g transform="translate(780.060738, 364.779654)"><g/></g></g><g fill="#101728" fill-opacity="1"><g transform="translate(798.681294, 364.779654)"><g><path d="M 28.21875 -38.6875 C 33.65625 -38.6875 38.066406 -36.867188 41.453125 -33.234375 C 44.847656 -29.597656 46.546875 -24.867188 46.546875 -19.046875 C 46.546875 -13.273438 44.882812 -8.609375 41.5625 -5.046875 C 38.25 -1.492188 33.847656 0.28125 28.359375 0.28125 C 22.203125 0.28125 17.679688 -2.023438 14.796875 -6.640625 L 14.796875 14 L 6.5 14 L 6.5 -38.390625 L 14.796875 -38.390625 L 14.796875 -31.75 C 17.679688 -36.375 22.15625 -38.6875 28.21875 -38.6875 Z M 18.078125 -10.28125 C 20.265625 -7.945312 23.066406 -6.78125 26.484375 -6.78125 C 29.898438 -6.78125 32.703125 -7.945312 34.890625 -10.28125 C 37.078125 -12.613281 38.171875 -15.632812 38.171875 -19.34375 C 38.171875 -22.945312 37.078125 -25.914062 34.890625 -28.25 C 32.703125 -30.582031 29.898438 -31.75 26.484375 -31.75 C 23.066406 -31.75 20.265625 -30.582031 18.078125 -28.25 C 15.890625 -25.914062 14.796875 -22.945312 14.796875 -19.34375 C 14.796875 -15.632812 15.890625 -12.613281 18.078125 -10.28125 Z M 18.078125 -10.28125 "/></g></g></g><g fill="#101728" fill-opacity="1"><g transform="translate(847.758748, 364.779654)"><g><path d="M 21.9375 -38.6875 C 28.53125 -38.6875 33.304688 -36.703125 36.265625 -32.734375 C 39.222656 -28.765625 40.4375 -23.191406 39.90625 -16.015625 L 10.890625 -16.015625 C 11.566406 -13.035156 12.960938 -10.691406 15.078125 -8.984375 C 17.203125 -7.273438 19.78125 -6.421875 22.8125 -6.421875 C 27.132812 -6.421875 30.738281 -7.910156 33.625 -10.890625 L 38.03125 -6.203125 C 34.082031 -1.878906 28.789062 0.28125 22.15625 0.28125 C 16.238281 0.28125 11.488281 -1.507812 7.90625 -5.09375 C 4.320312 -8.675781 2.53125 -13.351562 2.53125 -19.125 C 2.53125 -24.894531 4.332031 -29.582031 7.9375 -33.1875 C 11.550781 -36.800781 16.21875 -38.632812 21.9375 -38.6875 Z M 10.75 -22.078125 L 32.6875 -22.078125 C 32.550781 -25.160156 31.519531 -27.59375 29.59375 -29.375 C 27.664062 -31.15625 25.140625 -32.046875 22.015625 -32.046875 C 18.984375 -32.046875 16.46875 -31.15625 14.46875 -29.375 C 12.46875 -27.59375 11.226562 -25.160156 10.75 -22.078125 Z M 10.75 -22.078125 "/></g></g></g><g fill="#101728" fill-opacity="1"><g transform="translate(890.196322, 364.779654)"><g><path d="M 14.796875 0 L 6.5 0 L 6.5 -53.546875 L 14.796875 -53.546875 Z M 14.796875 0 "/></g></g></g><g fill="#101728" fill-opacity="1"><g transform="translate(911.487312, 364.779654)"><g><path d="M 29.15625 0 L 29.15625 -4.6875 C 26.414062 -1.320312 22.179688 0.359375 16.453125 0.359375 C 12.367188 0.359375 9.097656 -0.753906 6.640625 -2.984375 C 4.179688 -5.222656 2.953125 -8.078125 2.953125 -11.546875 C 2.953125 -15.054688 4.226562 -17.84375 6.78125 -19.90625 C 9.332031 -21.976562 12.894531 -23.039062 17.46875 -23.09375 L 29.078125 -23.09375 L 29.078125 -24.25 C 29.078125 -26.707031 28.296875 -28.609375 26.734375 -29.953125 C 25.171875 -31.296875 22.898438 -31.96875 19.921875 -31.96875 C 16.210938 -31.96875 12.4375 -30.671875 8.59375 -28.078125 L 5.203125 -33.84375 C 8.128906 -35.582031 10.757812 -36.820312 13.09375 -37.5625 C 15.425781 -38.3125 18.300781 -38.6875 21.71875 -38.6875 C 26.625 -38.6875 30.425781 -37.492188 33.125 -35.109375 C 35.820312 -32.734375 37.191406 -29.425781 37.234375 -25.1875 L 37.3125 0 Z M 18.1875 -6.203125 C 21.125 -6.203125 23.613281 -6.890625 25.65625 -8.265625 C 27.695312 -9.640625 28.835938 -11.382812 29.078125 -13.5 L 29.078125 -17.03125 L 18.6875 -17.03125 C 15.945312 -17.03125 13.9375 -16.632812 12.65625 -15.84375 C 11.382812 -15.050781 10.75 -13.738281 10.75 -11.90625 C 10.75 -10.175781 11.410156 -8.789062 12.734375 -7.75 C 14.054688 -6.71875 15.875 -6.203125 18.1875 -6.203125 Z M 18.1875 -6.203125 "/></g></g></g><g fill="#101728" fill-opacity="1"><g transform="translate(521.730988, 469.730666)"><g><path d="M 52.734375 -15.59375 L 19.046875 -15.59375 L 12.40625 0 L -0.484375 0 L 29.828125 -67.359375 L 42.140625 -67.359375 L 72.546875 0 L 59.46875 0 Z M 48.59375 -25.40625 L 35.890625 -54.84375 L 23.28125 -25.40625 Z M 48.59375 -25.40625 "/></g></g></g><g fill="#101728" fill-opacity="1"><g transform="translate(593.790013, 469.730666)"><g><path d="M 36.375 -51.953125 C 41.375 -51.953125 45.84375 -50.863281 49.78125 -48.6875 C 53.726562 -46.507812 56.828125 -43.429688 59.078125 -39.453125 C 61.328125 -35.472656 62.453125 -30.882812 62.453125 -25.6875 C 62.453125 -20.488281 61.328125 -15.882812 59.078125 -11.875 C 56.828125 -7.875 53.726562 -4.78125 49.78125 -2.59375 C 45.84375 -0.414062 41.375 0.671875 36.375 0.671875 C 29.445312 0.671875 23.960938 -1.632812 19.921875 -6.25 L 19.921875 18.671875 L 7.890625 18.671875 L 7.890625 -51.375 L 19.34375 -51.375 L 19.34375 -44.640625 C 21.332031 -47.078125 23.785156 -48.90625 26.703125 -50.125 C 29.617188 -51.34375 32.84375 -51.953125 36.375 -51.953125 Z M 35.03125 -9.625 C 39.445312 -9.625 43.082031 -11.097656 45.9375 -14.046875 C 48.789062 -16.992188 50.21875 -20.875 50.21875 -25.6875 C 50.21875 -30.5 48.789062 -34.378906 45.9375 -37.328125 C 43.082031 -40.285156 39.445312 -41.765625 35.03125 -41.765625 C 32.132812 -41.765625 29.53125 -41.101562 27.21875 -39.78125 C 24.914062 -38.46875 23.085938 -36.59375 21.734375 -34.15625 C 20.390625 -31.71875 19.71875 -28.894531 19.71875 -25.6875 C 19.71875 -22.476562 20.390625 -19.65625 21.734375 -17.21875 C 23.085938 -14.78125 24.914062 -12.90625 27.21875 -11.59375 C 29.53125 -10.28125 32.132812 -9.625 35.03125 -9.625 Z M 35.03125 -9.625 "/></g></g></g><g fill="#101728" fill-opacity="1"><g transform="translate(659.788012, 469.730666)"><g><path d="M 36.375 -51.953125 C 41.375 -51.953125 45.84375 -50.863281 49.78125 -48.6875 C 53.726562 -46.507812 56.828125 -43.429688 59.078125 -39.453125 C 61.328125 -35.472656 62.453125 -30.882812 62.453125 -25.6875 C 62.453125 -20.488281 61.328125 -15.882812 59.078125 -11.875 C 56.828125 -7.875 53.726562 -4.78125 49.78125 -2.59375 C 45.84375 -0.414062 41.375 0.671875 36.375 0.671875 C 29.445312 0.671875 23.960938 -1.632812 19.921875 -6.25 L 19.921875 18.671875 L 7.890625 18.671875 L 7.890625 -51.375 L 19.34375 -51.375 L 19.34375 -44.640625 C 21.332031 -47.078125 23.785156 -48.90625 26.703125 -50.125 C 29.617188 -51.34375 32.84375 -51.953125 36.375 -51.953125 Z M 35.03125 -9.625 C 39.445312 -9.625 43.082031 -11.097656 45.9375 -14.046875 C 48.789062 -16.992188 50.21875 -20.875 50.21875 -25.6875 C 50.21875 -30.5 48.789062 -34.378906 45.9375 -37.328125 C 43.082031 -40.285156 39.445312 -41.765625 35.03125 -41.765625 C 32.132812 -41.765625 29.53125 -41.101562 27.21875 -39.78125 C 24.914062 -38.46875 23.085938 -36.59375 21.734375 -34.15625 C 20.390625 -31.71875 19.71875 -28.894531 19.71875 -25.6875 C 19.71875 -22.476562 20.390625 -19.65625 21.734375 -17.21875 C 23.085938 -14.78125 24.914062 -12.90625 27.21875 -11.59375 C 29.53125 -10.28125 32.132812 -9.625 35.03125 -9.625 Z M 35.03125 -9.625 "/></g></g></g><g fill="#101728" fill-opacity="1"><g transform="translate(725.78601, 469.730666)"><g/></g></g><g fill="#101728" fill-opacity="1"><g transform="translate(752.339126, 469.730666)"><g><path d="M 29.921875 0.96875 C 24.722656 0.96875 19.703125 0.226562 14.859375 -1.25 C 10.015625 -2.726562 6.1875 -4.6875 3.375 -7.125 L 7.703125 -16.84375 C 10.453125 -14.65625 13.832031 -12.867188 17.84375 -11.484375 C 21.851562 -10.109375 25.878906 -9.421875 29.921875 -9.421875 C 34.921875 -9.421875 38.65625 -10.222656 41.125 -11.828125 C 43.601562 -13.429688 44.84375 -15.550781 44.84375 -18.1875 C 44.84375 -20.113281 44.148438 -21.703125 42.765625 -22.953125 C 41.390625 -24.203125 39.640625 -25.175781 37.515625 -25.875 C 35.398438 -26.582031 32.515625 -27.382812 28.859375 -28.28125 C 23.734375 -29.5 19.582031 -30.71875 16.40625 -31.9375 C 13.226562 -33.15625 10.5 -35.0625 8.21875 -37.65625 C 5.945312 -40.257812 4.8125 -43.773438 4.8125 -48.203125 C 4.8125 -51.921875 5.820312 -55.300781 7.84375 -58.34375 C 9.863281 -61.394531 12.910156 -63.816406 16.984375 -65.609375 C 21.054688 -67.410156 26.039062 -68.3125 31.9375 -68.3125 C 36.050781 -68.3125 40.09375 -67.796875 44.0625 -66.765625 C 48.039062 -65.742188 51.472656 -64.269531 54.359375 -62.34375 L 50.421875 -52.625 C 47.472656 -54.363281 44.394531 -55.679688 41.1875 -56.578125 C 37.976562 -57.472656 34.863281 -57.921875 31.84375 -57.921875 C 26.90625 -57.921875 23.234375 -57.085938 20.828125 -55.421875 C 18.421875 -53.753906 17.21875 -51.539062 17.21875 -48.78125 C 17.21875 -46.851562 17.90625 -45.28125 19.28125 -44.0625 C 20.664062 -42.84375 22.414062 -41.878906 24.53125 -41.171875 C 26.65625 -40.472656 29.546875 -39.675781 33.203125 -38.78125 C 38.203125 -37.625 42.304688 -36.421875 45.515625 -35.171875 C 48.722656 -33.921875 51.460938 -32.007812 53.734375 -29.4375 C 56.015625 -26.875 57.15625 -23.410156 57.15625 -19.046875 C 57.15625 -15.328125 56.144531 -11.957031 54.125 -8.9375 C 52.101562 -5.925781 49.039062 -3.519531 44.9375 -1.71875 C 40.832031 0.0703125 35.828125 0.96875 29.921875 0.96875 Z M 29.921875 0.96875 "/></g></g></g><g fill="#101728" fill-opacity="1"><g transform="translate(812.853368, 469.730666)"><g><path d="M 38.78125 -2.796875 C 37.363281 -1.640625 35.644531 -0.769531 33.625 -0.1875 C 31.601562 0.382812 29.472656 0.671875 27.234375 0.671875 C 21.585938 0.671875 17.222656 -0.800781 14.140625 -3.75 C 11.066406 -6.695312 9.53125 -10.992188 9.53125 -16.640625 L 9.53125 -41.375 L 1.0625 -41.375 L 1.0625 -51 L 9.53125 -51 L 9.53125 -62.734375 L 21.546875 -62.734375 L 21.546875 -51 L 35.3125 -51 L 35.3125 -41.375 L 21.546875 -41.375 L 21.546875 -16.9375 C 21.546875 -14.4375 22.15625 -12.523438 23.375 -11.203125 C 24.59375 -9.890625 26.359375 -9.234375 28.671875 -9.234375 C 31.367188 -9.234375 33.613281 -9.941406 35.40625 -11.359375 Z M 38.78125 -2.796875 "/></g></g></g><g fill="#101728" fill-opacity="1"><g transform="translate(853.645169, 469.730666)"><g><path d="M 30.984375 0.671875 C 25.785156 0.671875 21.101562 -0.445312 16.9375 -2.6875 C 12.769531 -4.9375 9.515625 -8.066406 7.171875 -12.078125 C 4.828125 -16.085938 3.65625 -20.625 3.65625 -25.6875 C 3.65625 -30.757812 4.828125 -35.28125 7.171875 -39.25 C 9.515625 -43.226562 12.769531 -46.335938 16.9375 -48.578125 C 21.101562 -50.828125 25.785156 -51.953125 30.984375 -51.953125 C 36.242188 -51.953125 40.957031 -50.828125 45.125 -48.578125 C 49.289062 -46.335938 52.546875 -43.226562 54.890625 -39.25 C 57.234375 -35.28125 58.40625 -30.757812 58.40625 -25.6875 C 58.40625 -20.625 57.234375 -16.085938 54.890625 -12.078125 C 52.546875 -8.066406 49.289062 -4.9375 45.125 -2.6875 C 40.957031 -0.445312 36.242188 0.671875 30.984375 0.671875 Z M 30.984375 -9.625 C 35.410156 -9.625 39.066406 -11.097656 41.953125 -14.046875 C 44.835938 -16.992188 46.28125 -20.875 46.28125 -25.6875 C 46.28125 -30.5 44.835938 -34.378906 41.953125 -37.328125 C 39.066406 -40.285156 35.410156 -41.765625 30.984375 -41.765625 C 26.554688 -41.765625 22.914062 -40.285156 20.0625 -37.328125 C 17.207031 -34.378906 15.78125 -30.5 15.78125 -25.6875 C 15.78125 -20.875 17.207031 -16.992188 20.0625 -14.046875 C 22.914062 -11.097656 26.554688 -9.625 30.984375 -9.625 Z M 30.984375 -9.625 "/></g></g></g><g fill="#101728" fill-opacity="1"><g transform="translate(915.698707, 469.730666)"><g><path d="M 19.34375 -43.875 C 22.800781 -49.257812 28.894531 -51.953125 37.625 -51.953125 L 37.625 -40.515625 C 36.59375 -40.703125 35.660156 -40.796875 34.828125 -40.796875 C 30.148438 -40.796875 26.492188 -39.429688 23.859375 -36.703125 C 21.234375 -33.984375 19.921875 -30.054688 19.921875 -24.921875 L 19.921875 0 L 7.890625 0 L 7.890625 -51.375 L 19.34375 -51.375 Z M 19.34375 -43.875 "/></g></g></g><g fill="#101728" fill-opacity="1"><g transform="translate(956.105685, 469.730666)"><g><path d="M 56.1875 -25.40625 C 56.1875 -24.570312 56.125 -23.382812 56 -21.84375 L 15.6875 -21.84375 C 16.382812 -18.0625 18.222656 -15.0625 21.203125 -12.84375 C 24.191406 -10.632812 27.898438 -9.53125 32.328125 -9.53125 C 37.972656 -9.53125 42.625 -11.390625 46.28125 -15.109375 L 52.734375 -7.703125 C 50.421875 -4.941406 47.5 -2.851562 43.96875 -1.4375 C 40.445312 -0.03125 36.472656 0.671875 32.046875 0.671875 C 26.398438 0.671875 21.425781 -0.445312 17.125 -2.6875 C 12.832031 -4.9375 9.515625 -8.066406 7.171875 -12.078125 C 4.828125 -16.085938 3.65625 -20.625 3.65625 -25.6875 C 3.65625 -30.695312 4.789062 -35.203125 7.0625 -39.203125 C 9.34375 -43.210938 12.503906 -46.335938 16.546875 -48.578125 C 20.585938 -50.828125 25.144531 -51.953125 30.21875 -51.953125 C 35.21875 -51.953125 39.6875 -50.84375 43.625 -48.625 C 47.570312 -46.414062 50.648438 -43.304688 52.859375 -39.296875 C 55.078125 -35.296875 56.1875 -30.664062 56.1875 -25.40625 Z M 30.21875 -42.34375 C 26.363281 -42.34375 23.101562 -41.203125 20.4375 -38.921875 C 17.78125 -36.640625 16.164062 -33.609375 15.59375 -29.828125 L 44.734375 -29.828125 C 44.222656 -33.546875 42.648438 -36.5625 40.015625 -38.875 C 37.390625 -41.1875 34.125 -42.34375 30.21875 -42.34375 Z M 30.21875 -42.34375 "/></g></g></g></svg>