<svg xmlns="http://www.w3.org/2000/svg" xmlns:xlink="http://www.w3.org/1999/xlink" width="300" zoomAndPan="magnify" viewBox="0 0 224.87999 62.999997" height="84" preserveAspectRatio="xMidYMid meet" version="1.0"><defs><g/><clipPath id="50136d0d06"><path d="M 0 0.015625 L 224.761719 0.015625 L 224.761719 62.980469 L 0 62.980469 Z M 0 0.015625 " clip-rule="nonzero"/></clipPath><clipPath id="698e252450"><path d="M 11 9.328125 L 47.527344 9.328125 L 47.527344 53.554688 L 11 53.554688 Z M 11 9.328125 " clip-rule="nonzero"/></clipPath></defs><g clip-path="url(#50136d0d06)"><path fill="#ffffff" d="M 13.511719 0.015625 L 211.371094 0.015625 C 218.820312 0.015625 224.859375 6.054688 224.859375 13.503906 L 224.859375 49.496094 C 224.859375 56.945312 218.820312 62.984375 211.371094 62.984375 L 13.511719 62.984375 C 6.058594 62.984375 0.0195312 56.945312 0.0195312 49.496094 L 0.0195312 13.503906 C 0.0195312 6.054688 6.058594 0.015625 13.511719 0.015625 " fill-opacity="1" fill-rule="nonzero"/></g><g clip-path="url(#698e252450)"><path fill="#000000" d="M 41.539062 32.765625 C 41.601562 39.441406 47.425781 41.664062 47.492188 41.691406 C 47.441406 41.847656 46.558594 44.859375 44.421875 47.964844 C 42.574219 50.652344 40.65625 53.332031 37.636719 53.386719 C 34.667969 53.441406 33.710938 51.632812 30.316406 51.632812 C 26.925781 51.632812 25.863281 53.332031 23.054688 53.441406 C 20.136719 53.550781 17.917969 50.535156 16.054688 47.859375 C 12.246094 42.378906 9.335938 32.382812 13.246094 25.628906 C 15.183594 22.277344 18.652344 20.15625 22.417969 20.101562 C 25.28125 20.046875 27.984375 22.019531 29.734375 22.019531 C 31.484375 22.019531 34.769531 19.648438 38.222656 19.996094 C 39.667969 20.054688 43.726562 20.578125 46.332031 24.371094 C 46.121094 24.5 41.492188 27.183594 41.539062 32.765625 M 35.960938 16.371094 C 37.507812 14.507812 38.550781 11.914062 38.265625 9.328125 C 36.035156 9.417969 33.335938 10.808594 31.734375 12.671875 C 30.300781 14.324219 29.046875 16.964844 29.382812 19.496094 C 31.871094 19.6875 34.414062 18.238281 35.960938 16.371094 " fill-opacity="1" fill-rule="nonzero"/></g><g fill="#101728" fill-opacity="1"><g transform="translate(84.888671, 23.395703)"><g><path d="M 1.34375 -10.203125 L 5.765625 -10.203125 C 6.828125 -10.203125 7.664062 -9.972656 8.28125 -9.515625 C 8.894531 -9.066406 9.203125 -8.445312 9.203125 -7.65625 C 9.203125 -7.082031 9.039062 -6.59375 8.71875 -6.1875 C 8.394531 -5.78125 7.957031 -5.507812 7.40625 -5.375 C 8.082031 -5.257812 8.613281 -4.972656 9 -4.515625 C 9.394531 -4.054688 9.59375 -3.484375 9.59375 -2.796875 C 9.59375 -1.921875 9.257812 -1.234375 8.59375 -0.734375 C 7.9375 -0.242188 7.03125 0 5.875 0 L 1.34375 0 Z M 3.0625 -8.671875 L 3.0625 -5.984375 L 5.6875 -5.984375 C 6.226562 -5.984375 6.65625 -6.101562 6.96875 -6.34375 C 7.28125 -6.582031 7.4375 -6.914062 7.4375 -7.34375 C 7.4375 -7.769531 7.28125 -8.097656 6.96875 -8.328125 C 6.664062 -8.554688 6.238281 -8.671875 5.6875 -8.671875 Z M 3.0625 -4.453125 L 3.0625 -1.53125 L 5.6875 -1.53125 C 6.363281 -1.53125 6.890625 -1.65625 7.265625 -1.90625 C 7.640625 -2.164062 7.828125 -2.535156 7.828125 -3.015625 C 7.828125 -3.460938 7.632812 -3.8125 7.25 -4.0625 C 6.875 -4.320312 6.351562 -4.453125 5.6875 -4.453125 Z M 3.0625 -4.453125 "/></g></g></g><g fill="#101728" fill-opacity="1"><g transform="translate(95.17759, 23.395703)"><g><path d="M 5.890625 0 L 5.890625 -0.953125 C 5.335938 -0.265625 4.484375 0.078125 3.328125 0.078125 C 2.492188 0.078125 1.828125 -0.144531 1.328125 -0.59375 C 0.835938 -1.050781 0.59375 -1.628906 0.59375 -2.328125 C 0.59375 -3.035156 0.847656 -3.597656 1.359375 -4.015625 C 1.878906 -4.441406 2.601562 -4.660156 3.53125 -4.671875 L 5.875 -4.671875 L 5.875 -4.890625 C 5.875 -5.390625 5.710938 -5.773438 5.390625 -6.046875 C 5.078125 -6.316406 4.625 -6.453125 4.03125 -6.453125 C 3.28125 -6.453125 2.515625 -6.191406 1.734375 -5.671875 L 1.046875 -6.84375 C 1.640625 -7.1875 2.171875 -7.429688 2.640625 -7.578125 C 3.117188 -7.734375 3.703125 -7.8125 4.390625 -7.8125 C 5.378906 -7.8125 6.144531 -7.570312 6.6875 -7.09375 C 7.226562 -6.613281 7.503906 -5.945312 7.515625 -5.09375 L 7.53125 0 Z M 3.671875 -1.25 C 4.265625 -1.25 4.765625 -1.382812 5.171875 -1.65625 C 5.585938 -1.9375 5.820312 -2.289062 5.875 -2.71875 L 5.875 -3.4375 L 3.78125 -3.4375 C 3.21875 -3.4375 2.804688 -3.351562 2.546875 -3.1875 C 2.296875 -3.03125 2.171875 -2.769531 2.171875 -2.40625 C 2.171875 -2.050781 2.300781 -1.769531 2.5625 -1.5625 C 2.832031 -1.351562 3.203125 -1.25 3.671875 -1.25 Z M 3.671875 -1.25 "/></g></g></g><g fill="#101728" fill-opacity="1"><g transform="translate(103.717689, 23.395703)"><g><path d="M 1.359375 -10.703125 C 1.546875 -10.890625 1.78125 -10.984375 2.0625 -10.984375 C 2.351562 -10.984375 2.585938 -10.890625 2.765625 -10.703125 C 2.953125 -10.515625 3.046875 -10.269531 3.046875 -9.96875 C 3.046875 -9.675781 2.953125 -9.4375 2.765625 -9.25 C 2.585938 -9.0625 2.351562 -8.96875 2.0625 -8.96875 C 1.78125 -8.96875 1.546875 -9.0625 1.359375 -9.25 C 1.179688 -9.4375 1.09375 -9.675781 1.09375 -9.96875 C 1.09375 -10.269531 1.179688 -10.515625 1.359375 -10.703125 Z M 2.90625 0 L 1.234375 0 L 1.234375 -7.75 L 2.90625 -7.75 Z M 2.90625 0 "/></g></g></g><g fill="#101728" fill-opacity="1"><g transform="translate(107.856573, 23.395703)"><g><path d="M 4.046875 -5.109375 L 5.8125 -7.75 L 7.65625 -7.75 L 5.15625 -3.984375 L 7.828125 0 L 5.90625 0 L 4.046875 -2.84375 L 2.0625 0 L 0.203125 0 L 2.9375 -3.984375 L 0.390625 -7.75 L 2.3125 -7.75 Z M 4.046875 -5.109375 "/></g></g></g><g fill="#101728" fill-opacity="1"><g transform="translate(115.930311, 23.395703)"><g><path d="M 4.4375 -7.8125 C 5.757812 -7.8125 6.71875 -7.410156 7.3125 -6.609375 C 7.914062 -5.804688 8.164062 -4.679688 8.0625 -3.234375 L 2.203125 -3.234375 C 2.335938 -2.628906 2.617188 -2.15625 3.046875 -1.8125 C 3.472656 -1.46875 3.992188 -1.296875 4.609375 -1.296875 C 5.484375 -1.296875 6.210938 -1.597656 6.796875 -2.203125 L 7.6875 -1.25 C 6.882812 -0.375 5.8125 0.0625 4.46875 0.0625 C 3.28125 0.0625 2.320312 -0.296875 1.59375 -1.015625 C 0.875 -1.742188 0.515625 -2.691406 0.515625 -3.859375 C 0.515625 -5.023438 0.878906 -5.972656 1.609375 -6.703125 C 2.335938 -7.429688 3.28125 -7.800781 4.4375 -7.8125 Z M 2.171875 -4.453125 L 6.609375 -4.453125 C 6.578125 -5.078125 6.363281 -5.566406 5.96875 -5.921875 C 5.582031 -6.285156 5.078125 -6.46875 4.453125 -6.46875 C 3.835938 -6.46875 3.328125 -6.285156 2.921875 -5.921875 C 2.515625 -5.566406 2.265625 -5.078125 2.171875 -4.453125 Z M 2.171875 -4.453125 "/></g></g></g><g fill="#101728" fill-opacity="1"><g transform="translate(124.499555, 23.395703)"><g/></g></g><g fill="#101728" fill-opacity="1"><g transform="translate(128.259527, 23.395703)"><g><path d="M 5.703125 -7.8125 C 6.796875 -7.8125 7.6875 -7.441406 8.375 -6.703125 C 9.0625 -5.972656 9.40625 -5.019531 9.40625 -3.84375 C 9.40625 -2.675781 9.066406 -1.734375 8.390625 -1.015625 C 7.722656 -0.296875 6.835938 0.0625 5.734375 0.0625 C 4.484375 0.0625 3.566406 -0.40625 2.984375 -1.34375 L 2.984375 2.828125 L 1.3125 2.828125 L 1.3125 -7.75 L 2.984375 -7.75 L 2.984375 -6.421875 C 3.566406 -7.347656 4.472656 -7.8125 5.703125 -7.8125 Z M 3.640625 -2.078125 C 4.085938 -1.609375 4.65625 -1.375 5.34375 -1.375 C 6.039062 -1.375 6.609375 -1.609375 7.046875 -2.078125 C 7.492188 -2.546875 7.71875 -3.15625 7.71875 -3.90625 C 7.71875 -4.632812 7.492188 -5.234375 7.046875 -5.703125 C 6.609375 -6.179688 6.039062 -6.421875 5.34375 -6.421875 C 4.65625 -6.421875 4.085938 -6.179688 3.640625 -5.703125 C 3.203125 -5.234375 2.984375 -4.632812 2.984375 -3.90625 C 2.984375 -3.15625 3.203125 -2.546875 3.640625 -2.078125 Z M 3.640625 -2.078125 "/></g></g></g><g fill="#101728" fill-opacity="1"><g transform="translate(138.169534, 23.395703)"><g><path d="M 4.4375 -7.8125 C 5.757812 -7.8125 6.71875 -7.410156 7.3125 -6.609375 C 7.914062 -5.804688 8.164062 -4.679688 8.0625 -3.234375 L 2.203125 -3.234375 C 2.335938 -2.628906 2.617188 -2.15625 3.046875 -1.8125 C 3.472656 -1.46875 3.992188 -1.296875 4.609375 -1.296875 C 5.484375 -1.296875 6.210938 -1.597656 6.796875 -2.203125 L 7.6875 -1.25 C 6.882812 -0.375 5.8125 0.0625 4.46875 0.0625 C 3.28125 0.0625 2.320312 -0.296875 1.59375 -1.015625 C 0.875 -1.742188 0.515625 -2.691406 0.515625 -3.859375 C 0.515625 -5.023438 0.878906 -5.972656 1.609375 -6.703125 C 2.335938 -7.429688 3.28125 -7.800781 4.4375 -7.8125 Z M 2.171875 -4.453125 L 6.609375 -4.453125 C 6.578125 -5.078125 6.363281 -5.566406 5.96875 -5.921875 C 5.582031 -6.285156 5.078125 -6.46875 4.453125 -6.46875 C 3.835938 -6.46875 3.328125 -6.285156 2.921875 -5.921875 C 2.515625 -5.566406 2.265625 -5.078125 2.171875 -4.453125 Z M 2.171875 -4.453125 "/></g></g></g><g fill="#101728" fill-opacity="1"><g transform="translate(146.738778, 23.395703)"><g><path d="M 2.984375 0 L 1.3125 0 L 1.3125 -10.8125 L 2.984375 -10.8125 Z M 2.984375 0 "/></g></g></g><g fill="#101728" fill-opacity="1"><g transform="translate(151.03798, 23.395703)"><g><path d="M 5.890625 0 L 5.890625 -0.953125 C 5.335938 -0.265625 4.484375 0.078125 3.328125 0.078125 C 2.492188 0.078125 1.828125 -0.144531 1.328125 -0.59375 C 0.835938 -1.050781 0.59375 -1.628906 0.59375 -2.328125 C 0.59375 -3.035156 0.847656 -3.597656 1.359375 -4.015625 C 1.878906 -4.441406 2.601562 -4.660156 3.53125 -4.671875 L 5.875 -4.671875 L 5.875 -4.890625 C 5.875 -5.390625 5.710938 -5.773438 5.390625 -6.046875 C 5.078125 -6.316406 4.625 -6.453125 4.03125 -6.453125 C 3.28125 -6.453125 2.515625 -6.191406 1.734375 -5.671875 L 1.046875 -6.84375 C 1.640625 -7.1875 2.171875 -7.429688 2.640625 -7.578125 C 3.117188 -7.734375 3.703125 -7.8125 4.390625 -7.8125 C 5.378906 -7.8125 6.144531 -7.570312 6.6875 -7.09375 C 7.226562 -6.613281 7.503906 -5.945312 7.515625 -5.09375 L 7.53125 0 Z M 3.671875 -1.25 C 4.265625 -1.25 4.765625 -1.382812 5.171875 -1.65625 C 5.585938 -1.9375 5.820312 -2.289062 5.875 -2.71875 L 5.875 -3.4375 L 3.78125 -3.4375 C 3.21875 -3.4375 2.804688 -3.351562 2.546875 -3.1875 C 2.296875 -3.03125 2.171875 -2.769531 2.171875 -2.40625 C 2.171875 -2.050781 2.300781 -1.769531 2.5625 -1.5625 C 2.832031 -1.351562 3.203125 -1.25 3.671875 -1.25 Z M 3.671875 -1.25 "/></g></g></g><g fill="#101728" fill-opacity="1"><g transform="translate(72.336094, 44.588023)"><g><path d="M 10.640625 -3.140625 L 3.84375 -3.140625 L 2.5 0 L -0.09375 0 L 6.015625 -13.59375 L 8.5 -13.59375 L 14.640625 0 L 12 0 Z M 9.8125 -5.125 L 7.25 -11.078125 L 4.703125 -5.125 Z M 9.8125 -5.125 "/></g></g></g><g fill="#101728" fill-opacity="1"><g transform="translate(86.886675, 44.588023)"><g><path d="M 7.34375 -10.484375 C 8.351562 -10.484375 9.253906 -10.265625 10.046875 -9.828125 C 10.847656 -9.390625 11.472656 -8.769531 11.921875 -7.96875 C 12.378906 -7.164062 12.609375 -6.238281 12.609375 -5.1875 C 12.609375 -4.132812 12.378906 -3.203125 11.921875 -2.390625 C 11.472656 -1.585938 10.847656 -0.960938 10.046875 -0.515625 C 9.253906 -0.078125 8.351562 0.140625 7.34375 0.140625 C 5.945312 0.140625 4.835938 -0.328125 4.015625 -1.265625 L 4.015625 3.765625 L 1.59375 3.765625 L 1.59375 -10.375 L 3.90625 -10.375 L 3.90625 -9.015625 C 4.300781 -9.503906 4.789062 -9.867188 5.375 -10.109375 C 5.96875 -10.359375 6.625 -10.484375 7.34375 -10.484375 Z M 7.0625 -1.9375 C 7.957031 -1.9375 8.691406 -2.234375 9.265625 -2.828125 C 9.847656 -3.429688 10.140625 -4.21875 10.140625 -5.1875 C 10.140625 -6.15625 9.847656 -6.9375 9.265625 -7.53125 C 8.691406 -8.125 7.957031 -8.421875 7.0625 -8.421875 C 6.488281 -8.421875 5.96875 -8.285156 5.5 -8.015625 C 5.03125 -7.753906 4.660156 -7.378906 4.390625 -6.890625 C 4.117188 -6.398438 3.984375 -5.832031 3.984375 -5.1875 C 3.984375 -4.539062 4.117188 -3.96875 4.390625 -3.46875 C 4.660156 -2.976562 5.03125 -2.597656 5.5 -2.328125 C 5.96875 -2.066406 6.488281 -1.9375 7.0625 -1.9375 Z M 7.0625 -1.9375 "/></g></g></g><g fill="#101728" fill-opacity="1"><g transform="translate(100.213378, 44.588023)"><g><path d="M 7.34375 -10.484375 C 8.351562 -10.484375 9.253906 -10.265625 10.046875 -9.828125 C 10.847656 -9.390625 11.472656 -8.769531 11.921875 -7.96875 C 12.378906 -7.164062 12.609375 -6.238281 12.609375 -5.1875 C 12.609375 -4.132812 12.378906 -3.203125 11.921875 -2.390625 C 11.472656 -1.585938 10.847656 -0.960938 10.046875 -0.515625 C 9.253906 -0.078125 8.351562 0.140625 7.34375 0.140625 C 5.945312 0.140625 4.835938 -0.328125 4.015625 -1.265625 L 4.015625 3.765625 L 1.59375 3.765625 L 1.59375 -10.375 L 3.90625 -10.375 L 3.90625 -9.015625 C 4.300781 -9.503906 4.789062 -9.867188 5.375 -10.109375 C 5.96875 -10.359375 6.625 -10.484375 7.34375 -10.484375 Z M 7.0625 -1.9375 C 7.957031 -1.9375 8.691406 -2.234375 9.265625 -2.828125 C 9.847656 -3.429688 10.140625 -4.21875 10.140625 -5.1875 C 10.140625 -6.15625 9.847656 -6.9375 9.265625 -7.53125 C 8.691406 -8.125 7.957031 -8.421875 7.0625 -8.421875 C 6.488281 -8.421875 5.96875 -8.285156 5.5 -8.015625 C 5.03125 -7.753906 4.660156 -7.378906 4.390625 -6.890625 C 4.117188 -6.398438 3.984375 -5.832031 3.984375 -5.1875 C 3.984375 -4.539062 4.117188 -3.96875 4.390625 -3.46875 C 4.660156 -2.976562 5.03125 -2.597656 5.5 -2.328125 C 5.96875 -2.066406 6.488281 -1.9375 7.0625 -1.9375 Z M 7.0625 -1.9375 "/></g></g></g><g fill="#101728" fill-opacity="1"><g transform="translate(113.54008, 44.588023)"><g/></g></g><g fill="#101728" fill-opacity="1"><g transform="translate(118.901841, 44.588023)"><g><path d="M 6.046875 0.1875 C 4.992188 0.1875 3.976562 0.0390625 3 -0.25 C 2.019531 -0.550781 1.25 -0.945312 0.6875 -1.4375 L 1.546875 -3.40625 C 2.109375 -2.957031 2.789062 -2.59375 3.59375 -2.3125 C 4.40625 -2.039062 5.222656 -1.90625 6.046875 -1.90625 C 7.054688 -1.90625 7.804688 -2.066406 8.296875 -2.390625 C 8.796875 -2.710938 9.046875 -3.140625 9.046875 -3.671875 C 9.046875 -4.054688 8.90625 -4.375 8.625 -4.625 C 8.351562 -4.882812 8.003906 -5.082031 7.578125 -5.21875 C 7.148438 -5.363281 6.566406 -5.523438 5.828125 -5.703125 C 4.785156 -5.953125 3.941406 -6.195312 3.296875 -6.4375 C 2.660156 -6.6875 2.113281 -7.070312 1.65625 -7.59375 C 1.195312 -8.125 0.96875 -8.835938 0.96875 -9.734375 C 0.96875 -10.484375 1.171875 -11.164062 1.578125 -11.78125 C 1.984375 -12.394531 2.597656 -12.882812 3.421875 -13.25 C 4.242188 -13.613281 5.253906 -13.796875 6.453125 -13.796875 C 7.273438 -13.796875 8.085938 -13.691406 8.890625 -13.484375 C 9.691406 -13.273438 10.382812 -12.972656 10.96875 -12.578125 L 10.171875 -10.625 C 9.578125 -10.96875 8.957031 -11.226562 8.3125 -11.40625 C 7.664062 -11.59375 7.035156 -11.6875 6.421875 -11.6875 C 5.429688 -11.6875 4.691406 -11.519531 4.203125 -11.1875 C 3.710938 -10.851562 3.46875 -10.40625 3.46875 -9.84375 C 3.46875 -9.457031 3.609375 -9.140625 3.890625 -8.890625 C 4.171875 -8.648438 4.523438 -8.457031 4.953125 -8.3125 C 5.378906 -8.164062 5.960938 -8.003906 6.703125 -7.828125 C 7.710938 -7.597656 8.539062 -7.351562 9.1875 -7.09375 C 9.832031 -6.84375 10.382812 -6.457031 10.84375 -5.9375 C 11.300781 -5.425781 11.53125 -4.726562 11.53125 -3.84375 C 11.53125 -3.09375 11.328125 -2.410156 10.921875 -1.796875 C 10.515625 -1.191406 9.894531 -0.707031 9.0625 -0.34375 C 8.238281 0.0078125 7.234375 0.1875 6.046875 0.1875 Z M 6.046875 0.1875 "/></g></g></g><g fill="#101728" fill-opacity="1"><g transform="translate(131.121232, 44.588023)"><g><path d="M 7.828125 -0.5625 C 7.546875 -0.332031 7.195312 -0.15625 6.78125 -0.03125 C 6.375 0.0820312 5.945312 0.140625 5.5 0.140625 C 4.351562 0.140625 3.46875 -0.15625 2.84375 -0.75 C 2.226562 -1.351562 1.921875 -2.222656 1.921875 -3.359375 L 1.921875 -8.34375 L 0.21875 -8.34375 L 0.21875 -10.296875 L 1.921875 -10.296875 L 1.921875 -12.65625 L 4.34375 -12.65625 L 4.34375 -10.296875 L 7.125 -10.296875 L 7.125 -8.34375 L 4.34375 -8.34375 L 4.34375 -3.421875 C 4.34375 -2.910156 4.46875 -2.519531 4.71875 -2.25 C 4.96875 -1.988281 5.320312 -1.859375 5.78125 -1.859375 C 6.332031 -1.859375 6.785156 -2.003906 7.140625 -2.296875 Z M 7.828125 -0.5625 "/></g></g></g><g fill="#101728" fill-opacity="1"><g transform="translate(139.358151, 44.588023)"><g><path d="M 6.25 0.140625 C 5.207031 0.140625 4.265625 -0.0820312 3.421875 -0.53125 C 2.578125 -0.988281 1.914062 -1.625 1.4375 -2.4375 C 0.96875 -3.25 0.734375 -4.164062 0.734375 -5.1875 C 0.734375 -6.207031 0.96875 -7.117188 1.4375 -7.921875 C 1.914062 -8.722656 2.578125 -9.347656 3.421875 -9.796875 C 4.265625 -10.253906 5.207031 -10.484375 6.25 -10.484375 C 7.3125 -10.484375 8.265625 -10.253906 9.109375 -9.796875 C 9.953125 -9.347656 10.609375 -8.722656 11.078125 -7.921875 C 11.546875 -7.117188 11.78125 -6.207031 11.78125 -5.1875 C 11.78125 -4.164062 11.546875 -3.25 11.078125 -2.4375 C 10.609375 -1.625 9.953125 -0.988281 9.109375 -0.53125 C 8.265625 -0.0820312 7.3125 0.140625 6.25 0.140625 Z M 6.25 -1.9375 C 7.144531 -1.9375 7.882812 -2.234375 8.46875 -2.828125 C 9.050781 -3.429688 9.34375 -4.21875 9.34375 -5.1875 C 9.34375 -6.15625 9.050781 -6.9375 8.46875 -7.53125 C 7.882812 -8.125 7.144531 -8.421875 6.25 -8.421875 C 5.351562 -8.421875 4.617188 -8.125 4.046875 -7.53125 C 3.472656 -6.9375 3.1875 -6.15625 3.1875 -5.1875 C 3.1875 -4.21875 3.472656 -3.429688 4.046875 -2.828125 C 4.617188 -2.234375 5.351562 -1.9375 6.25 -1.9375 Z M 6.25 -1.9375 "/></g></g></g><g fill="#101728" fill-opacity="1"><g transform="translate(151.888365, 44.588023)"><g><path d="M 3.90625 -8.859375 C 4.601562 -9.941406 5.832031 -10.484375 7.59375 -10.484375 L 7.59375 -8.171875 C 7.382812 -8.210938 7.195312 -8.234375 7.03125 -8.234375 C 6.082031 -8.234375 5.34375 -7.957031 4.8125 -7.40625 C 4.28125 -6.851562 4.015625 -6.0625 4.015625 -5.03125 L 4.015625 0 L 1.59375 0 L 1.59375 -10.375 L 3.90625 -10.375 Z M 3.90625 -8.859375 "/></g></g></g><g fill="#101728" fill-opacity="1"><g transform="translate(160.047579, 44.588023)"><g><path d="M 11.34375 -5.125 C 11.34375 -4.957031 11.328125 -4.71875 11.296875 -4.40625 L 3.171875 -4.40625 C 3.304688 -3.644531 3.675781 -3.039062 4.28125 -2.59375 C 4.882812 -2.144531 5.632812 -1.921875 6.53125 -1.921875 C 7.664062 -1.921875 8.601562 -2.296875 9.34375 -3.046875 L 10.640625 -1.546875 C 10.171875 -0.992188 9.582031 -0.570312 8.875 -0.28125 C 8.164062 0 7.363281 0.140625 6.46875 0.140625 C 5.332031 0.140625 4.328125 -0.0820312 3.453125 -0.53125 C 2.585938 -0.988281 1.914062 -1.625 1.4375 -2.4375 C 0.96875 -3.25 0.734375 -4.164062 0.734375 -5.1875 C 0.734375 -6.195312 0.960938 -7.101562 1.421875 -7.90625 C 1.878906 -8.71875 2.515625 -9.347656 3.328125 -9.796875 C 4.148438 -10.253906 5.070312 -10.484375 6.09375 -10.484375 C 7.101562 -10.484375 8.003906 -10.257812 8.796875 -9.8125 C 9.597656 -9.363281 10.222656 -8.734375 10.671875 -7.921875 C 11.117188 -7.117188 11.34375 -6.1875 11.34375 -5.125 Z M 6.09375 -8.546875 C 5.320312 -8.546875 4.664062 -8.316406 4.125 -7.859375 C 3.59375 -7.398438 3.265625 -6.785156 3.140625 -6.015625 L 9.03125 -6.015625 C 8.925781 -6.765625 8.609375 -7.375 8.078125 -7.84375 C 7.546875 -8.3125 6.882812 -8.546875 6.09375 -8.546875 Z M 6.09375 -8.546875 "/></g></g></g></svg>