<svg xmlns="http://www.w3.org/2000/svg" xmlns:xlink="http://www.w3.org/1999/xlink" width="515" zoomAndPan="magnify" viewBox="0 0 386.25 386.249991" height="515" preserveAspectRatio="xMidYMid meet" version="1.0"><defs><clipPath id="9989cf6b2c"><path d="M 0 0 L 384.753906 0 L 384.753906 384.753906 L 0 384.753906 Z M 0 0 " clip-rule="nonzero"/></clipPath></defs><g clip-path="url(#9989cf6b2c)"><path fill="#260e69" d="M 51.300781 0 C 36.972656 0 25.648438 11.554688 25.648438 25.648438 L 25.648438 132.460938 C 16.433594 135.5 10.1875 141.308594 6.210938 147.824219 C 1.535156 155.503906 0 163.886719 0 170.933594 L 0 225.507812 C 0 236.863281 5.175781 250.824219 9.984375 264.382812 C 12.425781 271.164062 14.796875 277.742188 16.53125 283.222656 C 18.269531 288.699219 19.238281 292.804688 19.238281 294.945312 L 19.238281 319.125 C 15.328125 322.632812 12.824219 327.675781 12.824219 333.453125 L 12.824219 365.546875 C 12.824219 376.234375 21.507812 384.753906 32.0625 384.753906 L 121.839844 384.753906 C 132.390625 384.753906 141.074219 376.371094 141.074219 365.546875 L 141.074219 333.453125 C 141.074219 325.835938 136.667969 319.125 130.019531 316.019531 C 131.089844 311.609375 133.394531 305.765625 135.898438 298.683594 C 138.839844 290.433594 141.910156 280.582031 142.847656 269.359375 L 223.738281 269.359375 L 240.871094 303.726562 C 234.894531 307 230.851562 313.210938 230.851562 320.628906 L 230.851562 352.722656 C 230.851562 363.277344 239.367188 371.929688 250.089844 371.929688 L 339.863281 371.929688 C 350.585938 371.929688 359.101562 363.277344 359.101562 352.722656 L 359.101562 320.628906 C 359.101562 312.914062 354.59375 306.234375 347.878906 303.125 L 357.53125 269.359375 L 359.101562 269.359375 C 373.195312 269.359375 384.753906 257.9375 384.753906 243.675781 L 384.753906 25.648438 C 384.753906 11.554688 373.464844 0 359.101562 0 Z M 51.300781 12.824219 L 359.101562 12.824219 C 366.183594 12.824219 371.929688 18.4375 371.929688 25.648438 L 371.929688 243.675781 C 371.929688 250.890625 366.117188 256.535156 359.101562 256.535156 L 359.101562 44.886719 C 359.101562 34.332031 350.621094 25.648438 339.863281 25.648438 L 70.539062 25.648438 C 59.75 25.648438 51.300781 34.332031 51.300781 44.886719 L 51.300781 153.902344 C 46.625 153.902344 42.28125 155.101562 38.476562 157.339844 L 38.476562 25.648438 C 38.476562 18.4375 44.21875 12.824219 51.300781 12.824219 Z M 70.539062 38.476562 L 339.863281 38.476562 C 343.339844 38.476562 346.277344 41.214844 346.277344 44.886719 L 346.277344 193.480469 C 344.242188 192.742188 342.136719 192.375 339.863281 192.375 C 336.691406 192.375 335.089844 192.878906 332.75 193.710938 C 331.546875 187.800781 324.769531 179.484375 314.214844 179.550781 C 309.4375 179.585938 306.464844 181.121094 304.761719 182.023438 C 302.523438 178.414062 297.347656 173.171875 288.566406 173.171875 C 285.691406 173.171875 283.820312 173.640625 282.117188 174.242188 L 282.117188 153.902344 L 327.140625 153.902344 C 335.691406 153.902344 335.691406 141.074219 327.140625 141.074219 L 282.117188 141.074219 L 282.117188 121.839844 C 282.117188 119.566406 281.785156 117.429688 281.050781 115.425781 L 296.078125 115.425781 C 298.683594 122.839844 305.730469 128.25 314.179688 128.25 C 324.96875 128.25 333.453125 119.566406 333.453125 109.011719 C 333.453125 98.460938 324.867188 89.777344 314.179688 89.777344 C 305.796875 89.777344 298.75 95.1875 296.078125 102.566406 L 185.929688 102.566406 C 177.378906 102.566406 177.378906 115.425781 185.929688 115.425781 L 244.777344 115.425781 C 244.042969 117.429688 243.675781 119.601562 243.675781 121.839844 L 243.675781 141.074219 L 229.75 141.074219 C 227.078125 133.660156 220.128906 128.285156 211.582031 128.285156 C 203.03125 128.285156 196.117188 133.660156 193.480469 141.074219 L 186.03125 141.074219 C 177.480469 141.074219 177.480469 153.902344 186.03125 153.902344 L 193.445312 153.902344 C 196.082031 161.316406 202.964844 166.691406 211.582031 166.691406 C 220.230469 166.691406 227.144531 161.316406 229.75 153.902344 L 243.675781 153.902344 L 243.675781 206.972656 L 236.128906 193.8125 C 229.949219 183.125 216.289062 179.351562 205.433594 185.628906 C 194.445312 191.976562 191.773438 205.300781 197.050781 215.921875 L 204.535156 230.851562 L 90.644531 230.851562 C 85.96875 224.90625 81.359375 220.230469 76.984375 214.621094 L 76.984375 179.550781 C 76.984375 170.132812 71.941406 161.882812 64.160156 157.308594 L 64.160156 44.886719 C 64.160156 41.347656 66.863281 38.476562 70.539062 38.476562 Z M 211.613281 51.300781 C 203.199219 51.300781 196.082031 56.710938 193.445312 64.160156 L 185.964844 64.160156 C 177.414062 64.160156 177.414062 76.984375 185.964844 76.984375 L 193.480469 76.984375 C 196.117188 84.363281 203.164062 89.777344 211.613281 89.777344 C 220.0625 89.777344 227.109375 84.363281 229.75 76.984375 L 327.140625 76.984375 C 335.691406 76.984375 335.691406 64.160156 327.140625 64.160156 L 229.75 64.160156 C 227.210938 56.746094 220.03125 51.300781 211.613281 51.300781 Z M 121.839844 57.714844 C 120.300781 57.714844 118.867188 58.246094 117.730469 59.214844 L 79.253906 91.277344 C 72.675781 96.757812 80.925781 106.609375 87.472656 101.097656 L 89.742188 99.226562 L 89.742188 121.839844 C 81.226562 121.871094 81.226562 134.664062 89.777344 134.664062 L 153.902344 134.664062 C 162.453125 134.664062 162.453125 121.839844 153.902344 121.839844 L 153.902344 99.195312 L 156.207031 101.097656 C 162.75 106.609375 171 96.757812 164.421875 91.277344 L 125.945312 59.214844 C 124.8125 58.246094 123.375 57.714844 121.839844 57.714844 Z M 211.613281 64.125 C 215.085938 64.125 218.058594 66.863281 218.058594 70.503906 C 218.058594 74.179688 215.121094 76.949219 211.613281 76.949219 C 208.105469 76.949219 205.234375 74.179688 205.234375 70.503906 C 205.234375 66.863281 208.140625 64.125 211.613281 64.125 Z M 121.839844 72.476562 L 141.074219 88.507812 L 141.074219 121.839844 L 128.25 121.839844 L 128.25 109.011719 C 128.050781 100.664062 115.59375 100.664062 115.425781 109.011719 L 115.425781 121.839844 L 102.566406 121.839844 L 102.566406 88.539062 Z M 314.179688 102.601562 C 317.6875 102.601562 320.628906 105.339844 320.628906 109.011719 C 320.628906 112.6875 317.589844 115.460938 314.179688 115.460938 C 310.773438 115.460938 307.800781 112.6875 307.800781 109.011719 C 307.800781 105.339844 310.707031 102.601562 314.179688 102.601562 Z M 262.914062 115.425781 C 266.355469 115.425781 269.359375 118.199219 269.359375 121.839844 L 269.359375 218.027344 C 269.359375 226.441406 282.117188 226.777344 282.117188 218.027344 L 282.117188 192.375 C 282.117188 188.703125 285.191406 185.929688 288.566406 185.929688 C 291.9375 185.929688 294.945312 188.703125 294.945312 192.375 L 294.945312 218.027344 C 294.945312 226.578125 307.800781 226.578125 307.800781 218.027344 L 307.800781 198.753906 C 307.800781 195.113281 310.773438 192.375 314.214844 192.375 C 317.6875 192.375 320.628906 195.113281 320.628906 198.753906 L 320.628906 218.027344 C 320.628906 226.578125 333.453125 226.578125 333.453125 218.027344 L 333.453125 211.613281 C 333.453125 207.941406 336.390625 205.203125 339.863281 205.203125 C 343.371094 205.203125 346.277344 207.941406 346.277344 211.613281 L 346.277344 262.011719 L 334.988281 301.390625 L 254.0625 301.390625 L 208.507812 210.179688 C 205.871094 204.902344 207.472656 199.222656 211.847656 196.683594 C 216.222656 194.148438 222.167969 195.347656 225.007812 200.226562 L 244.546875 234.023438 C 247.816406 239.734375 256.5 237.429688 256.535156 230.851562 L 256.535156 121.839844 C 256.535156 118.199219 259.472656 115.425781 262.914062 115.425781 Z M 211.582031 141.109375 C 215.085938 141.109375 218.027344 143.816406 218.027344 147.488281 C 218.027344 151.164062 214.953125 153.933594 211.582031 153.933594 C 208.242188 153.933594 205.203125 151.164062 205.203125 147.488281 C 205.203125 143.816406 208.105469 141.109375 211.582031 141.109375 Z M 25.648438 146.320312 L 25.648438 218.027344 C 25.851562 226.410156 38.308594 226.410156 38.476562 218.027344 L 38.476562 179.550781 C 38.476562 172.335938 44.351562 166.726562 51.300781 166.726562 C 58.28125 166.726562 64.160156 172.335938 64.160156 179.550781 L 64.160156 216.15625 C 64.160156 218.359375 65.128906 219.929688 65.394531 220.398438 C 68.769531 225.574219 75.75 233.054688 79.523438 237.53125 C 84.699219 243.609375 89.777344 251.125 89.777344 253.460938 L 89.777344 275.738281 C 89.574219 284.488281 102.800781 284.488281 102.601562 275.738281 L 102.601562 269.359375 L 130.019531 269.359375 C 129.121094 278.445312 126.546875 286.761719 123.84375 294.375 C 121.304688 301.523438 118.398438 308.46875 117.296875 314.214844 L 32.0625 314.214844 L 32.0625 294.945312 C 32.0625 290.335938 30.59375 285.226562 28.722656 279.347656 C 26.851562 273.433594 24.449219 266.789062 22.078125 260.074219 C 17.265625 246.648438 12.824219 232.355469 12.824219 225.507812 L 12.824219 170.933594 C 12.824219 165.890625 14.0625 159.546875 17.132812 154.46875 C 19.105469 151.195312 22.042969 148.257812 25.648438 146.320312 Z M 99.695312 243.675781 L 210.914062 243.675781 L 217.324219 256.535156 L 102.601562 256.535156 L 102.601562 253.09375 C 102.601562 249.320312 100.5625 245.144531 99.695312 243.675781 Z M 250.089844 314.214844 L 339.863281 314.214844 C 343.339844 314.214844 346.277344 316.953125 346.277344 320.628906 L 346.277344 352.722656 C 346.277344 356.363281 343.304688 359.101562 339.863281 359.101562 L 250.089844 359.101562 C 246.582031 359.101562 243.675781 356.363281 243.675781 352.722656 L 243.675781 320.628906 C 243.675781 316.953125 246.582031 314.214844 250.089844 314.214844 Z M 32.0625 327.039062 L 121.839844 327.039062 C 125.34375 327.039062 128.25 329.777344 128.25 333.453125 L 128.25 365.546875 C 128.25 369.1875 125.277344 371.929688 121.839844 371.929688 L 32.0625 371.929688 C 28.488281 371.929688 25.648438 369.054688 25.648438 365.546875 L 25.648438 333.453125 C 25.648438 329.777344 28.523438 327.039062 32.0625 327.039062 Z M 262.914062 333.453125 C 259.375 333.453125 256.5 336.324219 256.5 339.863281 C 256.5 343.40625 259.375 346.277344 262.914062 346.277344 C 266.453125 346.277344 269.328125 343.40625 269.328125 339.863281 C 269.328125 336.324219 266.453125 333.453125 262.914062 333.453125 Z M 44.886719 346.277344 C 41.347656 346.277344 38.476562 349.148438 38.476562 352.691406 C 38.476562 356.230469 41.347656 359.101562 44.886719 359.101562 C 48.429688 359.101562 51.300781 356.230469 51.300781 352.691406 C 51.300781 349.148438 48.429688 346.277344 44.886719 346.277344 " fill-opacity="1" fill-rule="nonzero"/></g></svg>