<svg xmlns="http://www.w3.org/2000/svg" xmlns:xlink="http://www.w3.org/1999/xlink" width="1920" zoomAndPan="magnify" viewBox="0 0 1440 809.999993" height="1080" preserveAspectRatio="xMidYMid meet" version="1.0"><path fill="#260e69" d="M 517.601562 129 C 497.042969 129 480.800781 145.578125 480.800781 165.800781 L 480.800781 319.039062 C 467.574219 323.398438 458.613281 331.734375 452.914062 341.078125 C 446.203125 352.101562 444 364.128906 444 374.238281 L 444 452.535156 C 444 468.824219 451.425781 488.855469 458.328125 508.308594 C 461.824219 518.035156 465.226562 527.476562 467.71875 535.332031 C 470.210938 543.191406 471.601562 549.085938 471.601562 552.152344 L 471.601562 586.84375 C 465.992188 591.875 462.398438 599.109375 462.398438 607.398438 L 462.398438 653.449219 C 462.398438 668.78125 474.859375 681 490 681 L 618.800781 681 C 633.941406 681 646.398438 668.972656 646.398438 653.449219 L 646.398438 607.398438 C 646.398438 596.476562 640.074219 586.84375 630.539062 582.386719 C 632.074219 576.0625 635.378906 567.675781 638.972656 557.519531 C 643.191406 545.683594 647.597656 531.546875 648.941406 515.449219 L 764.992188 515.449219 L 789.574219 564.753906 C 780.996094 569.449219 775.199219 578.363281 775.199219 589 L 775.199219 635.046875 C 775.199219 650.191406 787.417969 662.601562 802.800781 662.601562 L 931.601562 662.601562 C 946.980469 662.601562 959.199219 650.191406 959.199219 635.046875 L 959.199219 589 C 959.199219 577.929688 952.730469 568.347656 943.101562 563.890625 L 956.949219 515.449219 L 959.199219 515.449219 C 979.421875 515.449219 996 499.058594 996 478.601562 L 996 165.800781 C 996 145.578125 979.804688 129 959.199219 129 Z M 517.601562 147.398438 L 959.199219 147.398438 C 969.359375 147.398438 977.601562 155.449219 977.601562 165.800781 L 977.601562 478.601562 C 977.601562 488.949219 969.261719 497.046875 959.199219 497.046875 L 959.199219 193.398438 C 959.199219 178.257812 947.027344 165.800781 931.601562 165.800781 L 545.199219 165.800781 C 529.722656 165.800781 517.601562 178.257812 517.601562 193.398438 L 517.601562 349.800781 C 510.890625 349.800781 504.664062 351.523438 499.199219 354.734375 L 499.199219 165.800781 C 499.199219 155.449219 507.441406 147.398438 517.601562 147.398438 Z M 545.199219 184.199219 L 931.601562 184.199219 C 936.582031 184.199219 940.800781 188.128906 940.800781 193.398438 L 940.800781 406.582031 C 937.878906 405.527344 934.859375 405 931.601562 405 C 927.046875 405 924.746094 405.71875 921.394531 406.917969 C 919.667969 398.433594 909.941406 386.503906 894.800781 386.601562 C 887.949219 386.648438 883.683594 388.851562 881.238281 390.144531 C 878.027344 384.972656 870.601562 377.449219 858 377.449219 C 853.878906 377.449219 851.195312 378.117188 848.753906 378.980469 L 848.753906 349.800781 L 913.34375 349.800781 C 925.609375 349.800781 925.609375 331.398438 913.34375 331.398438 L 848.753906 331.398438 L 848.753906 303.800781 C 848.753906 300.542969 848.273438 297.476562 847.21875 294.601562 L 868.78125 294.601562 C 872.519531 305.238281 882.628906 313 894.753906 313 C 910.230469 313 922.398438 300.542969 922.398438 285.398438 C 922.398438 270.257812 910.085938 257.800781 894.753906 257.800781 C 882.726562 257.800781 872.613281 265.5625 868.78125 276.152344 L 710.753906 276.152344 C 698.484375 276.152344 698.484375 294.601562 710.753906 294.601562 L 795.179688 294.601562 C 794.128906 297.476562 793.601562 300.589844 793.601562 303.800781 L 793.601562 331.398438 L 773.617188 331.398438 C 769.785156 320.761719 759.820312 313.046875 747.550781 313.046875 C 735.285156 313.046875 725.367188 320.761719 721.582031 331.398438 L 710.894531 331.398438 C 698.628906 331.398438 698.628906 349.800781 710.894531 349.800781 L 721.535156 349.800781 C 725.320312 360.4375 735.191406 368.152344 747.550781 368.152344 C 759.960938 368.152344 769.882812 360.4375 773.617188 349.800781 L 793.601562 349.800781 L 793.601562 425.941406 L 782.769531 407.058594 C 773.90625 391.726562 754.308594 386.3125 738.734375 395.320312 C 722.972656 404.425781 719.136719 423.542969 726.707031 438.78125 L 737.441406 460.199219 L 574.046875 460.199219 C 567.335938 451.671875 560.726562 444.960938 554.449219 436.914062 L 554.449219 386.601562 C 554.449219 373.085938 547.210938 361.253906 536.046875 354.6875 L 536.046875 193.398438 C 536.046875 188.320312 539.929688 184.199219 545.199219 184.199219 Z M 747.601562 202.601562 C 735.523438 202.601562 725.320312 210.363281 721.535156 221.046875 L 710.800781 221.046875 C 698.535156 221.046875 698.535156 239.449219 710.800781 239.449219 L 721.582031 239.449219 C 725.367188 250.039062 735.476562 257.800781 747.601562 257.800781 C 759.722656 257.800781 769.832031 250.039062 773.617188 239.449219 L 913.34375 239.449219 C 925.609375 239.449219 925.609375 221.046875 913.34375 221.046875 L 773.617188 221.046875 C 769.976562 210.410156 759.675781 202.601562 747.601562 202.601562 Z M 618.800781 211.800781 C 616.597656 211.800781 614.535156 212.566406 612.90625 213.957031 L 557.707031 259.957031 C 548.265625 267.816406 560.101562 281.949219 569.492188 274.042969 L 572.753906 271.359375 L 572.753906 303.800781 C 560.535156 303.847656 560.535156 322.199219 572.800781 322.199219 L 664.800781 322.199219 C 677.066406 322.199219 677.066406 303.800781 664.800781 303.800781 L 664.800781 271.3125 L 668.105469 274.042969 C 677.496094 281.949219 689.332031 267.816406 679.894531 259.957031 L 624.695312 213.957031 C 623.066406 212.566406 621.003906 211.800781 618.800781 211.800781 Z M 747.601562 221 C 752.582031 221 756.847656 224.929688 756.847656 230.152344 C 756.847656 235.421875 752.632812 239.398438 747.601562 239.398438 C 742.570312 239.398438 738.449219 235.421875 738.449219 230.152344 C 738.449219 224.929688 742.617188 221 747.601562 221 Z M 618.800781 232.980469 L 646.398438 255.980469 L 646.398438 303.800781 L 628 303.800781 L 628 285.398438 C 627.710938 273.421875 609.839844 273.421875 609.601562 285.398438 L 609.601562 303.800781 L 591.152344 303.800781 L 591.152344 256.027344 Z M 894.753906 276.199219 C 899.785156 276.199219 904 280.128906 904 285.398438 C 904 290.671875 899.640625 294.648438 894.753906 294.648438 C 889.863281 294.648438 885.601562 290.671875 885.601562 285.398438 C 885.601562 280.128906 889.769531 276.199219 894.753906 276.199219 Z M 821.199219 294.601562 C 826.136719 294.601562 830.449219 298.578125 830.449219 303.800781 L 830.449219 441.800781 C 830.449219 453.875 848.753906 454.355469 848.753906 441.800781 L 848.753906 405 C 848.753906 399.730469 853.160156 395.753906 858 395.753906 C 862.839844 395.753906 867.152344 399.730469 867.152344 405 L 867.152344 441.800781 C 867.152344 454.066406 885.601562 454.066406 885.601562 441.800781 L 885.601562 414.152344 C 885.601562 408.929688 889.863281 405 894.800781 405 C 899.785156 405 904 408.929688 904 414.152344 L 904 441.800781 C 904 454.066406 922.398438 454.066406 922.398438 441.800781 L 922.398438 432.601562 C 922.398438 427.328125 926.617188 423.398438 931.601562 423.398438 C 936.632812 423.398438 940.800781 427.328125 940.800781 432.601562 L 940.800781 504.90625 L 924.605469 561.398438 L 808.503906 561.398438 L 743.144531 430.539062 C 739.359375 422.96875 741.660156 414.824219 747.933594 411.179688 C 754.210938 407.539062 762.742188 409.265625 766.816406 416.261719 L 794.847656 464.753906 C 799.542969 472.945312 812 469.640625 812.046875 460.199219 L 812.046875 303.800781 C 812.046875 298.578125 816.265625 294.601562 821.199219 294.601562 Z M 747.550781 331.449219 C 752.582031 331.449219 756.800781 335.328125 756.800781 340.601562 C 756.800781 345.871094 752.390625 349.847656 747.550781 349.847656 C 742.761719 349.847656 738.398438 345.871094 738.398438 340.601562 C 738.398438 335.328125 742.570312 331.449219 747.550781 331.449219 Z M 480.800781 338.921875 L 480.800781 441.800781 C 481.085938 453.828125 498.960938 453.828125 499.199219 441.800781 L 499.199219 386.601562 C 499.199219 376.25 507.632812 368.199219 517.601562 368.199219 C 527.613281 368.199219 536.046875 376.25 536.046875 386.601562 L 536.046875 439.117188 C 536.046875 442.277344 537.4375 444.53125 537.820312 445.203125 C 542.660156 452.628906 552.675781 463.363281 558.089844 469.785156 C 565.515625 478.503906 572.800781 489.285156 572.800781 492.640625 L 572.800781 524.601562 C 572.511719 537.152344 591.488281 537.152344 591.199219 524.601562 L 591.199219 515.449219 L 630.539062 515.449219 C 629.246094 528.480469 625.554688 540.414062 621.675781 551.335938 C 618.035156 561.589844 613.863281 571.558594 612.285156 579.800781 L 490 579.800781 L 490 552.152344 C 490 545.539062 487.890625 538.207031 485.207031 529.773438 C 482.523438 521.292969 479.074219 511.757812 475.671875 502.128906 C 468.773438 482.863281 462.398438 462.355469 462.398438 452.535156 L 462.398438 374.238281 C 462.398438 367.003906 464.171875 357.898438 468.582031 350.613281 C 471.410156 345.917969 475.625 341.703125 480.800781 338.921875 Z M 587.03125 478.601562 L 746.59375 478.601562 L 755.792969 497.046875 L 591.199219 497.046875 L 591.199219 492.113281 C 591.199219 486.699219 588.277344 480.707031 587.03125 478.601562 Z M 802.800781 579.800781 L 931.601562 579.800781 C 936.582031 579.800781 940.800781 583.730469 940.800781 589 L 940.800781 635.046875 C 940.800781 640.269531 936.535156 644.199219 931.601562 644.199219 L 802.800781 644.199219 C 797.769531 644.199219 793.601562 640.269531 793.601562 635.046875 L 793.601562 589 C 793.601562 583.730469 797.769531 579.800781 802.800781 579.800781 Z M 490 598.199219 L 618.800781 598.199219 C 623.832031 598.199219 628 602.128906 628 607.398438 L 628 653.449219 C 628 658.671875 623.734375 662.601562 618.800781 662.601562 L 490 662.601562 C 484.871094 662.601562 480.800781 658.480469 480.800781 653.449219 L 480.800781 607.398438 C 480.800781 602.128906 484.921875 598.199219 490 598.199219 Z M 821.199219 607.398438 C 816.121094 607.398438 812 611.519531 812 616.601562 C 812 621.679688 816.121094 625.800781 821.199219 625.800781 C 826.277344 625.800781 830.398438 621.679688 830.398438 616.601562 C 830.398438 611.519531 826.277344 607.398438 821.199219 607.398438 Z M 508.398438 625.800781 C 503.320312 625.800781 499.199219 629.921875 499.199219 635 C 499.199219 640.078125 503.320312 644.199219 508.398438 644.199219 C 513.480469 644.199219 517.601562 640.078125 517.601562 635 C 517.601562 629.921875 513.480469 625.800781 508.398438 625.800781 " fill-opacity="1" fill-rule="nonzero"/></svg>