<svg xmlns="http://www.w3.org/2000/svg" xmlns:xlink="http://www.w3.org/1999/xlink" width="195" zoomAndPan="magnify" viewBox="0 0 146.25 451.499989" height="602" preserveAspectRatio="xMidYMid meet" version="1.0"><defs><clipPath id="b3077c78ba"><path d="M 0 1 L 143.738281 1 L 143.738281 450 L 0 450 Z M 0 1 " clip-rule="nonzero"/></clipPath></defs><g clip-path="url(#b3077c78ba)"><path fill="#162039" d="M 113.214844 143.96875 C 113.289062 143.96875 113.398438 144.085938 113.578125 144.328125 C 114.628906 145.738281 116.347656 147.4375 118.539062 149.273438 C 119.992188 150.46875 120.082031 150.570312 120.085938 151.238281 C 120.089844 151.625 120.222656 152.359375 120.382812 152.882812 C 120.800781 154.296875 120.28125 154.96875 118.582031 155.195312 C 117.375 155.347656 116.871094 155.808594 116.375 157.253906 C 115.863281 158.695312 115.851562 159.046875 116.304688 160.617188 C 116.722656 162.035156 117.113281 162.449219 118.484375 162.875 C 120.421875 163.488281 120.441406 163.660156 118.9375 167.777344 C 118.714844 168.359375 118.5 169.464844 118.4375 170.238281 C 118.296875 172.113281 117.9375 174.433594 117.613281 175.503906 C 117.324219 176.453125 117.382812 176.980469 117.9375 178.21875 C 118.65625 179.789062 118.789062 180.75 118.679688 183.769531 L 118.585938 186.609375 L 117.601562 188.109375 C 115.839844 190.789062 115.617188 191.652344 116.355469 193.222656 C 117.214844 195.070312 117.289062 195.457031 116.875 196.320312 C 116.5 197.128906 115.460938 198.402344 115.179688 198.40625 C 115.074219 198.40625 114.894531 198.074219 114.785156 197.65625 C 114.566406 196.972656 112.914062 193.152344 112.648438 192.714844 C 112.574219 192.609375 112.378906 192.332031 112.21875 192.089844 C 112.042969 191.863281 111.863281 191.339844 111.804688 190.917969 C 111.746094 190.5 111.585938 189.992188 111.441406 189.800781 C 111.015625 189.207031 111.109375 188.085938 111.660156 186.941406 C 112.449219 185.355469 113.132812 183.578125 113.558594 182.117188 C 113.761719 181.398438 114.238281 180.042969 114.613281 179.128906 C 115.761719 176.363281 116.101562 175.152344 116.308594 173.117188 C 116.484375 171.414062 116.464844 171.0625 116.191406 170.03125 C 116.007812 169.386719 115.648438 168.390625 115.359375 167.816406 C 114.609375 166.316406 114.320312 165.597656 113.597656 163.625 C 113.039062 162.070312 112.945312 161.582031 112.800781 159.25 C 112.695312 157.796875 112.523438 156.34375 112.414062 156.011719 C 112.199219 155.332031 112.113281 152.089844 112.320312 151.773438 C 112.390625 151.648438 112.449219 150.527344 112.433594 149.265625 C 112.433594 147.25 112.710938 145.175781 113.101562 144.085938 C 113.132812 144.007812 113.167969 143.96875 113.214844 143.96875 Z M 77.542969 276.308594 C 77.714844 276.308594 77.996094 276.855469 78.28125 277.796875 C 78.460938 278.339844 78.75 279.265625 78.933594 279.839844 C 79.113281 280.417969 79.367188 281.363281 79.480469 281.9375 C 79.589844 282.515625 80.050781 284.40625 80.503906 286.152344 C 80.945312 287.882812 81.421875 290.070312 81.570312 290.996094 C 81.722656 291.925781 81.886719 292.746094 81.941406 292.835938 C 81.996094 292.921875 82.125 293.726562 82.257812 294.617188 C 82.371094 295.53125 82.539062 296.457031 82.628906 296.683594 C 82.71875 296.910156 82.886719 297.855469 82.984375 298.785156 C 83.097656 299.695312 83.339844 300.953125 83.539062 301.582031 C 83.992188 302.980469 83.996094 303.472656 83.585938 304.632812 C 82.972656 306.375 82.988281 308.003906 83.691406 311.554688 C 83.859375 312.464844 84.074219 312.972656 84.394531 313.300781 C 84.925781 313.875 85.425781 314.78125 85.429688 315.199219 C 85.433594 315.375 85.261719 315.867188 85.054688 316.308594 C 84.265625 317.980469 84.496094 319.800781 85.820312 322.3125 C 86.480469 323.570312 86.515625 323.691406 86.476562 325.042969 C 86.453125 326.074219 86.304688 326.847656 85.910156 328.007812 C 85.160156 330.15625 84.949219 331.613281 84.746094 335.875 C 84.585938 339.117188 84.609375 339.785156 84.875 341.515625 C 85.058594 342.585938 85.199219 344.144531 85.207031 344.984375 C 85.226562 346.789062 85.695312 348.082031 86.46875 348.476562 C 86.753906 348.613281 87.085938 348.855469 87.246094 349.011719 C 87.511719 349.273438 87.480469 349.359375 86.785156 350.210938 C 86.371094 350.703125 85.816406 351.429688 85.574219 351.816406 C 84.902344 352.894531 84.253906 355.054688 84.269531 356.265625 C 84.273438 356.84375 84.164062 357.949219 84.011719 358.703125 C 83.429688 361.792969 83.222656 363.726562 83.195312 366.390625 C 83.144531 373.347656 82.648438 378.210938 81.953125 378.917969 C 81.867188 379.007812 81.789062 379.054688 81.671875 379.054688 C 81.484375 379.054688 81.195312 378.929688 80.601562 378.632812 C 79.859375 378.273438 79.371094 378.101562 79.035156 378.101562 C 78.84375 378.101562 78.703125 378.160156 78.597656 378.269531 C 78.539062 378.328125 78.480469 378.355469 78.425781 378.355469 C 78.351562 378.355469 78.273438 378.300781 78.191406 378.203125 C 78.03125 378.011719 78.042969 377.554688 78.222656 376.152344 C 78.371094 375.148438 78.546875 373.289062 78.636719 372.042969 C 78.730469 370.78125 78.917969 368.675781 79.0625 367.34375 C 79.335938 364.746094 79.226562 359.101562 78.804688 353.8125 C 78.683594 352.359375 78.519531 349.785156 78.429688 348.085938 C 78.300781 345.613281 78.207031 344.933594 77.976562 344.671875 C 77.691406 344.359375 77.3125 343.152344 76.816406 341.019531 C 76.6875 340.425781 76.585938 339.09375 76.574219 338.042969 C 76.589844 336.042969 76.238281 334.453125 75.398438 332.601562 C 74.949219 331.609375 74.902344 330.433594 75.277344 329.394531 C 75.429688 328.957031 75.632812 328.097656 75.730469 327.464844 C 75.828125 326.832031 76.0625 325.707031 76.25 324.953125 C 76.855469 322.421875 76.808594 317.988281 75.996094 303.269531 C 75.457031 293.390625 75.316406 290.042969 75.3125 286.1875 L 75.289062 281.980469 L 75.855469 280.75 C 76.179688 280.0625 76.640625 278.882812 76.878906 278.109375 C 77.136719 277.335938 77.375 276.578125 77.425781 276.4375 C 77.453125 276.351562 77.496094 276.308594 77.542969 276.308594 Z M 69.375 1.589844 C 66.941406 1.589844 65.738281 1.871094 64.371094 2.542969 C 61.839844 3.761719 60.617188 4.421875 60.042969 4.867188 C 59.46875 5.292969 57.25 6.175781 56.667969 6.179688 C 56.511719 6.183594 55.671875 6.542969 54.835938 6.96875 C 53.980469 7.398438 53.019531 7.832031 52.707031 7.957031 C 52.003906 8.191406 50.054688 9.578125 49.691406 10.074219 C 49.554688 10.265625 48.980469 10.972656 48.390625 11.644531 C 47.421875 12.777344 47.28125 13.058594 46.636719 15.097656 C 45.992188 17.140625 45.925781 17.488281 45.941406 19.136719 C 45.953125 20.3125 45.859375 21.292969 45.6875 21.910156 C 45.347656 23.070312 45.328125 24.542969 45.621094 25.519531 C 45.746094 25.90625 46.175781 26.726562 46.566406 27.316406 C 47.40625 28.535156 47.605469 29.199219 47.636719 30.828125 C 47.644531 31.476562 47.777344 32.335938 47.921875 32.738281 C 48.300781 33.785156 48.285156 33.90625 47.515625 34.390625 C 45.894531 35.441406 45.71875 36.859375 46.847656 39.53125 C 47.246094 40.472656 47.570312 41.3125 47.570312 41.398438 C 47.574219 41.714844 48.738281 44.050781 49.273438 44.835938 C 49.59375 45.269531 50.003906 46.074219 50.238281 46.597656 C 50.71875 47.757812 51.679688 48.464844 52.808594 48.464844 C 52.816406 48.464844 52.824219 48.464844 52.835938 48.464844 C 52.84375 48.464844 52.851562 48.464844 52.859375 48.464844 C 53.253906 48.464844 53.644531 48.5625 53.75 48.664062 C 54.140625 49.152344 54.671875 53.195312 54.851562 57.136719 L 55.007812 60.308594 L 54.015625 61.070312 C 52.535156 62.207031 51.519531 63.972656 51.257812 65.816406 C 51.09375 66.9375 50.027344 69.15625 49.554688 69.339844 C 49.34375 69.429688 48.699219 69.679688 48.121094 69.894531 C 47.546875 70.113281 46.078125 70.722656 44.855469 71.261719 C 43.632812 71.800781 42.53125 72.230469 42.410156 72.234375 C 42.285156 72.234375 41.117188 72.738281 39.824219 73.328125 C 38.53125 73.9375 36.800781 74.707031 35.980469 75.050781 C 35.175781 75.390625 33.832031 76.019531 33.011719 76.445312 C 31.460938 77.25 28.140625 78.863281 28 78.863281 C 27.964844 78.863281 26.710938 79.472656 25.226562 80.207031 C 23.742188 80.941406 22.46875 81.550781 22.433594 81.550781 C 22.378906 81.550781 22.015625 81.78125 21.613281 82.046875 C 21.210938 82.332031 20.445312 82.847656 19.90625 83.1875 C 18.894531 83.863281 17.316406 85.597656 16.625 86.777344 C 15.695312 88.417969 14.265625 92.796875 12.882812 98.210938 C 12.714844 98.878906 12.492188 99.722656 12.390625 100.054688 C 12.1875 100.777344 10.820312 107.558594 10.371094 110.066406 C 10.203125 110.980469 9.953125 112.15625 9.800781 112.683594 C 9.648438 113.210938 9.53125 113.933594 9.535156 114.28125 C 9.539062 114.617188 9.421875 115.335938 9.289062 115.863281 C 9.152344 116.390625 8.785156 118.253906 8.453125 119.992188 C 8.136719 121.730469 7.71875 123.855469 7.535156 124.734375 C 7.351562 125.59375 7.085938 126.980469 6.9375 127.804688 C 6.804688 128.632812 6.570312 129.652344 6.449219 130.089844 C 6.3125 130.53125 6.148438 131.320312 6.0625 131.847656 C 5.535156 135.007812 5.335938 136.132812 5.035156 137.464844 C 4.847656 138.292969 4.664062 139.277344 4.617188 139.660156 C 4.570312 140.046875 4.417969 140.910156 4.285156 141.59375 C 2.835938 149.09375 2.820312 149.25 2.828125 153.613281 C 2.832031 157.59375 2.675781 159.136719 2.222656 159.722656 C 2.121094 159.863281 1.667969 160.148438 1.195312 160.398438 C 0.289062 160.863281 0.0117188 161.25 0.0195312 162.023438 C 0.0273438 162.6875 0.578125 163.367188 1.457031 163.8125 C 2.394531 164.277344 2.660156 164.835938 2.28125 165.59375 C 2.128906 165.890625 1.835938 166.367188 1.625 166.617188 C 1.417969 166.882812 0.957031 168.023438 0.582031 169.167969 C -0.285156 171.839844 -0.390625 173.402344 -0.289062 181.675781 C -0.210938 187.722656 -0.210938 187.878906 -0.574219 188.339844 C -0.765625 188.585938 -1.09375 189.097656 -1.300781 189.484375 C -1.730469 190.296875 -1.710938 190.578125 -0.898438 194.320312 C -0.585938 195.804688 -0.25 197.886719 -0.152344 198.957031 C -0.0507812 200.007812 0.0976562 201.09375 0.207031 201.335938 C 0.3125 201.582031 0.480469 202.492188 0.59375 203.347656 C 0.710938 204.222656 0.929688 205.359375 1.113281 205.886719 C 1.546875 207.25 1.554688 209.894531 1.148438 211.109375 C 0.875 211.933594 0.84375 212.390625 0.976562 214.964844 C 1.042969 216.5625 1.046875 218.542969 0.984375 219.367188 C 0.8125 221.402344 1.046875 223.730469 1.605469 225.265625 C 2.003906 226.351562 2.058594 226.648438 1.910156 227.367188 C 1.675781 228.648438 1.511719 236.679688 1.660156 239.273438 C 1.808594 241.550781 1.808594 241.550781 2.519531 242.679688 C 3.660156 244.441406 4.109375 245.398438 4.742188 247.320312 C 5.59375 249.996094 7.019531 252.082031 8.75 253.222656 C 9.332031 253.621094 10.671875 254.132812 12.710938 254.777344 C 14.402344 255.285156 16.496094 256.003906 17.359375 256.328125 C 18.285156 256.679688 18.941406 256.871094 19.441406 256.871094 C 20.191406 256.871094 20.582031 256.4375 20.984375 255.484375 C 21.242188 254.886719 21.464844 254.671875 22.078125 254.386719 C 23.316406 253.847656 23.554688 253.003906 22.769531 251.890625 C 22.523438 251.542969 22.324219 251.15625 22.324219 251.070312 C 22.320312 250.789062 20.644531 250.023438 20.039062 250.023438 C 20.039062 250.023438 20.035156 250.023438 20.03125 250.023438 C 20.023438 250.023438 20.015625 250.023438 20.003906 250.023438 C 19.265625 250.023438 18.800781 249.734375 18.796875 249.28125 C 18.796875 249.074219 18.722656 248.792969 18.632812 248.652344 C 18.367188 248.253906 18.609375 247.953125 19.359375 247.734375 C 20.269531 247.480469 20.84375 247.089844 21.136719 246.523438 C 21.636719 245.519531 21.339844 240.421875 20.671875 238.535156 C 20.417969 237.835938 20.339844 237.050781 20.316406 234.597656 C 20.285156 231.6875 20.265625 231.476562 19.816406 230.394531 C 19.546875 229.765625 19.207031 228.894531 19.042969 228.457031 C 18.644531 227.390625 17.449219 225.441406 16.582031 224.484375 C 15.855469 223.667969 15.800781 223.441406 16.089844 222.859375 C 16.332031 222.382812 17.035156 215.699219 17.035156 213.945312 C 17.023438 212.789062 17.109375 212.453125 17.640625 211.308594 C 18.15625 210.21875 18.292969 209.671875 18.398438 208.234375 C 18.496094 207.269531 18.640625 206.078125 18.742188 205.601562 C 18.839844 205.109375 18.96875 203.722656 19.007812 202.515625 L 19.089844 200.304688 L 20.167969 199.121094 C 21.46875 197.703125 21.878906 196.578125 21.667969 195.019531 C 21.460938 193.390625 21.507812 191.21875 21.792969 190.058594 C 21.945312 189.460938 22.488281 187.597656 23 185.925781 C 23.523438 184.167969 23.980469 182.269531 24.074219 181.429688 C 24.171875 180.621094 24.367188 179.148438 24.515625 178.144531 C 24.761719 176.601562 24.761719 176.25 24.558594 175.605469 C 24.414062 175.167969 24.261719 173.730469 24.207031 172.085938 L 24.109375 169.296875 L 24.929688 168.570312 C 26.5625 167.117188 27.132812 166.429688 27.667969 165.300781 C 28.574219 163.292969 28.316406 161.929688 26.480469 159.074219 C 25.535156 157.628906 25.460938 157.101562 25.917969 155.398438 C 26.425781 153.535156 26.511719 153.375 27.414062 152.664062 C 27.851562 152.328125 28.632812 151.6875 29.171875 151.261719 C 29.699219 150.828125 29.972656 150.652344 30.132812 150.652344 C 30.195312 150.652344 30.238281 150.675781 30.273438 150.726562 C 30.363281 150.863281 30.433594 151.058594 30.4375 151.179688 C 30.4375 151.285156 30.636719 151.792969 30.886719 152.316406 C 31.136719 152.820312 31.335938 153.484375 31.339844 153.78125 C 31.347656 154.394531 31.867188 155.636719 33.425781 158.792969 L 34.089844 160.152344 L 33.808594 161.945312 C 33.644531 162.925781 33.445312 164.332031 33.367188 165.050781 C 33.058594 167.578125 32.53125 170.929688 32.3125 171.808594 C 32.007812 173.023438 31.886719 176.492188 32.109375 177.753906 C 32.203125 178.3125 32.4375 179.082031 32.652344 179.449219 C 33.171875 180.425781 35.425781 182.945312 36.078125 183.269531 C 36.941406 183.71875 37.207031 184.117188 37.34375 185.1875 C 37.472656 186.167969 37.472656 186.167969 36.675781 187.121094 C 36.242188 187.652344 35.847656 188.269531 35.796875 188.515625 C 35.746094 188.761719 35.578125 189.394531 35.40625 189.9375 C 35.085938 190.992188 35.148438 192.042969 35.636719 193.40625 C 35.871094 194.070312 35.921875 197.347656 35.691406 198.945312 C 35.59375 199.734375 35.523438 199.824219 35.105469 199.878906 C 34.332031 199.976562 33.972656 200.628906 33.847656 202.136719 C 33.785156 202.855469 33.667969 203.714844 33.585938 204.015625 C 33.484375 204.332031 33.28125 205.210938 33.097656 205.984375 C 32.929688 206.753906 32.554688 208.054688 32.265625 208.882812 C 31.363281 211.398438 30.714844 213.527344 30.722656 213.980469 C 30.722656 214.226562 30.574219 214.929688 30.386719 215.5625 C 28.316406 222.472656 28.148438 223.316406 28.1875 226.980469 C 28.21875 230.1875 28.550781 231.902344 29.742188 235.113281 L 30.320312 236.6875 L 30.3125 241.066406 C 30.320312 243.664062 30.394531 245.921875 30.507812 246.585938 C 30.636719 247.21875 30.816406 249.53125 30.929688 251.753906 C 31.164062 255.820312 31.199219 256.0625 32.316406 260.503906 C 32.480469 261.082031 32.664062 261.9375 32.753906 262.429688 C 32.847656 262.902344 33.195312 264.210938 33.503906 265.3125 C 34.050781 267.148438 34.304688 268.195312 35.351562 272.832031 C 35.535156 273.652344 35.773438 274.546875 35.882812 274.808594 C 35.988281 275.070312 36.15625 276.015625 36.269531 276.90625 C 36.558594 279.289062 36.96875 281.667969 37.6875 284.992188 C 38.054688 286.617188 38.460938 288.820312 38.613281 289.890625 C 38.894531 291.796875 39.15625 293.195312 39.691406 295.75 C 40.445312 299.300781 40.722656 300.859375 40.730469 301.402344 C 40.734375 301.734375 40.898438 302.503906 41.078125 303.117188 C 41.277344 303.726562 41.574219 305.179688 41.742188 306.335938 C 42.632812 312.636719 44.15625 319.125 45.980469 324.488281 C 46.777344 326.828125 46.8125 326.984375 46.757812 328.597656 C 46.691406 330.4375 47.117188 336.183594 47.414062 337.722656 C 47.507812 338.25 47.605469 339.40625 47.613281 340.296875 C 47.625 341.246094 47.835938 342.996094 48.09375 344.464844 C 48.375 345.988281 48.566406 347.6875 48.578125 348.71875 C 48.585938 349.667969 48.761719 351.382812 48.964844 352.539062 C 49.171875 353.691406 49.472656 355.933594 49.632812 357.527344 C 49.789062 359.121094 49.996094 360.730469 50.105469 361.113281 C 50.199219 361.5 50.371094 362.898438 50.472656 364.230469 C 50.667969 366.542969 50.96875 368.539062 51.898438 373.71875 C 52.140625 375.066406 52.40625 376.710938 52.480469 377.390625 C 52.558594 378.058594 52.726562 378.933594 52.851562 379.300781 C 52.996094 379.667969 53.199219 380.699219 53.296875 381.574219 C 53.410156 382.449219 53.613281 383.605469 53.761719 384.144531 C 53.90625 384.6875 54.035156 385.441406 54.039062 385.808594 C 54.042969 386.195312 54.210938 386.964844 54.390625 387.539062 C 54.574219 388.117188 54.792969 389.132812 54.871094 389.8125 C 54.949219 390.480469 55.207031 391.703125 55.460938 392.523438 C 55.894531 393.976562 56.125 395.867188 56.664062 402.417969 C 56.765625 403.660156 56.972656 405.078125 57.136719 405.566406 C 57.28125 406.039062 57.410156 406.597656 57.410156 406.789062 C 57.414062 406.984375 57.863281 407.996094 58.398438 409.007812 C 58.988281 410.121094 59.546875 411.449219 59.765625 412.324219 C 59.964844 413.128906 60.363281 414.28125 60.652344 414.910156 C 60.921875 415.539062 61.261719 416.324219 61.386719 416.65625 C 61.515625 416.984375 61.957031 417.578125 62.382812 417.960938 C 63.109375 418.636719 63.128906 418.707031 62.976562 419.285156 C 62.875 419.621094 62.621094 420.761719 62.40625 421.832031 C 62.171875 422.921875 61.730469 424.398438 61.386719 425.15625 C 61.042969 425.914062 60.6875 427.003906 60.605469 427.601562 C 60.273438 429.621094 60.15625 430.078125 59.726562 430.957031 C 59.484375 431.433594 59.074219 432.4375 58.816406 433.15625 C 58.542969 433.878906 58.238281 434.671875 58.097656 434.917969 C 57.980469 435.164062 57.875 435.464844 57.878906 435.585938 C 57.878906 435.707031 57.757812 435.851562 57.617188 435.902344 C 57.164062 436.082031 56.863281 437.4375 56.78125 439.804688 C 56.742188 441.082031 56.613281 442.328125 56.507812 442.558594 C 56.40625 442.789062 56.375 443.15625 56.429688 443.382812 C 56.886719 445.113281 60.402344 447.585938 63.976562 448.6875 C 65.355469 449.109375 67.273438 449.320312 69.3125 449.320312 C 71.539062 449.320312 73.90625 449.070312 75.886719 448.585938 C 78.144531 448.019531 79.140625 447.554688 79.308594 446.972656 C 79.378906 446.78125 79.480469 446.621094 79.570312 446.621094 C 79.65625 446.617188 79.96875 446.246094 80.28125 445.789062 C 80.78125 445.046875 80.796875 444.960938 80.550781 444.769531 C 80.125 444.476562 80.175781 444.105469 80.679688 443.628906 C 80.90625 443.398438 81.234375 442.886719 81.386719 442.464844 C 81.640625 441.761719 81.640625 441.691406 81.339844 441.1875 C 81.035156 440.664062 81.035156 440.609375 81.503906 438.625 C 81.976562 436.621094 81.976562 436.570312 81.6875 435.660156 C 81.234375 434.28125 81.265625 434.035156 81.984375 433.800781 C 82.945312 433.472656 83.183594 432.945312 83.03125 431.546875 C 82.757812 428.882812 82.570312 427.535156 82.371094 427.082031 C 82.15625 426.539062 82.089844 425.210938 82.253906 424.347656 C 82.324219 424 82.429688 423.828125 82.65625 423.828125 C 82.875 423.828125 83.199219 423.988281 83.710938 424.300781 C 84.152344 424.59375 84.980469 425.023438 85.5625 425.28125 C 86.230469 425.574219 86.558594 425.675781 87.121094 425.675781 C 87.316406 425.675781 87.539062 425.664062 87.8125 425.640625 C 88.8125 425.542969 89.160156 425.4375 89.789062 424.972656 C 90.207031 424.671875 90.675781 424.421875 90.835938 424.417969 C 90.992188 424.417969 91.5 424.097656 91.96875 423.691406 C 93.984375 421.96875 97.46875 415.765625 99.15625 410.945312 C 99.648438 409.5 100.058594 408.199219 100.054688 408.042969 C 100.054688 407.886719 100.15625 407.566406 100.277344 407.320312 C 101.050781 405.804688 101.960938 402.1875 102.335938 399.148438 C 102.464844 398.078125 102.675781 396.65625 102.828125 395.988281 C 103.195312 394.179688 103.132812 391.273438 102.683594 390.328125 C 102.21875 389.335938 102.179688 389.054688 101.90625 384.78125 C 101.742188 382.152344 101.589844 380.960938 101.390625 380.578125 C 101.015625 379.847656 101.152344 376.023438 101.597656 375.089844 C 101.890625 374.507812 103.265625 373.339844 105.566406 371.738281 C 107.621094 370.3125 108.609375 369.164062 108.601562 368.234375 C 108.597656 367.972656 108.484375 367.359375 108.339844 366.871094 C 107.957031 365.527344 107.566406 361.289062 107.789062 360.863281 C 108.0625 360.335938 108.804688 357.296875 108.917969 356.226562 C 109.011719 355.277344 109.859375 352.289062 110.203125 351.636719 C 110.425781 351.199219 112.398438 344.675781 112.394531 344.375 C 112.390625 344.148438 112.882812 342.410156 113.339844 340.929688 C 114.785156 336.445312 115.632812 331.757812 115.933594 326.601562 C 116.097656 323.691406 116.09375 323.550781 115.714844 322.433594 C 115.226562 321 115.226562 320.910156 115.6875 319.558594 L 116.0625 318.46875 L 115.664062 317.277344 C 115.445312 316.613281 115.265625 315.949219 115.261719 315.777344 C 115.261719 315.601562 115.78125 314.945312 116.421875 314.328125 L 117.570312 313.191406 L 117.445312 311.285156 C 117.300781 309.09375 116.601562 306.085938 115.886719 304.550781 L 115.402344 303.488281 L 115.367188 298.316406 C 115.335938 293.617188 115.363281 293.003906 115.699219 291.5625 C 116.574219 287.804688 116.613281 286.507812 116.394531 269.820312 C 116.25 259.023438 116.246094 253.609375 116.386719 251.765625 C 116.570312 249.136719 116.550781 242.175781 116.375 241.882812 C 116.175781 241.601562 116.1875 237.570312 116.378906 237.128906 C 116.652344 236.496094 117.042969 233.546875 117.226562 230.898438 C 117.378906 228.617188 117.378906 228.617188 118.222656 227.121094 C 118.671875 226.292969 119.445312 224.863281 119.910156 223.949219 C 120.375 223.03125 121.082031 221.710938 121.476562 221.039062 C 121.855469 220.351562 122.527344 219.121094 122.960938 218.273438 C 124.265625 215.664062 125.320312 214.199219 126.160156 213.824219 C 126.5625 213.644531 127.136719 213.253906 127.429688 212.933594 C 128.074219 212.28125 129.292969 209.8125 130.558594 206.574219 C 131.054688 205.308594 131.808594 203.496094 132.222656 202.527344 C 132.648438 201.558594 133.128906 200.292969 133.28125 199.710938 C 133.449219 199.132812 133.757812 198.339844 133.964844 197.953125 C 134.1875 197.5625 134.824219 196.207031 135.371094 194.957031 C 135.921875 193.691406 136.988281 191.679688 137.746094 190.464844 C 139.527344 187.605469 140.195312 186.300781 140.792969 184.472656 C 141.492188 182.378906 141.445312 181.417969 140.625 179.933594 L 139.980469 178.765625 L 140.5 176.554688 C 141.191406 173.582031 141.566406 170.914062 141.578125 168.6875 C 141.582031 167.058594 141.648438 166.691406 142.144531 165.441406 L 142.707031 164.03125 L 142.675781 160.703125 C 142.660156 157.601562 142.675781 157.320312 143.035156 156.578125 C 143.757812 155.117188 143.804688 154.574219 143.597656 151.386719 C 143.390625 148.355469 143.152344 147.128906 142.394531 145.28125 C 141.710938 143.585938 141.277344 142.117188 140.671875 139.601562 C 140.378906 138.308594 139.957031 136.804688 139.761719 136.246094 C 139.5625 135.6875 139.398438 135.109375 139.394531 134.96875 C 139.394531 134.828125 139.195312 134.148438 138.960938 133.449219 C 138.726562 132.75 138.308594 131.457031 138.035156 130.601562 C 137.765625 129.726562 137.367188 128.519531 137.132812 127.890625 C 136.589844 126.441406 135.898438 123.925781 135.382812 121.601562 C 135.179688 120.585938 134.832031 119.132812 134.632812 118.363281 C 134.429688 117.59375 134.175781 116.492188 134.082031 115.917969 C 133.988281 115.339844 133.746094 114.148438 133.5625 113.292969 C 133.378906 112.417969 133.042969 110.582031 132.820312 109.179688 C 132.257812 105.558594 132.144531 105.085938 131.425781 103.148438 C 130.828125 101.488281 129.328125 96.929688 129.015625 95.808594 C 128.796875 95.023438 127.035156 90.832031 126.644531 90.152344 C 126.449219 89.839844 126.085938 88.914062 125.851562 88.113281 C 125.269531 86.1875 125.019531 85.753906 124.046875 84.957031 C 123.605469 84.59375 122.828125 83.933594 122.3125 83.503906 C 120.402344 81.839844 119.183594 81.078125 116.117188 79.671875 C 114.371094 78.867188 112.714844 78.09375 112.414062 77.941406 C 112.132812 77.785156 111.800781 77.667969 111.695312 77.667969 L 111.691406 77.667969 C 111.460938 77.667969 109.789062 76.96875 108.628906 76.382812 C 108.1875 76.160156 106.546875 75.5625 104.980469 75.035156 C 103.414062 74.527344 101.9375 73.980469 101.722656 73.859375 C 101.496094 73.722656 101 73.515625 100.613281 73.398438 C 99.699219 73.109375 91.84375 70.050781 91.171875 69.722656 C 90.519531 69.398438 89.339844 67.148438 88.757812 65.136719 C 88.105469 62.847656 87.070312 61.457031 85.183594 60.265625 C 84.386719 59.765625 84.351562 59.679688 84.121094 57.804688 C 84.007812 56.667969 84.007812 56.667969 85.054688 54.554688 C 86.121094 52.367188 86.800781 50.242188 87.128906 47.960938 C 87.292969 46.835938 87.394531 46.570312 87.984375 45.917969 C 88.59375 45.261719 88.675781 45.015625 88.808594 43.945312 C 88.886719 43.261719 89.039062 42.558594 89.140625 42.347656 C 89.246094 42.152344 89.328125 41.519531 89.320312 40.960938 C 89.3125 40.242188 89.449219 39.660156 89.757812 38.976562 C 90.082031 38.234375 90.234375 37.53125 90.339844 35.988281 C 90.417969 34.882812 90.53125 33.867188 90.5625 33.726562 C 90.613281 33.601562 90.484375 32.992188 90.285156 32.363281 C 89.851562 30.980469 89.96875 30.261719 90.78125 29.410156 C 92.152344 27.976562 91.847656 25.335938 89.476562 18.117188 C 89.292969 17.542969 89.179688 16.738281 89.191406 16.105469 C 89.273438 13.582031 87.730469 10.335938 85.390625 8.082031 C 80.945312 3.8125 80.414062 3.433594 77.613281 2.429688 C 76.503906 2.019531 75.75 1.886719 74.011719 1.78125 C 72.058594 1.65625 70.566406 1.589844 69.375 1.589844 Z M 69.375 1.589844 " fill-opacity="1" fill-rule="nonzero"/></g></svg>