<svg xmlns="http://www.w3.org/2000/svg" xmlns:xlink="http://www.w3.org/1999/xlink" width="1920" zoomAndPan="magnify" viewBox="0 0 1440 809.999993" height="1080" preserveAspectRatio="xMidYMid meet" version="1.0"><defs><clipPath id="d7d42bdf8c"><path d="M 632.25 135 L 807.75 135 L 807.75 675 L 632.25 675 Z M 632.25 135 " clip-rule="nonzero"/></clipPath></defs><g clip-path="url(#d7d42bdf8c)"><path fill="#162039" d="M 770.933594 306.988281 C 771.027344 306.988281 771.15625 307.125 771.371094 307.417969 C 772.640625 309.113281 774.710938 311.15625 777.359375 313.363281 C 779.109375 314.800781 779.214844 314.925781 779.222656 315.726562 C 779.226562 316.1875 779.386719 317.070312 779.582031 317.703125 C 780.085938 319.402344 779.460938 320.210938 777.410156 320.484375 C 775.953125 320.667969 775.34375 321.222656 774.746094 322.957031 C 774.128906 324.691406 774.113281 325.109375 774.660156 327.003906 C 775.164062 328.703125 775.636719 329.203125 777.292969 329.714844 C 779.628906 330.449219 779.648438 330.660156 777.839844 335.609375 C 777.570312 336.308594 777.308594 337.636719 777.234375 338.566406 C 777.066406 340.820312 776.628906 343.609375 776.238281 344.898438 C 775.890625 346.039062 775.960938 346.671875 776.632812 348.160156 C 777.5 350.046875 777.660156 351.203125 777.527344 354.832031 L 777.414062 358.246094 L 776.222656 360.046875 C 774.097656 363.273438 773.835938 364.308594 774.722656 366.195312 C 775.757812 368.417969 775.847656 368.882812 775.351562 369.917969 C 774.894531 370.894531 773.640625 372.421875 773.304688 372.425781 L 773.300781 372.425781 C 773.175781 372.425781 772.960938 372.027344 772.828125 371.523438 C 772.566406 370.707031 770.574219 366.109375 770.25 365.585938 C 770.164062 365.460938 769.929688 365.125 769.734375 364.832031 C 769.519531 364.5625 769.300781 363.933594 769.234375 363.425781 C 769.164062 362.921875 768.96875 362.3125 768.796875 362.082031 C 768.28125 361.371094 768.394531 360.023438 769.058594 358.644531 C 770.011719 356.738281 770.835938 354.601562 771.347656 352.847656 C 771.59375 351.980469 772.167969 350.355469 772.625 349.253906 C 774.007812 345.929688 774.414062 344.472656 774.664062 342.027344 C 774.878906 339.980469 774.851562 339.558594 774.523438 338.320312 C 774.304688 337.542969 773.867188 336.34375 773.523438 335.652344 C 772.613281 333.851562 772.269531 332.988281 771.398438 330.617188 C 770.722656 328.75 770.609375 328.160156 770.433594 325.359375 C 770.308594 323.613281 770.101562 321.863281 769.972656 321.464844 C 769.707031 320.644531 769.605469 316.75 769.855469 316.367188 C 769.9375 316.21875 770.011719 314.871094 769.996094 313.351562 C 769.992188 310.929688 770.324219 308.441406 770.796875 307.128906 C 770.835938 307.035156 770.878906 306.988281 770.933594 306.988281 Z M 727.910156 466.078125 C 728.117188 466.078125 728.457031 466.734375 728.796875 467.867188 C 729.015625 468.515625 729.367188 469.628906 729.585938 470.324219 C 729.804688 471.015625 730.109375 472.152344 730.246094 472.847656 C 730.378906 473.539062 730.929688 475.808594 731.480469 477.910156 C 732.011719 479.992188 732.585938 482.621094 732.769531 483.734375 C 732.949219 484.851562 733.148438 485.839844 733.214844 485.945312 C 733.277344 486.046875 733.4375 487.015625 733.59375 488.089844 C 733.734375 489.183594 733.933594 490.296875 734.042969 490.570312 C 734.152344 490.84375 734.355469 491.980469 734.472656 493.09375 C 734.609375 494.191406 734.898438 495.703125 735.140625 496.460938 C 735.6875 498.140625 735.691406 498.730469 735.199219 500.125 C 734.457031 502.21875 734.476562 504.179688 735.324219 508.449219 C 735.527344 509.542969 735.789062 510.152344 736.171875 510.546875 C 736.8125 511.234375 737.417969 512.324219 737.421875 512.832031 C 737.425781 513.042969 737.21875 513.632812 736.972656 514.164062 C 736.019531 516.175781 736.292969 518.363281 737.890625 521.382812 C 738.6875 522.890625 738.734375 523.039062 738.6875 524.660156 C 738.65625 525.90625 738.476562 526.832031 738.003906 528.230469 C 737.097656 530.808594 736.839844 532.5625 736.597656 537.683594 C 736.402344 541.582031 736.433594 542.382812 736.75 544.46875 C 736.972656 545.75 737.140625 547.625 737.152344 548.636719 C 737.175781 550.804688 737.738281 552.359375 738.675781 552.835938 C 739.015625 553 739.421875 553.289062 739.613281 553.476562 C 739.933594 553.792969 739.894531 553.898438 739.058594 554.917969 C 738.554688 555.511719 737.886719 556.382812 737.59375 556.847656 C 736.78125 558.140625 736.003906 560.742188 736.019531 562.195312 C 736.027344 562.890625 735.890625 564.21875 735.710938 565.128906 C 735.007812 568.84375 734.757812 571.164062 734.726562 574.367188 C 734.664062 582.734375 734.066406 588.578125 733.226562 589.429688 C 733.125 589.535156 733.03125 589.59375 732.890625 589.59375 C 732.664062 589.59375 732.316406 589.441406 731.59375 589.085938 C 730.703125 588.652344 730.113281 588.445312 729.710938 588.445312 C 729.476562 588.445312 729.308594 588.515625 729.179688 588.648438 C 729.109375 588.71875 729.039062 588.753906 728.972656 588.753906 C 728.882812 588.753906 728.789062 588.6875 728.691406 588.566406 C 728.5 588.335938 728.515625 587.789062 728.730469 586.101562 C 728.90625 584.898438 729.117188 582.664062 729.230469 581.164062 C 729.339844 579.648438 729.570312 577.117188 729.742188 575.511719 C 730.070312 572.390625 729.9375 565.609375 729.429688 559.25 C 729.285156 557.5 729.085938 554.40625 728.980469 552.363281 C 728.824219 549.394531 728.707031 548.574219 728.429688 548.257812 C 728.085938 547.882812 727.628906 546.433594 727.03125 543.871094 C 726.875 543.15625 726.753906 541.554688 726.742188 540.289062 C 726.757812 537.886719 726.335938 535.976562 725.320312 533.75 C 724.777344 532.554688 724.722656 531.144531 725.175781 529.898438 C 725.359375 529.367188 725.601562 528.332031 725.722656 527.574219 C 725.84375 526.8125 726.125 525.460938 726.347656 524.554688 C 727.078125 521.511719 727.023438 516.179688 726.039062 498.492188 C 725.390625 486.613281 725.222656 482.589844 725.21875 477.953125 L 725.1875 472.898438 L 725.871094 471.414062 C 726.265625 470.589844 726.820312 469.171875 727.109375 468.242188 C 727.417969 467.3125 727.703125 466.402344 727.765625 466.234375 C 727.800781 466.128906 727.851562 466.078125 727.910156 466.078125 Z M 718.054688 135.824219 C 715.121094 135.824219 713.671875 136.167969 712.019531 136.976562 C 708.964844 138.4375 707.492188 139.234375 706.800781 139.765625 C 706.105469 140.28125 703.429688 141.339844 702.730469 141.347656 C 702.542969 141.347656 701.53125 141.78125 700.519531 142.296875 C 699.488281 142.8125 698.328125 143.328125 697.949219 143.480469 C 697.105469 143.761719 694.753906 145.429688 694.316406 146.023438 C 694.148438 146.257812 693.457031 147.109375 692.746094 147.914062 C 691.578125 149.277344 691.410156 149.613281 690.632812 152.066406 C 689.851562 154.519531 689.773438 154.941406 689.792969 156.921875 C 689.804688 158.332031 689.691406 159.515625 689.488281 160.253906 C 689.078125 161.648438 689.054688 163.417969 689.40625 164.597656 C 689.558594 165.058594 690.074219 166.042969 690.546875 166.753906 C 691.558594 168.21875 691.796875 169.019531 691.839844 170.976562 C 691.847656 171.757812 692.007812 172.789062 692.179688 173.269531 C 692.636719 174.53125 692.617188 174.679688 691.691406 175.257812 C 689.738281 176.519531 689.523438 178.226562 690.886719 181.4375 C 691.363281 182.570312 691.753906 183.578125 691.757812 183.683594 C 691.761719 184.0625 693.164062 186.875 693.808594 187.816406 C 694.195312 188.339844 694.691406 189.300781 694.972656 189.929688 C 695.554688 191.328125 696.710938 192.175781 698.074219 192.175781 C 698.085938 192.175781 698.097656 192.175781 698.105469 192.175781 C 698.117188 192.175781 698.125 192.175781 698.136719 192.175781 C 698.613281 192.175781 699.082031 192.292969 699.210938 192.417969 C 699.679688 193.003906 700.324219 197.863281 700.539062 202.601562 L 700.726562 206.414062 L 699.53125 207.332031 C 697.746094 208.699219 696.519531 210.820312 696.203125 213.035156 C 696.003906 214.386719 694.71875 217.054688 694.152344 217.269531 C 693.898438 217.378906 693.117188 217.679688 692.421875 217.941406 C 691.726562 218.199219 689.957031 218.933594 688.480469 219.582031 C 687.007812 220.230469 685.679688 220.75 685.53125 220.75 C 685.382812 220.75 683.972656 221.355469 682.414062 222.066406 C 680.855469 222.796875 678.769531 223.726562 677.777344 224.136719 C 676.808594 224.546875 675.1875 225.300781 674.199219 225.816406 C 672.324219 226.78125 668.324219 228.71875 668.15625 228.722656 C 668.113281 228.722656 666.597656 229.453125 664.804688 230.335938 C 663.015625 231.21875 661.480469 231.949219 661.4375 231.949219 C 661.375 231.949219 660.933594 232.230469 660.449219 232.550781 C 659.964844 232.890625 659.039062 233.511719 658.386719 233.917969 C 657.167969 234.730469 655.265625 236.816406 654.433594 238.238281 C 653.308594 240.207031 651.585938 245.472656 649.917969 251.980469 C 649.714844 252.78125 649.449219 253.796875 649.324219 254.199219 C 649.082031 255.0625 647.429688 263.214844 646.886719 266.234375 C 646.6875 267.332031 646.382812 268.746094 646.199219 269.378906 C 646.015625 270.011719 645.878906 270.878906 645.882812 271.300781 C 645.886719 271.699219 645.746094 272.566406 645.582031 273.199219 C 645.421875 273.832031 644.976562 276.070312 644.574219 278.160156 C 644.195312 280.25 643.691406 282.804688 643.46875 283.863281 C 643.246094 284.898438 642.925781 286.566406 642.746094 287.558594 C 642.585938 288.550781 642.300781 289.773438 642.160156 290.300781 C 641.996094 290.832031 641.792969 291.78125 641.695312 292.414062 C 641.054688 296.214844 640.816406 297.566406 640.449219 299.167969 C 640.226562 300.164062 640.007812 301.34375 639.949219 301.808594 C 639.890625 302.273438 639.710938 303.308594 639.550781 304.132812 C 637.800781 313.144531 637.78125 313.335938 637.792969 318.582031 C 637.796875 323.367188 637.605469 325.222656 637.0625 325.921875 C 636.9375 326.09375 636.390625 326.4375 635.820312 326.738281 C 634.726562 327.296875 634.394531 327.761719 634.402344 328.6875 C 634.410156 329.488281 635.074219 330.304688 636.140625 330.84375 C 637.265625 331.398438 637.589844 332.070312 637.132812 332.980469 C 636.945312 333.339844 636.59375 333.914062 636.34375 334.210938 C 636.089844 334.53125 635.535156 335.90625 635.082031 337.28125 C 634.035156 340.492188 633.90625 342.371094 634.027344 352.316406 C 634.125 359.582031 634.125 359.773438 633.6875 360.324219 C 633.457031 360.621094 633.0625 361.238281 632.8125 361.703125 C 632.292969 362.679688 632.316406 363.015625 633.292969 367.515625 C 633.671875 369.300781 634.078125 371.804688 634.199219 373.089844 C 634.316406 374.351562 634.5 375.65625 634.628906 375.953125 C 634.757812 376.246094 634.960938 377.339844 635.097656 378.371094 C 635.234375 379.421875 635.503906 380.789062 635.722656 381.417969 C 636.246094 383.058594 636.257812 386.238281 635.765625 387.699219 C 635.4375 388.691406 635.398438 389.238281 635.558594 392.335938 C 635.640625 394.253906 635.644531 396.632812 635.570312 397.625 C 635.359375 400.070312 635.644531 402.871094 636.316406 404.71875 C 636.796875 406.019531 636.863281 406.378906 636.683594 407.242188 C 636.402344 408.785156 636.203125 418.4375 636.382812 421.554688 C 636.558594 424.292969 636.558594 424.292969 637.417969 425.652344 C 638.796875 427.765625 639.335938 428.921875 640.101562 431.230469 C 641.128906 434.445312 642.84375 436.957031 644.933594 438.324219 C 645.636719 438.804688 647.25 439.417969 649.714844 440.195312 C 651.75 440.808594 654.277344 441.667969 655.320312 442.054688 C 656.4375 442.480469 657.226562 442.710938 657.828125 442.710938 C 658.734375 442.710938 659.203125 442.1875 659.6875 441.042969 C 660 440.324219 660.273438 440.066406 661.007812 439.722656 C 662.503906 439.074219 662.789062 438.0625 661.847656 436.722656 C 661.546875 436.304688 661.308594 435.84375 661.308594 435.738281 C 661.304688 435.402344 659.277344 434.480469 658.550781 434.480469 C 658.546875 434.480469 658.546875 434.480469 658.542969 434.480469 C 658.53125 434.480469 658.519531 434.480469 658.507812 434.480469 C 657.617188 434.480469 657.058594 434.128906 657.050781 433.589844 C 657.050781 433.335938 656.960938 433 656.855469 432.832031 C 656.53125 432.351562 656.824219 431.988281 657.730469 431.726562 C 658.828125 431.421875 659.523438 430.949219 659.875 430.273438 C 660.476562 429.066406 660.117188 422.9375 659.3125 420.671875 C 659.007812 419.832031 658.914062 418.882812 658.882812 415.933594 C 658.847656 412.4375 658.824219 412.183594 658.28125 410.882812 C 657.957031 410.125 657.542969 409.078125 657.347656 408.550781 C 656.871094 407.273438 655.429688 404.925781 654.378906 403.777344 C 653.503906 402.796875 653.4375 402.523438 653.789062 401.824219 C 654.078125 401.253906 654.929688 393.214844 654.929688 391.109375 C 654.914062 389.71875 655.015625 389.316406 655.65625 387.941406 C 656.28125 386.628906 656.441406 385.972656 656.574219 384.242188 C 656.6875 383.082031 656.863281 381.648438 656.984375 381.078125 C 657.105469 380.488281 657.257812 378.820312 657.308594 377.367188 L 657.40625 374.710938 L 658.703125 373.285156 C 660.273438 371.585938 660.769531 370.230469 660.515625 368.355469 C 660.265625 366.402344 660.320312 363.785156 660.667969 362.394531 C 660.851562 361.675781 661.503906 359.433594 662.121094 357.425781 C 662.753906 355.3125 663.300781 353.03125 663.417969 352.019531 C 663.535156 351.046875 663.773438 349.277344 663.949219 348.074219 C 664.25 346.214844 664.246094 345.792969 664.003906 345.015625 C 663.828125 344.492188 663.640625 342.765625 663.578125 340.785156 L 663.460938 337.4375 L 664.445312 336.5625 C 666.417969 334.816406 667.109375 333.984375 667.75 332.632812 C 668.847656 330.21875 668.535156 328.578125 666.320312 325.144531 C 665.179688 323.40625 665.089844 322.773438 665.640625 320.726562 C 666.253906 318.484375 666.355469 318.296875 667.449219 317.441406 C 667.972656 317.035156 668.917969 316.265625 669.566406 315.753906 C 670.203125 315.230469 670.535156 315.019531 670.726562 315.019531 C 670.800781 315.019531 670.851562 315.050781 670.894531 315.109375 C 671 315.277344 671.089844 315.507812 671.089844 315.65625 C 671.089844 315.78125 671.332031 316.390625 671.632812 317.019531 C 671.9375 317.628906 672.175781 318.425781 672.179688 318.785156 C 672.1875 319.523438 672.816406 321.011719 674.695312 324.804688 L 675.496094 326.441406 L 675.15625 328.59375 C 674.957031 329.777344 674.722656 331.464844 674.625 332.328125 C 674.253906 335.367188 673.617188 339.398438 673.351562 340.457031 C 672.988281 341.914062 672.839844 346.085938 673.109375 347.601562 C 673.21875 348.273438 673.503906 349.199219 673.761719 349.640625 C 674.390625 350.8125 677.105469 353.839844 677.894531 354.234375 C 678.9375 354.769531 679.257812 355.25 679.417969 356.535156 C 679.578125 357.714844 679.578125 357.714844 678.617188 358.863281 C 678.09375 359.5 677.617188 360.242188 677.554688 360.535156 C 677.496094 360.832031 677.292969 361.59375 677.085938 362.25 C 676.699219 363.515625 676.773438 364.78125 677.363281 366.417969 C 677.644531 367.214844 677.707031 371.15625 677.429688 373.074219 C 677.3125 374.023438 677.230469 374.132812 676.722656 374.199219 C 675.792969 374.316406 675.355469 375.097656 675.203125 376.914062 C 675.128906 377.777344 674.992188 378.8125 674.886719 379.171875 C 674.765625 379.550781 674.523438 380.605469 674.300781 381.535156 C 674.097656 382.464844 673.648438 384.027344 673.296875 385.023438 C 672.207031 388.046875 671.429688 390.605469 671.433594 391.152344 C 671.4375 391.449219 671.253906 392.292969 671.03125 393.054688 C 668.53125 401.359375 668.332031 402.375 668.375 406.777344 C 668.414062 410.632812 668.816406 412.695312 670.253906 416.554688 L 670.949219 418.445312 L 670.941406 423.714844 C 670.949219 426.832031 671.042969 429.550781 671.175781 430.347656 C 671.332031 431.105469 671.550781 433.886719 671.683594 436.558594 C 671.964844 441.445312 672.011719 441.742188 673.355469 447.078125 C 673.554688 447.773438 673.777344 448.804688 673.886719 449.390625 C 674 449.960938 674.417969 451.535156 674.789062 452.859375 C 675.449219 455.066406 675.757812 456.328125 677.019531 461.898438 C 677.242188 462.886719 677.527344 463.957031 677.65625 464.273438 C 677.789062 464.585938 677.988281 465.722656 678.128906 466.796875 C 678.472656 469.660156 678.96875 472.519531 679.835938 476.515625 C 680.277344 478.46875 680.769531 481.121094 680.953125 482.402344 C 681.292969 484.695312 681.605469 486.378906 682.25 489.449219 C 683.164062 493.71875 683.5 495.589844 683.503906 496.242188 C 683.507812 496.644531 683.710938 497.570312 683.929688 498.304688 C 684.167969 499.039062 684.523438 500.785156 684.730469 502.171875 C 685.800781 509.75 687.636719 517.546875 689.839844 523.996094 C 690.800781 526.808594 690.84375 526.996094 690.777344 528.9375 C 690.695312 531.148438 691.210938 538.054688 691.566406 539.90625 C 691.679688 540.539062 691.800781 541.929688 691.808594 543.003906 C 691.820312 544.140625 692.074219 546.246094 692.390625 548.011719 C 692.726562 549.839844 692.957031 551.882812 692.972656 553.125 C 692.984375 554.265625 693.195312 556.328125 693.441406 557.714844 C 693.6875 559.101562 694.054688 561.796875 694.242188 563.710938 C 694.429688 565.628906 694.683594 567.5625 694.816406 568.027344 C 694.925781 568.488281 695.132812 570.171875 695.253906 571.773438 C 695.496094 574.550781 695.859375 576.949219 696.980469 583.175781 C 697.269531 584.796875 697.585938 586.773438 697.679688 587.59375 C 697.773438 588.394531 697.972656 589.445312 698.128906 589.886719 C 698.300781 590.328125 698.546875 591.570312 698.664062 592.621094 C 698.800781 593.671875 699.046875 595.0625 699.222656 595.710938 C 699.398438 596.363281 699.554688 597.269531 699.5625 597.710938 C 699.566406 598.175781 699.765625 599.101562 699.984375 599.792969 C 700.203125 600.484375 700.46875 601.707031 700.5625 602.527344 C 700.65625 603.328125 700.964844 604.796875 701.273438 605.785156 C 701.796875 607.527344 702.074219 609.800781 702.726562 617.675781 C 702.847656 619.171875 703.097656 620.875 703.292969 621.464844 C 703.46875 622.03125 703.625 622.703125 703.625 622.933594 C 703.628906 623.167969 704.167969 624.382812 704.816406 625.601562 C 705.527344 626.941406 706.203125 628.535156 706.464844 629.585938 C 706.707031 630.554688 707.1875 631.941406 707.535156 632.695312 C 707.859375 633.449219 708.269531 634.394531 708.421875 634.792969 C 708.574219 635.191406 709.113281 635.902344 709.625 636.359375 C 710.5 637.175781 710.523438 637.257812 710.339844 637.957031 C 710.214844 638.355469 709.914062 639.730469 709.648438 641.019531 C 709.367188 642.328125 708.835938 644.101562 708.421875 645.011719 C 708.007812 645.921875 707.578125 647.234375 707.476562 647.953125 C 707.078125 650.378906 706.9375 650.925781 706.417969 651.988281 C 706.128906 652.558594 705.632812 653.765625 705.324219 654.632812 C 704.992188 655.5 704.621094 656.449219 704.457031 656.746094 C 704.3125 657.042969 704.1875 657.402344 704.1875 657.550781 C 704.191406 657.699219 704.042969 657.867188 703.875 657.933594 C 703.328125 658.148438 702.964844 659.777344 702.867188 662.621094 C 702.816406 664.160156 702.664062 665.65625 702.539062 665.933594 C 702.414062 666.207031 702.378906 666.652344 702.445312 666.925781 C 702.992188 669.003906 707.234375 671.976562 711.542969 673.300781 C 713.210938 673.808594 715.523438 674.058594 717.984375 674.058594 C 720.664062 674.058594 723.523438 673.761719 725.910156 673.179688 C 728.632812 672.496094 729.835938 671.9375 730.039062 671.238281 C 730.121094 671.007812 730.246094 670.816406 730.351562 670.816406 C 730.457031 670.816406 730.835938 670.367188 731.210938 669.816406 C 731.8125 668.925781 731.835938 668.820312 731.535156 668.589844 C 731.023438 668.238281 731.082031 667.792969 731.691406 667.21875 C 731.964844 666.941406 732.359375 666.328125 732.542969 665.820312 C 732.851562 664.972656 732.851562 664.890625 732.488281 664.28125 C 732.121094 663.65625 732.121094 663.589844 732.6875 661.203125 C 733.257812 658.796875 733.253906 658.734375 732.90625 657.640625 C 732.359375 655.980469 732.398438 655.6875 733.265625 655.402344 C 734.421875 655.011719 734.714844 654.378906 734.527344 652.695312 C 734.199219 649.496094 733.96875 647.875 733.730469 647.328125 C 733.472656 646.679688 733.390625 645.078125 733.59375 644.042969 C 733.675781 643.621094 733.804688 643.414062 734.074219 643.414062 C 734.335938 643.414062 734.734375 643.605469 735.347656 643.984375 C 735.882812 644.335938 736.882812 644.851562 737.582031 645.160156 C 738.390625 645.515625 738.785156 645.636719 739.464844 645.636719 C 739.699219 645.636719 739.964844 645.621094 740.296875 645.597656 C 741.5 645.480469 741.921875 645.347656 742.679688 644.792969 C 743.183594 644.429688 743.75 644.128906 743.941406 644.128906 C 744.132812 644.125 744.742188 643.742188 745.308594 643.25 C 747.742188 641.183594 751.941406 633.722656 753.976562 627.929688 C 754.574219 626.195312 755.066406 624.628906 755.0625 624.441406 C 755.0625 624.25 755.183594 623.871094 755.328125 623.574219 C 756.261719 621.75 757.359375 617.398438 757.8125 613.75 C 757.964844 612.464844 758.222656 610.753906 758.40625 609.949219 C 758.851562 607.777344 758.773438 604.277344 758.230469 603.148438 C 757.667969 601.953125 757.625 601.613281 757.296875 596.476562 C 757.09375 593.316406 756.910156 591.886719 756.675781 591.425781 C 756.21875 590.542969 756.386719 585.949219 756.925781 584.828125 C 757.277344 584.128906 758.933594 582.722656 761.707031 580.796875 C 764.1875 579.085938 765.378906 577.703125 765.367188 576.585938 C 765.363281 576.269531 765.230469 575.535156 765.054688 574.945312 C 764.59375 573.328125 764.121094 568.234375 764.390625 567.726562 C 764.722656 567.089844 765.617188 563.4375 765.75 562.148438 C 765.867188 561.011719 766.886719 557.417969 767.304688 556.632812 C 767.574219 556.105469 769.949219 548.261719 769.945312 547.90625 C 769.941406 547.628906 770.535156 545.539062 771.085938 543.761719 C 772.832031 538.371094 773.851562 532.734375 774.214844 526.535156 C 774.410156 523.035156 774.410156 522.867188 773.949219 521.523438 C 773.363281 519.800781 773.359375 519.695312 773.914062 518.070312 L 774.367188 516.757812 L 773.886719 515.328125 C 773.625 514.53125 773.40625 513.734375 773.402344 513.523438 C 773.402344 513.3125 774.027344 512.527344 774.804688 511.78125 L 776.1875 510.417969 L 776.035156 508.121094 C 775.863281 505.492188 775.019531 501.875 774.15625 500.027344 L 773.570312 498.75 L 773.527344 492.535156 C 773.492188 486.886719 773.527344 486.148438 773.933594 484.417969 C 774.988281 479.898438 775.035156 478.335938 774.769531 458.277344 C 774.59375 445.300781 774.589844 438.789062 774.757812 436.574219 C 774.980469 433.414062 774.960938 425.046875 774.742188 424.691406 C 774.507812 424.355469 774.523438 419.507812 774.75 418.980469 C 775.082031 418.21875 775.550781 414.671875 775.773438 411.488281 C 775.957031 408.75 775.957031 408.75 776.976562 406.945312 C 777.515625 405.949219 778.449219 404.234375 779.011719 403.132812 C 779.570312 402.03125 780.421875 400.441406 780.902344 399.636719 C 781.359375 398.8125 782.167969 397.328125 782.6875 396.3125 C 784.265625 393.175781 785.535156 391.414062 786.546875 390.960938 C 787.03125 390.746094 787.726562 390.277344 788.082031 389.894531 C 788.855469 389.105469 790.328125 386.140625 791.855469 382.25 C 792.453125 380.726562 793.363281 378.546875 793.859375 377.382812 C 794.375 376.21875 794.953125 374.695312 795.136719 373.996094 C 795.339844 373.300781 795.710938 372.347656 795.960938 371.882812 C 796.230469 371.414062 796.996094 369.785156 797.660156 368.28125 C 798.320312 366.757812 799.609375 364.34375 800.523438 362.878906 C 802.667969 359.445312 803.480469 357.878906 804.195312 355.679688 C 805.039062 353.164062 804.984375 352.003906 803.992188 350.222656 L 803.21875 348.820312 L 803.847656 346.15625 C 804.679688 342.589844 805.132812 339.378906 805.148438 336.703125 C 805.148438 334.746094 805.226562 334.300781 805.828125 332.800781 L 806.507812 331.105469 L 806.46875 327.101562 C 806.449219 323.375 806.46875 323.035156 806.902344 322.148438 C 807.773438 320.390625 807.832031 319.734375 807.582031 315.902344 C 807.332031 312.261719 807.042969 310.789062 806.132812 308.5625 C 805.304688 306.527344 804.78125 304.761719 804.050781 301.734375 C 803.695312 300.179688 803.191406 298.375 802.953125 297.703125 C 802.710938 297.03125 802.515625 296.335938 802.511719 296.167969 C 802.511719 296 802.269531 295.179688 801.988281 294.339844 C 801.703125 293.5 801.199219 291.945312 800.871094 290.914062 C 800.542969 289.867188 800.066406 288.417969 799.78125 287.660156 C 799.128906 285.917969 798.292969 282.890625 797.671875 280.097656 C 797.429688 278.875 797.007812 277.132812 796.765625 276.207031 C 796.523438 275.28125 796.214844 273.957031 796.101562 273.261719 C 795.988281 272.570312 795.699219 271.140625 795.476562 270.109375 C 795.253906 269.058594 794.851562 266.847656 794.582031 265.167969 C 793.902344 260.8125 793.769531 260.242188 792.898438 257.914062 C 792.179688 255.917969 790.367188 250.4375 789.996094 249.09375 C 789.730469 248.148438 787.605469 243.109375 787.132812 242.292969 C 786.894531 241.917969 786.460938 240.804688 786.175781 239.839844 C 785.476562 237.527344 785.175781 237.003906 784 236.046875 C 783.46875 235.609375 782.527344 234.816406 781.910156 234.296875 C 779.601562 232.296875 778.132812 231.386719 774.433594 229.695312 C 772.328125 228.726562 770.332031 227.796875 769.96875 227.613281 C 769.628906 227.425781 769.230469 227.28125 769.101562 227.28125 L 769.097656 227.28125 C 768.816406 227.28125 766.800781 226.441406 765.402344 225.738281 C 764.871094 225.472656 762.894531 224.753906 761.003906 224.121094 C 759.113281 223.507812 757.332031 222.851562 757.074219 222.703125 C 756.796875 222.539062 756.203125 222.292969 755.734375 222.148438 C 754.632812 221.800781 745.15625 218.125 744.347656 217.734375 C 743.5625 217.339844 742.136719 214.636719 741.4375 212.222656 C 740.648438 209.46875 739.402344 207.796875 737.125 206.363281 C 736.164062 205.761719 736.121094 205.65625 735.84375 203.40625 C 735.703125 202.039062 735.703125 202.039062 736.96875 199.496094 C 738.253906 196.871094 739.074219 194.3125 739.46875 191.570312 C 739.667969 190.21875 739.792969 189.902344 740.503906 189.113281 C 741.234375 188.328125 741.339844 188.03125 741.496094 186.746094 C 741.59375 185.921875 741.773438 185.078125 741.898438 184.824219 C 742.023438 184.589844 742.121094 183.832031 742.113281 183.15625 C 742.105469 182.292969 742.269531 181.59375 742.640625 180.769531 C 743.035156 179.878906 743.214844 179.035156 743.34375 177.179688 C 743.4375 175.851562 743.574219 174.628906 743.613281 174.460938 C 743.675781 174.3125 743.519531 173.574219 743.277344 172.820312 C 742.753906 171.160156 742.894531 170.292969 743.878906 169.273438 C 745.53125 167.550781 745.160156 164.371094 742.300781 155.699219 C 742.082031 155.003906 741.945312 154.035156 741.960938 153.277344 C 742.054688 150.242188 740.195312 146.34375 737.375 143.632812 C 732.011719 138.5 731.371094 138.042969 727.996094 136.835938 C 726.65625 136.34375 725.746094 136.183594 723.648438 136.058594 C 721.292969 135.90625 719.496094 135.824219 718.054688 135.824219 Z M 718.054688 135.824219 " fill-opacity="1" fill-rule="nonzero"/></g></svg>