<svg xmlns="http://www.w3.org/2000/svg" xmlns:xlink="http://www.w3.org/1999/xlink" width="1920" zoomAndPan="magnify" viewBox="0 0 1440 809.999993" height="1080" preserveAspectRatio="xMidYMid meet" version="1.0"><defs><clipPath id="00a7fde4ec"><path d="M 462 221 L 889 221 L 889 649 L 462 649 Z M 462 221 " clip-rule="nonzero"/></clipPath><clipPath id="2689434041"><path d="M 750 135 L 977 135 L 977 360 L 750 360 Z M 750 135 " clip-rule="nonzero"/></clipPath></defs><path fill="#260e69" d="M 913.597656 472.8125 C 913.597656 583.785156 823.542969 673.746094 712.457031 673.746094 C 601.371094 673.746094 511.316406 583.785156 511.316406 472.8125 C 511.316406 361.84375 601.371094 271.882812 712.457031 271.882812 L 712.457031 472.8125 Z M 913.597656 472.8125 " fill-opacity="1" fill-rule="nonzero"/><g clip-path="url(#00a7fde4ec)"><path fill="#9340ff" d="M 662.171875 247.179688 C 563.890625 253.640625 486.175781 335.324219 486.175781 435.140625 C 486.175781 539.171875 570.601562 623.511719 674.742188 623.511719 C 774.664062 623.511719 856.429688 545.878906 862.898438 447.699219 L 674.742188 447.699219 C 667.800781 447.699219 662.171875 442.074219 662.171875 435.140625 Z M 461.03125 435.140625 C 461.03125 317.234375 556.714844 221.652344 674.742188 221.652344 C 681.683594 221.652344 687.316406 227.273438 687.316406 234.210938 L 687.316406 422.582031 L 875.882812 422.582031 C 882.824219 422.582031 888.453125 428.203125 888.453125 435.140625 C 888.453125 553.046875 792.773438 648.628906 674.742188 648.628906 C 556.714844 648.628906 461.03125 553.046875 461.03125 435.140625 Z M 461.03125 435.140625 " fill-opacity="1" fill-rule="evenodd"/></g><g clip-path="url(#2689434041)"><path fill="#9340ff" d="M 750.171875 146.300781 C 750.171875 139.367188 755.800781 133.746094 762.742188 133.746094 C 880.769531 133.746094 976.453125 229.328125 976.453125 347.234375 C 976.453125 354.167969 970.824219 359.789062 963.882812 359.789062 L 762.742188 359.789062 C 755.800781 359.789062 750.171875 354.167969 750.171875 347.234375 Z M 775.3125 159.273438 L 775.3125 334.675781 L 950.898438 334.675781 C 944.703125 240.644531 869.441406 165.460938 775.3125 159.273438 Z M 775.3125 159.273438 " fill-opacity="1" fill-rule="evenodd"/></g></svg>