<svg xmlns="http://www.w3.org/2000/svg" xmlns:xlink="http://www.w3.org/1999/xlink" width="240" zoomAndPan="magnify" viewBox="0 0 180 179.999997" height="240" preserveAspectRatio="xMidYMid meet" version="1.0"><defs><clipPath id="1fe614f4ef"><path d="M 95 0 L 171.75 0 L 171.75 75 L 95 75 Z M 95 0 " clip-rule="nonzero"/></clipPath></defs><path fill="#260e69" d="M 150.316406 112.605469 C 150.316406 149.59375 120.34375 179.582031 83.363281 179.582031 C 46.386719 179.582031 16.410156 149.59375 16.410156 112.605469 C 16.410156 75.613281 46.386719 45.628906 83.363281 45.628906 L 83.363281 112.605469 Z M 150.316406 112.605469 " fill-opacity="1" fill-rule="nonzero"/><path fill="#9340ff" d="M 66.625 37.394531 C 33.910156 39.546875 8.042969 66.773438 8.042969 100.046875 C 8.042969 134.722656 36.144531 162.835938 70.808594 162.835938 C 104.070312 162.835938 131.289062 136.960938 133.441406 104.234375 L 70.808594 104.234375 C 68.5 104.234375 66.625 102.359375 66.625 100.046875 Z M -0.328125 100.046875 C -0.328125 60.746094 31.523438 28.882812 70.808594 28.882812 C 73.121094 28.882812 74.996094 30.757812 74.996094 33.070312 L 74.996094 95.859375 L 137.765625 95.859375 C 140.074219 95.859375 141.949219 97.734375 141.949219 100.046875 C 141.949219 139.347656 110.097656 171.210938 70.808594 171.210938 C 31.523438 171.210938 -0.328125 139.347656 -0.328125 100.046875 Z M -0.328125 100.046875 " fill-opacity="1" fill-rule="evenodd"/><g clip-path="url(#1fe614f4ef)"><path fill="#9340ff" d="M 95.917969 3.765625 C 95.917969 1.457031 97.792969 -0.417969 100.101562 -0.417969 C 139.390625 -0.417969 171.242188 31.441406 171.242188 70.746094 C 171.242188 73.054688 169.367188 74.929688 167.054688 74.929688 L 100.101562 74.929688 C 97.792969 74.929688 95.917969 73.054688 95.917969 70.746094 Z M 104.289062 8.089844 L 104.289062 66.558594 L 162.734375 66.558594 C 160.671875 35.214844 135.621094 10.152344 104.289062 8.089844 Z M 104.289062 8.089844 " fill-opacity="1" fill-rule="evenodd"/></g></svg>