<svg xmlns="http://www.w3.org/2000/svg" xmlns:xlink="http://www.w3.org/1999/xlink" width="300" zoomAndPan="magnify" viewBox="0 0 224.87999 62.999997" height="84" preserveAspectRatio="xMidYMid meet" version="1.0"><defs><g/><clipPath id="b10db433ce"><path d="M 11 9.328125 L 47.527344 9.328125 L 47.527344 53.554688 L 11 53.554688 Z M 11 9.328125 " clip-rule="nonzero"/></clipPath><clipPath id="de89dd5e65"><path d="M 0 0.015625 L 224.757812 0.015625 L 224.757812 62.949219 L 0 62.949219 Z M 0 0.015625 " clip-rule="nonzero"/></clipPath><clipPath id="0ded6d4cbd"><path d="M 18 5.316406 L 47 5.316406 L 47 57.761719 L 18 57.761719 Z M 18 5.316406 " clip-rule="nonzero"/></clipPath><clipPath id="074c46b4eb"><path d="M 10.746094 22 L 18 22 L 18 42 L 10.746094 42 Z M 10.746094 22 " clip-rule="nonzero"/></clipPath><clipPath id="695b0f5e14"><path d="M 48 22 L 54.949219 22 L 54.949219 42 L 48 42 Z M 48 22 " clip-rule="nonzero"/></clipPath></defs><g clip-path="url(#b10db433ce)"><path fill="#000000" d="M 41.539062 32.765625 C 41.601562 39.441406 47.425781 41.664062 47.492188 41.691406 C 47.441406 41.847656 46.558594 44.859375 44.421875 47.964844 C 42.574219 50.652344 40.65625 53.332031 37.636719 53.386719 C 34.667969 53.441406 33.710938 51.632812 30.316406 51.632812 C 26.925781 51.632812 25.863281 53.332031 23.054688 53.441406 C 20.136719 53.550781 17.917969 50.535156 16.054688 47.859375 C 12.246094 42.378906 9.335938 32.382812 13.246094 25.628906 C 15.183594 22.277344 18.652344 20.15625 22.417969 20.101562 C 25.28125 20.046875 27.984375 22.019531 29.734375 22.019531 C 31.484375 22.019531 34.769531 19.648438 38.222656 19.996094 C 39.667969 20.054688 43.726562 20.578125 46.332031 24.371094 C 46.121094 24.5 41.492188 27.183594 41.539062 32.765625 M 35.960938 16.371094 C 37.507812 14.507812 38.550781 11.914062 38.265625 9.328125 C 36.035156 9.417969 33.335938 10.808594 31.734375 12.671875 C 30.300781 14.324219 29.046875 16.964844 29.382812 19.496094 C 31.871094 19.6875 34.414062 18.238281 35.960938 16.371094 " fill-opacity="1" fill-rule="nonzero"/></g><g fill="#101728" fill-opacity="1"><g transform="translate(84.888679, 23.395703)"><g><path d="M 1.34375 -10.203125 L 5.765625 -10.203125 C 6.828125 -10.203125 7.664062 -9.972656 8.28125 -9.515625 C 8.894531 -9.066406 9.203125 -8.445312 9.203125 -7.65625 C 9.203125 -7.082031 9.039062 -6.59375 8.71875 -6.1875 C 8.394531 -5.78125 7.957031 -5.507812 7.40625 -5.375 C 8.082031 -5.257812 8.613281 -4.972656 9 -4.515625 C 9.394531 -4.054688 9.59375 -3.484375 9.59375 -2.796875 C 9.59375 -1.921875 9.257812 -1.234375 8.59375 -0.734375 C 7.9375 -0.242188 7.03125 0 5.875 0 L 1.34375 0 Z M 3.0625 -8.671875 L 3.0625 -5.984375 L 5.6875 -5.984375 C 6.226562 -5.984375 6.65625 -6.101562 6.96875 -6.34375 C 7.28125 -6.582031 7.4375 -6.914062 7.4375 -7.34375 C 7.4375 -7.769531 7.28125 -8.097656 6.96875 -8.328125 C 6.664062 -8.554688 6.238281 -8.671875 5.6875 -8.671875 Z M 3.0625 -4.453125 L 3.0625 -1.53125 L 5.6875 -1.53125 C 6.363281 -1.53125 6.890625 -1.65625 7.265625 -1.90625 C 7.640625 -2.164062 7.828125 -2.535156 7.828125 -3.015625 C 7.828125 -3.460938 7.632812 -3.8125 7.25 -4.0625 C 6.875 -4.320312 6.351562 -4.453125 5.6875 -4.453125 Z M 3.0625 -4.453125 "/></g></g></g><g fill="#101728" fill-opacity="1"><g transform="translate(95.177597, 23.395703)"><g><path d="M 5.890625 0 L 5.890625 -0.953125 C 5.335938 -0.265625 4.484375 0.078125 3.328125 0.078125 C 2.492188 0.078125 1.828125 -0.144531 1.328125 -0.59375 C 0.835938 -1.050781 0.59375 -1.628906 0.59375 -2.328125 C 0.59375 -3.035156 0.847656 -3.597656 1.359375 -4.015625 C 1.878906 -4.441406 2.601562 -4.660156 3.53125 -4.671875 L 5.875 -4.671875 L 5.875 -4.890625 C 5.875 -5.390625 5.710938 -5.773438 5.390625 -6.046875 C 5.078125 -6.316406 4.625 -6.453125 4.03125 -6.453125 C 3.28125 -6.453125 2.515625 -6.191406 1.734375 -5.671875 L 1.046875 -6.84375 C 1.640625 -7.1875 2.171875 -7.429688 2.640625 -7.578125 C 3.117188 -7.734375 3.703125 -7.8125 4.390625 -7.8125 C 5.378906 -7.8125 6.144531 -7.570312 6.6875 -7.09375 C 7.226562 -6.613281 7.503906 -5.945312 7.515625 -5.09375 L 7.53125 0 Z M 3.671875 -1.25 C 4.265625 -1.25 4.765625 -1.382812 5.171875 -1.65625 C 5.585938 -1.9375 5.820312 -2.289062 5.875 -2.71875 L 5.875 -3.4375 L 3.78125 -3.4375 C 3.21875 -3.4375 2.804688 -3.351562 2.546875 -3.1875 C 2.296875 -3.03125 2.171875 -2.769531 2.171875 -2.40625 C 2.171875 -2.050781 2.300781 -1.769531 2.5625 -1.5625 C 2.832031 -1.351562 3.203125 -1.25 3.671875 -1.25 Z M 3.671875 -1.25 "/></g></g></g><g fill="#101728" fill-opacity="1"><g transform="translate(103.717696, 23.395703)"><g><path d="M 1.359375 -10.703125 C 1.546875 -10.890625 1.78125 -10.984375 2.0625 -10.984375 C 2.351562 -10.984375 2.585938 -10.890625 2.765625 -10.703125 C 2.953125 -10.515625 3.046875 -10.269531 3.046875 -9.96875 C 3.046875 -9.675781 2.953125 -9.4375 2.765625 -9.25 C 2.585938 -9.0625 2.351562 -8.96875 2.0625 -8.96875 C 1.78125 -8.96875 1.546875 -9.0625 1.359375 -9.25 C 1.179688 -9.4375 1.09375 -9.675781 1.09375 -9.96875 C 1.09375 -10.269531 1.179688 -10.515625 1.359375 -10.703125 Z M 2.90625 0 L 1.234375 0 L 1.234375 -7.75 L 2.90625 -7.75 Z M 2.90625 0 "/></g></g></g><g fill="#101728" fill-opacity="1"><g transform="translate(107.85658, 23.395703)"><g><path d="M 4.046875 -5.109375 L 5.8125 -7.75 L 7.65625 -7.75 L 5.15625 -3.984375 L 7.828125 0 L 5.90625 0 L 4.046875 -2.84375 L 2.0625 0 L 0.203125 0 L 2.9375 -3.984375 L 0.390625 -7.75 L 2.3125 -7.75 Z M 4.046875 -5.109375 "/></g></g></g><g fill="#101728" fill-opacity="1"><g transform="translate(115.930319, 23.395703)"><g><path d="M 4.4375 -7.8125 C 5.757812 -7.8125 6.71875 -7.410156 7.3125 -6.609375 C 7.914062 -5.804688 8.164062 -4.679688 8.0625 -3.234375 L 2.203125 -3.234375 C 2.335938 -2.628906 2.617188 -2.15625 3.046875 -1.8125 C 3.472656 -1.46875 3.992188 -1.296875 4.609375 -1.296875 C 5.484375 -1.296875 6.210938 -1.597656 6.796875 -2.203125 L 7.6875 -1.25 C 6.882812 -0.375 5.8125 0.0625 4.46875 0.0625 C 3.28125 0.0625 2.320312 -0.296875 1.59375 -1.015625 C 0.875 -1.742188 0.515625 -2.691406 0.515625 -3.859375 C 0.515625 -5.023438 0.878906 -5.972656 1.609375 -6.703125 C 2.335938 -7.429688 3.28125 -7.800781 4.4375 -7.8125 Z M 2.171875 -4.453125 L 6.609375 -4.453125 C 6.578125 -5.078125 6.363281 -5.566406 5.96875 -5.921875 C 5.582031 -6.285156 5.078125 -6.46875 4.453125 -6.46875 C 3.835938 -6.46875 3.328125 -6.285156 2.921875 -5.921875 C 2.515625 -5.566406 2.265625 -5.078125 2.171875 -4.453125 Z M 2.171875 -4.453125 "/></g></g></g><g fill="#101728" fill-opacity="1"><g transform="translate(124.499562, 23.395703)"><g/></g></g><g fill="#101728" fill-opacity="1"><g transform="translate(128.259534, 23.395703)"><g><path d="M 5.703125 -7.8125 C 6.796875 -7.8125 7.6875 -7.441406 8.375 -6.703125 C 9.0625 -5.972656 9.40625 -5.019531 9.40625 -3.84375 C 9.40625 -2.675781 9.066406 -1.734375 8.390625 -1.015625 C 7.722656 -0.296875 6.835938 0.0625 5.734375 0.0625 C 4.484375 0.0625 3.566406 -0.40625 2.984375 -1.34375 L 2.984375 2.828125 L 1.3125 2.828125 L 1.3125 -7.75 L 2.984375 -7.75 L 2.984375 -6.421875 C 3.566406 -7.347656 4.472656 -7.8125 5.703125 -7.8125 Z M 3.640625 -2.078125 C 4.085938 -1.609375 4.65625 -1.375 5.34375 -1.375 C 6.039062 -1.375 6.609375 -1.609375 7.046875 -2.078125 C 7.492188 -2.546875 7.71875 -3.15625 7.71875 -3.90625 C 7.71875 -4.632812 7.492188 -5.234375 7.046875 -5.703125 C 6.609375 -6.179688 6.039062 -6.421875 5.34375 -6.421875 C 4.65625 -6.421875 4.085938 -6.179688 3.640625 -5.703125 C 3.203125 -5.234375 2.984375 -4.632812 2.984375 -3.90625 C 2.984375 -3.15625 3.203125 -2.546875 3.640625 -2.078125 Z M 3.640625 -2.078125 "/></g></g></g><g fill="#101728" fill-opacity="1"><g transform="translate(138.169542, 23.395703)"><g><path d="M 4.4375 -7.8125 C 5.757812 -7.8125 6.71875 -7.410156 7.3125 -6.609375 C 7.914062 -5.804688 8.164062 -4.679688 8.0625 -3.234375 L 2.203125 -3.234375 C 2.335938 -2.628906 2.617188 -2.15625 3.046875 -1.8125 C 3.472656 -1.46875 3.992188 -1.296875 4.609375 -1.296875 C 5.484375 -1.296875 6.210938 -1.597656 6.796875 -2.203125 L 7.6875 -1.25 C 6.882812 -0.375 5.8125 0.0625 4.46875 0.0625 C 3.28125 0.0625 2.320312 -0.296875 1.59375 -1.015625 C 0.875 -1.742188 0.515625 -2.691406 0.515625 -3.859375 C 0.515625 -5.023438 0.878906 -5.972656 1.609375 -6.703125 C 2.335938 -7.429688 3.28125 -7.800781 4.4375 -7.8125 Z M 2.171875 -4.453125 L 6.609375 -4.453125 C 6.578125 -5.078125 6.363281 -5.566406 5.96875 -5.921875 C 5.582031 -6.285156 5.078125 -6.46875 4.453125 -6.46875 C 3.835938 -6.46875 3.328125 -6.285156 2.921875 -5.921875 C 2.515625 -5.566406 2.265625 -5.078125 2.171875 -4.453125 Z M 2.171875 -4.453125 "/></g></g></g><g fill="#101728" fill-opacity="1"><g transform="translate(146.738785, 23.395703)"><g><path d="M 2.984375 0 L 1.3125 0 L 1.3125 -10.8125 L 2.984375 -10.8125 Z M 2.984375 0 "/></g></g></g><g fill="#101728" fill-opacity="1"><g transform="translate(151.037987, 23.395703)"><g><path d="M 5.890625 0 L 5.890625 -0.953125 C 5.335938 -0.265625 4.484375 0.078125 3.328125 0.078125 C 2.492188 0.078125 1.828125 -0.144531 1.328125 -0.59375 C 0.835938 -1.050781 0.59375 -1.628906 0.59375 -2.328125 C 0.59375 -3.035156 0.847656 -3.597656 1.359375 -4.015625 C 1.878906 -4.441406 2.601562 -4.660156 3.53125 -4.671875 L 5.875 -4.671875 L 5.875 -4.890625 C 5.875 -5.390625 5.710938 -5.773438 5.390625 -6.046875 C 5.078125 -6.316406 4.625 -6.453125 4.03125 -6.453125 C 3.28125 -6.453125 2.515625 -6.191406 1.734375 -5.671875 L 1.046875 -6.84375 C 1.640625 -7.1875 2.171875 -7.429688 2.640625 -7.578125 C 3.117188 -7.734375 3.703125 -7.8125 4.390625 -7.8125 C 5.378906 -7.8125 6.144531 -7.570312 6.6875 -7.09375 C 7.226562 -6.613281 7.503906 -5.945312 7.515625 -5.09375 L 7.53125 0 Z M 3.671875 -1.25 C 4.265625 -1.25 4.765625 -1.382812 5.171875 -1.65625 C 5.585938 -1.9375 5.820312 -2.289062 5.875 -2.71875 L 5.875 -3.4375 L 3.78125 -3.4375 C 3.21875 -3.4375 2.804688 -3.351562 2.546875 -3.1875 C 2.296875 -3.03125 2.171875 -2.769531 2.171875 -2.40625 C 2.171875 -2.050781 2.300781 -1.769531 2.5625 -1.5625 C 2.832031 -1.351562 3.203125 -1.25 3.671875 -1.25 Z M 3.671875 -1.25 "/></g></g></g><g fill="#101728" fill-opacity="1"><g transform="translate(72.336094, 44.588021)"><g><path d="M 10.640625 -3.140625 L 3.84375 -3.140625 L 2.5 0 L -0.09375 0 L 6.015625 -13.59375 L 8.5 -13.59375 L 14.640625 0 L 12 0 Z M 9.8125 -5.125 L 7.25 -11.078125 L 4.703125 -5.125 Z M 9.8125 -5.125 "/></g></g></g><g fill="#101728" fill-opacity="1"><g transform="translate(86.886675, 44.588021)"><g><path d="M 7.34375 -10.484375 C 8.351562 -10.484375 9.253906 -10.265625 10.046875 -9.828125 C 10.847656 -9.390625 11.472656 -8.769531 11.921875 -7.96875 C 12.378906 -7.164062 12.609375 -6.238281 12.609375 -5.1875 C 12.609375 -4.132812 12.378906 -3.203125 11.921875 -2.390625 C 11.472656 -1.585938 10.847656 -0.960938 10.046875 -0.515625 C 9.253906 -0.078125 8.351562 0.140625 7.34375 0.140625 C 5.945312 0.140625 4.835938 -0.328125 4.015625 -1.265625 L 4.015625 3.765625 L 1.59375 3.765625 L 1.59375 -10.375 L 3.90625 -10.375 L 3.90625 -9.015625 C 4.300781 -9.503906 4.789062 -9.867188 5.375 -10.109375 C 5.96875 -10.359375 6.625 -10.484375 7.34375 -10.484375 Z M 7.0625 -1.9375 C 7.957031 -1.9375 8.691406 -2.234375 9.265625 -2.828125 C 9.847656 -3.429688 10.140625 -4.21875 10.140625 -5.1875 C 10.140625 -6.15625 9.847656 -6.9375 9.265625 -7.53125 C 8.691406 -8.125 7.957031 -8.421875 7.0625 -8.421875 C 6.488281 -8.421875 5.96875 -8.285156 5.5 -8.015625 C 5.03125 -7.753906 4.660156 -7.378906 4.390625 -6.890625 C 4.117188 -6.398438 3.984375 -5.832031 3.984375 -5.1875 C 3.984375 -4.539062 4.117188 -3.96875 4.390625 -3.46875 C 4.660156 -2.976562 5.03125 -2.597656 5.5 -2.328125 C 5.96875 -2.066406 6.488281 -1.9375 7.0625 -1.9375 Z M 7.0625 -1.9375 "/></g></g></g><g fill="#101728" fill-opacity="1"><g transform="translate(100.213378, 44.588021)"><g><path d="M 7.34375 -10.484375 C 8.351562 -10.484375 9.253906 -10.265625 10.046875 -9.828125 C 10.847656 -9.390625 11.472656 -8.769531 11.921875 -7.96875 C 12.378906 -7.164062 12.609375 -6.238281 12.609375 -5.1875 C 12.609375 -4.132812 12.378906 -3.203125 11.921875 -2.390625 C 11.472656 -1.585938 10.847656 -0.960938 10.046875 -0.515625 C 9.253906 -0.078125 8.351562 0.140625 7.34375 0.140625 C 5.945312 0.140625 4.835938 -0.328125 4.015625 -1.265625 L 4.015625 3.765625 L 1.59375 3.765625 L 1.59375 -10.375 L 3.90625 -10.375 L 3.90625 -9.015625 C 4.300781 -9.503906 4.789062 -9.867188 5.375 -10.109375 C 5.96875 -10.359375 6.625 -10.484375 7.34375 -10.484375 Z M 7.0625 -1.9375 C 7.957031 -1.9375 8.691406 -2.234375 9.265625 -2.828125 C 9.847656 -3.429688 10.140625 -4.21875 10.140625 -5.1875 C 10.140625 -6.15625 9.847656 -6.9375 9.265625 -7.53125 C 8.691406 -8.125 7.957031 -8.421875 7.0625 -8.421875 C 6.488281 -8.421875 5.96875 -8.285156 5.5 -8.015625 C 5.03125 -7.753906 4.660156 -7.378906 4.390625 -6.890625 C 4.117188 -6.398438 3.984375 -5.832031 3.984375 -5.1875 C 3.984375 -4.539062 4.117188 -3.96875 4.390625 -3.46875 C 4.660156 -2.976562 5.03125 -2.597656 5.5 -2.328125 C 5.96875 -2.066406 6.488281 -1.9375 7.0625 -1.9375 Z M 7.0625 -1.9375 "/></g></g></g><g fill="#101728" fill-opacity="1"><g transform="translate(113.54008, 44.588021)"><g/></g></g><g fill="#101728" fill-opacity="1"><g transform="translate(118.901841, 44.588021)"><g><path d="M 6.046875 0.1875 C 4.992188 0.1875 3.976562 0.0390625 3 -0.25 C 2.019531 -0.550781 1.25 -0.945312 0.6875 -1.4375 L 1.546875 -3.40625 C 2.109375 -2.957031 2.789062 -2.59375 3.59375 -2.3125 C 4.40625 -2.039062 5.222656 -1.90625 6.046875 -1.90625 C 7.054688 -1.90625 7.804688 -2.066406 8.296875 -2.390625 C 8.796875 -2.710938 9.046875 -3.140625 9.046875 -3.671875 C 9.046875 -4.054688 8.90625 -4.375 8.625 -4.625 C 8.351562 -4.882812 8.003906 -5.082031 7.578125 -5.21875 C 7.148438 -5.363281 6.566406 -5.523438 5.828125 -5.703125 C 4.785156 -5.953125 3.941406 -6.195312 3.296875 -6.4375 C 2.660156 -6.6875 2.113281 -7.070312 1.65625 -7.59375 C 1.195312 -8.125 0.96875 -8.835938 0.96875 -9.734375 C 0.96875 -10.484375 1.171875 -11.164062 1.578125 -11.78125 C 1.984375 -12.394531 2.597656 -12.882812 3.421875 -13.25 C 4.242188 -13.613281 5.253906 -13.796875 6.453125 -13.796875 C 7.273438 -13.796875 8.085938 -13.691406 8.890625 -13.484375 C 9.691406 -13.273438 10.382812 -12.972656 10.96875 -12.578125 L 10.171875 -10.625 C 9.578125 -10.96875 8.957031 -11.226562 8.3125 -11.40625 C 7.664062 -11.59375 7.035156 -11.6875 6.421875 -11.6875 C 5.429688 -11.6875 4.691406 -11.519531 4.203125 -11.1875 C 3.710938 -10.851562 3.46875 -10.40625 3.46875 -9.84375 C 3.46875 -9.457031 3.609375 -9.140625 3.890625 -8.890625 C 4.171875 -8.648438 4.523438 -8.457031 4.953125 -8.3125 C 5.378906 -8.164062 5.960938 -8.003906 6.703125 -7.828125 C 7.710938 -7.597656 8.539062 -7.351562 9.1875 -7.09375 C 9.832031 -6.84375 10.382812 -6.457031 10.84375 -5.9375 C 11.300781 -5.425781 11.53125 -4.726562 11.53125 -3.84375 C 11.53125 -3.09375 11.328125 -2.410156 10.921875 -1.796875 C 10.515625 -1.191406 9.894531 -0.707031 9.0625 -0.34375 C 8.238281 0.0078125 7.234375 0.1875 6.046875 0.1875 Z M 6.046875 0.1875 "/></g></g></g><g fill="#101728" fill-opacity="1"><g transform="translate(131.121232, 44.588021)"><g><path d="M 7.828125 -0.5625 C 7.546875 -0.332031 7.195312 -0.15625 6.78125 -0.03125 C 6.375 0.0820312 5.945312 0.140625 5.5 0.140625 C 4.351562 0.140625 3.46875 -0.15625 2.84375 -0.75 C 2.226562 -1.351562 1.921875 -2.222656 1.921875 -3.359375 L 1.921875 -8.34375 L 0.21875 -8.34375 L 0.21875 -10.296875 L 1.921875 -10.296875 L 1.921875 -12.65625 L 4.34375 -12.65625 L 4.34375 -10.296875 L 7.125 -10.296875 L 7.125 -8.34375 L 4.34375 -8.34375 L 4.34375 -3.421875 C 4.34375 -2.910156 4.46875 -2.519531 4.71875 -2.25 C 4.96875 -1.988281 5.320312 -1.859375 5.78125 -1.859375 C 6.332031 -1.859375 6.785156 -2.003906 7.140625 -2.296875 Z M 7.828125 -0.5625 "/></g></g></g><g fill="#101728" fill-opacity="1"><g transform="translate(139.358151, 44.588021)"><g><path d="M 6.25 0.140625 C 5.207031 0.140625 4.265625 -0.0820312 3.421875 -0.53125 C 2.578125 -0.988281 1.914062 -1.625 1.4375 -2.4375 C 0.96875 -3.25 0.734375 -4.164062 0.734375 -5.1875 C 0.734375 -6.207031 0.96875 -7.117188 1.4375 -7.921875 C 1.914062 -8.722656 2.578125 -9.347656 3.421875 -9.796875 C 4.265625 -10.253906 5.207031 -10.484375 6.25 -10.484375 C 7.3125 -10.484375 8.265625 -10.253906 9.109375 -9.796875 C 9.953125 -9.347656 10.609375 -8.722656 11.078125 -7.921875 C 11.546875 -7.117188 11.78125 -6.207031 11.78125 -5.1875 C 11.78125 -4.164062 11.546875 -3.25 11.078125 -2.4375 C 10.609375 -1.625 9.953125 -0.988281 9.109375 -0.53125 C 8.265625 -0.0820312 7.3125 0.140625 6.25 0.140625 Z M 6.25 -1.9375 C 7.144531 -1.9375 7.882812 -2.234375 8.46875 -2.828125 C 9.050781 -3.429688 9.34375 -4.21875 9.34375 -5.1875 C 9.34375 -6.15625 9.050781 -6.9375 8.46875 -7.53125 C 7.882812 -8.125 7.144531 -8.421875 6.25 -8.421875 C 5.351562 -8.421875 4.617188 -8.125 4.046875 -7.53125 C 3.472656 -6.9375 3.1875 -6.15625 3.1875 -5.1875 C 3.1875 -4.21875 3.472656 -3.429688 4.046875 -2.828125 C 4.617188 -2.234375 5.351562 -1.9375 6.25 -1.9375 Z M 6.25 -1.9375 "/></g></g></g><g fill="#101728" fill-opacity="1"><g transform="translate(151.888365, 44.588021)"><g><path d="M 3.90625 -8.859375 C 4.601562 -9.941406 5.832031 -10.484375 7.59375 -10.484375 L 7.59375 -8.171875 C 7.382812 -8.210938 7.195312 -8.234375 7.03125 -8.234375 C 6.082031 -8.234375 5.34375 -7.957031 4.8125 -7.40625 C 4.28125 -6.851562 4.015625 -6.0625 4.015625 -5.03125 L 4.015625 0 L 1.59375 0 L 1.59375 -10.375 L 3.90625 -10.375 Z M 3.90625 -8.859375 "/></g></g></g><g fill="#101728" fill-opacity="1"><g transform="translate(160.047579, 44.588021)"><g><path d="M 11.34375 -5.125 C 11.34375 -4.957031 11.328125 -4.71875 11.296875 -4.40625 L 3.171875 -4.40625 C 3.304688 -3.644531 3.675781 -3.039062 4.28125 -2.59375 C 4.882812 -2.144531 5.632812 -1.921875 6.53125 -1.921875 C 7.664062 -1.921875 8.601562 -2.296875 9.34375 -3.046875 L 10.640625 -1.546875 C 10.171875 -0.992188 9.582031 -0.570312 8.875 -0.28125 C 8.164062 0 7.363281 0.140625 6.46875 0.140625 C 5.332031 0.140625 4.328125 -0.0820312 3.453125 -0.53125 C 2.585938 -0.988281 1.914062 -1.625 1.4375 -2.4375 C 0.96875 -3.25 0.734375 -4.164062 0.734375 -5.1875 C 0.734375 -6.195312 0.960938 -7.101562 1.421875 -7.90625 C 1.878906 -8.71875 2.515625 -9.347656 3.328125 -9.796875 C 4.148438 -10.253906 5.070312 -10.484375 6.09375 -10.484375 C 7.101562 -10.484375 8.003906 -10.257812 8.796875 -9.8125 C 9.597656 -9.363281 10.222656 -8.734375 10.671875 -7.921875 C 11.117188 -7.117188 11.34375 -6.1875 11.34375 -5.125 Z M 6.09375 -8.546875 C 5.320312 -8.546875 4.664062 -8.316406 4.125 -7.859375 C 3.59375 -7.398438 3.265625 -6.785156 3.140625 -6.015625 L 9.03125 -6.015625 C 8.925781 -6.765625 8.609375 -7.375 8.078125 -7.84375 C 7.546875 -8.3125 6.882812 -8.546875 6.09375 -8.546875 Z M 6.09375 -8.546875 "/></g></g></g><g clip-path="url(#de89dd5e65)"><path fill="#ffffff" d="M 13.511719 0.015625 L 211.246094 0.015625 C 214.824219 0.015625 218.257812 1.4375 220.785156 3.964844 C 223.316406 6.496094 224.738281 9.925781 224.738281 13.503906 L 224.738281 49.464844 C 224.738281 53.039062 223.316406 56.46875 220.785156 59 C 218.257812 61.527344 214.824219 62.949219 211.246094 62.949219 L 13.511719 62.949219 C 9.933594 62.949219 6.5 61.527344 3.972656 59 C 1.441406 56.46875 0.0195312 53.039062 0.0195312 49.464844 L 0.0195312 13.503906 C 0.0195312 9.925781 1.441406 6.496094 3.972656 3.964844 C 6.5 1.4375 9.933594 0.015625 13.511719 0.015625 " fill-opacity="1" fill-rule="nonzero"/></g><g clip-path="url(#0ded6d4cbd)"><path fill="#a4c639" d="M 23.890625 5.863281 L 26.238281 10.0625 C 21.878906 12.246094 18.867188 16.425781 18.867188 21.316406 L 46.992188 21.316406 C 46.992188 16.445312 43.980469 12.246094 39.628906 10.0625 L 41.972656 5.863281 C 41.972656 5.863281 42.140625 5.695312 41.804688 5.527344 C 41.636719 5.359375 41.46875 5.695312 41.46875 5.695312 L 38.957031 9.894531 C 36.984375 9.007812 34.921875 8.558594 32.761719 8.550781 C 30.601562 8.558594 28.535156 9.007812 26.566406 9.894531 L 24.058594 5.695312 C 24.058594 5.695312 23.890625 5.53125 23.722656 5.53125 C 23.742188 5.660156 23.796875 5.773438 23.890625 5.867188 Z M 26.253906 14.089844 C 26.90625 14.089844 27.589844 14.742188 27.589844 15.433594 C 27.589844 16.121094 26.941406 16.777344 26.253906 16.777344 C 26.074219 16.777344 25.902344 16.746094 25.738281 16.679688 C 25.574219 16.613281 25.425781 16.515625 25.300781 16.390625 C 25.175781 16.261719 25.078125 16.117188 25.011719 15.949219 C 24.945312 15.785156 24.910156 15.613281 24.914062 15.433594 C 24.910156 15.253906 24.945312 15.082031 25.011719 14.917969 C 25.078125 14.75 25.175781 14.605469 25.300781 14.476562 C 25.425781 14.351562 25.574219 14.253906 25.738281 14.1875 C 25.902344 14.121094 26.074219 14.085938 26.253906 14.089844 Z M 39.648438 14.089844 C 40.296875 14.089844 40.984375 14.742188 40.984375 15.433594 C 40.984375 16.121094 40.332031 16.777344 39.648438 16.777344 C 39.46875 16.777344 39.296875 16.746094 39.132812 16.679688 C 38.964844 16.613281 38.820312 16.515625 38.695312 16.390625 C 38.566406 16.261719 38.472656 16.117188 38.40625 15.949219 C 38.335938 15.785156 38.304688 15.613281 38.308594 15.433594 C 38.304688 15.253906 38.335938 15.082031 38.40625 14.917969 C 38.472656 14.75 38.566406 14.605469 38.695312 14.476562 C 38.820312 14.351562 38.964844 14.253906 39.132812 14.1875 C 39.296875 14.121094 39.46875 14.085938 39.648438 14.089844 Z M 18.699219 22.996094 L 18.699219 44.496094 C 18.699219 45.503906 20.039062 47.011719 21.042969 47.011719 L 24.394531 47.011719 L 24.394531 54.402344 C 24.394531 56.25 25.730469 57.761719 27.40625 57.761719 C 29.082031 57.761719 30.417969 56.25 30.417969 54.402344 L 30.417969 47.011719 L 35.273438 47.011719 L 35.273438 54.398438 C 35.273438 56.246094 36.609375 57.757812 38.285156 57.757812 C 39.960938 57.757812 41.296875 56.246094 41.296875 54.398438 L 41.296875 47.011719 L 44.648438 47.011719 C 45.652344 47.011719 46.992188 45.667969 46.992188 44.492188 L 46.992188 22.996094 Z M 18.699219 22.996094 " fill-opacity="1" fill-rule="nonzero"/></g><g clip-path="url(#074c46b4eb)"><path fill="#a4c639" d="M 14.011719 22.492188 C 15.683594 22.492188 17.023438 24.003906 17.023438 25.851562 L 17.023438 38.613281 C 17.023438 40.460938 15.683594 41.972656 14.011719 41.972656 C 12.335938 41.972656 10.996094 40.460938 10.996094 38.613281 L 10.996094 25.851562 C 10.996094 24.003906 12.335938 22.492188 14.011719 22.492188 Z M 14.011719 22.492188 " fill-opacity="1" fill-rule="nonzero"/></g><g clip-path="url(#695b0f5e14)"><path fill="#a4c639" d="M 51.851562 22.492188 C 53.523438 22.492188 54.863281 24.003906 54.863281 25.851562 L 54.863281 38.613281 C 54.863281 40.460938 53.523438 41.972656 51.851562 41.972656 C 50.175781 41.972656 48.835938 40.460938 48.835938 38.613281 L 48.835938 25.851562 C 48.835938 24.003906 50.175781 22.492188 51.851562 22.492188 Z M 51.851562 22.492188 " fill-opacity="1" fill-rule="nonzero"/></g><g fill="#101728" fill-opacity="1"><g transform="translate(79.744293, 23.623334)"><g><path d="M 1.34375 -10.1875 L 5.765625 -10.1875 C 6.828125 -10.1875 7.660156 -9.960938 8.265625 -9.515625 C 8.878906 -9.066406 9.1875 -8.441406 9.1875 -7.640625 C 9.1875 -7.066406 9.023438 -6.578125 8.703125 -6.171875 C 8.390625 -5.773438 7.953125 -5.507812 7.390625 -5.375 C 8.078125 -5.257812 8.613281 -4.972656 9 -4.515625 C 9.382812 -4.054688 9.578125 -3.484375 9.578125 -2.796875 C 9.578125 -1.921875 9.25 -1.234375 8.59375 -0.734375 C 7.9375 -0.242188 7.03125 0 5.875 0 L 1.34375 0 Z M 3.0625 -8.671875 L 3.0625 -5.96875 L 5.671875 -5.96875 C 6.222656 -5.96875 6.648438 -6.085938 6.953125 -6.328125 C 7.265625 -6.578125 7.421875 -6.914062 7.421875 -7.34375 C 7.421875 -7.769531 7.269531 -8.097656 6.96875 -8.328125 C 6.664062 -8.554688 6.234375 -8.671875 5.671875 -8.671875 Z M 3.0625 -4.453125 L 3.0625 -1.53125 L 5.671875 -1.53125 C 6.359375 -1.53125 6.882812 -1.65625 7.25 -1.90625 C 7.625 -2.164062 7.8125 -2.535156 7.8125 -3.015625 C 7.8125 -3.460938 7.625 -3.8125 7.25 -4.0625 C 6.875 -4.320312 6.347656 -4.453125 5.671875 -4.453125 Z M 3.0625 -4.453125 "/></g></g></g><g fill="#101728" fill-opacity="1"><g transform="translate(90.027582, 23.623334)"><g><path d="M 5.890625 0 L 5.890625 -0.953125 C 5.328125 -0.265625 4.46875 0.078125 3.3125 0.078125 C 2.488281 0.078125 1.828125 -0.144531 1.328125 -0.59375 C 0.835938 -1.050781 0.59375 -1.628906 0.59375 -2.328125 C 0.59375 -3.035156 0.847656 -3.597656 1.359375 -4.015625 C 1.878906 -4.429688 2.601562 -4.644531 3.53125 -4.65625 L 5.875 -4.65625 L 5.875 -4.890625 C 5.875 -5.390625 5.710938 -5.773438 5.390625 -6.046875 C 5.078125 -6.316406 4.617188 -6.453125 4.015625 -6.453125 C 3.265625 -6.453125 2.503906 -6.191406 1.734375 -5.671875 L 1.046875 -6.828125 C 1.640625 -7.179688 2.171875 -7.429688 2.640625 -7.578125 C 3.109375 -7.734375 3.691406 -7.8125 4.390625 -7.8125 C 5.378906 -7.8125 6.144531 -7.566406 6.6875 -7.078125 C 7.226562 -6.597656 7.503906 -5.929688 7.515625 -5.078125 L 7.53125 0 Z M 3.671875 -1.25 C 4.265625 -1.25 4.765625 -1.382812 5.171875 -1.65625 C 5.585938 -1.9375 5.820312 -2.289062 5.875 -2.71875 L 5.875 -3.4375 L 3.765625 -3.4375 C 3.210938 -3.4375 2.804688 -3.351562 2.546875 -3.1875 C 2.296875 -3.03125 2.171875 -2.769531 2.171875 -2.40625 C 2.171875 -2.050781 2.300781 -1.769531 2.5625 -1.5625 C 2.832031 -1.351562 3.203125 -1.25 3.671875 -1.25 Z M 3.671875 -1.25 "/></g></g></g><g fill="#101728" fill-opacity="1"><g transform="translate(98.563009, 23.623334)"><g><path d="M 1.359375 -10.6875 C 1.546875 -10.882812 1.78125 -10.984375 2.0625 -10.984375 C 2.34375 -10.984375 2.578125 -10.882812 2.765625 -10.6875 C 2.953125 -10.5 3.046875 -10.253906 3.046875 -9.953125 C 3.046875 -9.671875 2.953125 -9.429688 2.765625 -9.234375 C 2.578125 -9.046875 2.34375 -8.953125 2.0625 -8.953125 C 1.78125 -8.953125 1.546875 -9.046875 1.359375 -9.234375 C 1.179688 -9.429688 1.09375 -9.671875 1.09375 -9.953125 C 1.09375 -10.253906 1.179688 -10.5 1.359375 -10.6875 Z M 2.890625 0 L 1.234375 0 L 1.234375 -7.75 L 2.890625 -7.75 Z M 2.890625 0 "/></g></g></g><g fill="#101728" fill-opacity="1"><g transform="translate(102.699628, 23.623334)"><g><path d="M 4.046875 -5.09375 L 5.8125 -7.75 L 7.640625 -7.75 L 5.15625 -3.96875 L 7.8125 0 L 5.890625 0 L 4.046875 -2.84375 L 2.0625 0 L 0.203125 0 L 2.9375 -3.96875 L 0.390625 -7.75 L 2.3125 -7.75 Z M 4.046875 -5.09375 "/></g></g></g><g fill="#101728" fill-opacity="1"><g transform="translate(110.768949, 23.623334)"><g><path d="M 4.421875 -7.8125 C 5.753906 -7.8125 6.71875 -7.410156 7.3125 -6.609375 C 7.914062 -5.804688 8.160156 -4.679688 8.046875 -3.234375 L 2.203125 -3.234375 C 2.335938 -2.628906 2.617188 -2.15625 3.046875 -1.8125 C 3.472656 -1.46875 3.992188 -1.296875 4.609375 -1.296875 C 5.472656 -1.296875 6.195312 -1.597656 6.78125 -2.203125 L 7.671875 -1.25 C 6.878906 -0.375 5.8125 0.0625 4.46875 0.0625 C 3.269531 0.0625 2.3125 -0.296875 1.59375 -1.015625 C 0.875 -1.742188 0.515625 -2.691406 0.515625 -3.859375 C 0.515625 -5.023438 0.875 -5.972656 1.59375 -6.703125 C 2.320312 -7.429688 3.265625 -7.800781 4.421875 -7.8125 Z M 2.171875 -4.453125 L 6.59375 -4.453125 C 6.5625 -5.078125 6.351562 -5.566406 5.96875 -5.921875 C 5.582031 -6.285156 5.070312 -6.46875 4.4375 -6.46875 C 3.832031 -6.46875 3.328125 -6.285156 2.921875 -5.921875 C 2.515625 -5.566406 2.265625 -5.078125 2.171875 -4.453125 Z M 2.171875 -4.453125 "/></g></g></g><g fill="#101728" fill-opacity="1"><g transform="translate(119.333504, 23.623334)"><g/></g></g><g fill="#101728" fill-opacity="1"><g transform="translate(123.091419, 23.623334)"><g><path d="M 5.6875 -7.8125 C 6.789062 -7.8125 7.679688 -7.441406 8.359375 -6.703125 C 9.046875 -5.972656 9.390625 -5.019531 9.390625 -3.84375 C 9.390625 -2.675781 9.054688 -1.734375 8.390625 -1.015625 C 7.722656 -0.296875 6.832031 0.0625 5.71875 0.0625 C 4.476562 0.0625 3.566406 -0.40625 2.984375 -1.34375 L 2.984375 2.828125 L 1.3125 2.828125 L 1.3125 -7.75 L 2.984375 -7.75 L 2.984375 -6.40625 C 3.566406 -7.34375 4.46875 -7.8125 5.6875 -7.8125 Z M 3.640625 -2.078125 C 4.085938 -1.609375 4.65625 -1.375 5.34375 -1.375 C 6.03125 -1.375 6.59375 -1.609375 7.03125 -2.078125 C 7.476562 -2.546875 7.703125 -3.15625 7.703125 -3.90625 C 7.703125 -4.632812 7.476562 -5.234375 7.03125 -5.703125 C 6.59375 -6.171875 6.03125 -6.40625 5.34375 -6.40625 C 4.65625 -6.40625 4.085938 -6.171875 3.640625 -5.703125 C 3.203125 -5.234375 2.984375 -4.632812 2.984375 -3.90625 C 2.984375 -3.15625 3.203125 -2.546875 3.640625 -2.078125 Z M 3.640625 -2.078125 "/></g></g></g><g fill="#101728" fill-opacity="1"><g transform="translate(132.996004, 23.623334)"><g><path d="M 4.421875 -7.8125 C 5.753906 -7.8125 6.71875 -7.410156 7.3125 -6.609375 C 7.914062 -5.804688 8.160156 -4.679688 8.046875 -3.234375 L 2.203125 -3.234375 C 2.335938 -2.628906 2.617188 -2.15625 3.046875 -1.8125 C 3.472656 -1.46875 3.992188 -1.296875 4.609375 -1.296875 C 5.472656 -1.296875 6.195312 -1.597656 6.78125 -2.203125 L 7.671875 -1.25 C 6.878906 -0.375 5.8125 0.0625 4.46875 0.0625 C 3.269531 0.0625 2.3125 -0.296875 1.59375 -1.015625 C 0.875 -1.742188 0.515625 -2.691406 0.515625 -3.859375 C 0.515625 -5.023438 0.875 -5.972656 1.59375 -6.703125 C 2.320312 -7.429688 3.265625 -7.800781 4.421875 -7.8125 Z M 2.171875 -4.453125 L 6.59375 -4.453125 C 6.5625 -5.078125 6.351562 -5.566406 5.96875 -5.921875 C 5.582031 -6.285156 5.070312 -6.46875 4.4375 -6.46875 C 3.832031 -6.46875 3.328125 -6.285156 2.921875 -5.921875 C 2.515625 -5.566406 2.265625 -5.078125 2.171875 -4.453125 Z M 2.171875 -4.453125 "/></g></g></g><g fill="#101728" fill-opacity="1"><g transform="translate(141.560559, 23.623334)"><g><path d="M 2.984375 0 L 1.3125 0 L 1.3125 -10.8125 L 2.984375 -10.8125 Z M 2.984375 0 "/></g></g></g><g fill="#101728" fill-opacity="1"><g transform="translate(145.857408, 23.623334)"><g><path d="M 5.890625 0 L 5.890625 -0.953125 C 5.328125 -0.265625 4.46875 0.078125 3.3125 0.078125 C 2.488281 0.078125 1.828125 -0.144531 1.328125 -0.59375 C 0.835938 -1.050781 0.59375 -1.628906 0.59375 -2.328125 C 0.59375 -3.035156 0.847656 -3.597656 1.359375 -4.015625 C 1.878906 -4.429688 2.601562 -4.644531 3.53125 -4.65625 L 5.875 -4.65625 L 5.875 -4.890625 C 5.875 -5.390625 5.710938 -5.773438 5.390625 -6.046875 C 5.078125 -6.316406 4.617188 -6.453125 4.015625 -6.453125 C 3.265625 -6.453125 2.503906 -6.191406 1.734375 -5.671875 L 1.046875 -6.828125 C 1.640625 -7.179688 2.171875 -7.429688 2.640625 -7.578125 C 3.109375 -7.734375 3.691406 -7.8125 4.390625 -7.8125 C 5.378906 -7.8125 6.144531 -7.566406 6.6875 -7.078125 C 7.226562 -6.597656 7.503906 -5.929688 7.515625 -5.078125 L 7.53125 0 Z M 3.671875 -1.25 C 4.265625 -1.25 4.765625 -1.382812 5.171875 -1.65625 C 5.585938 -1.9375 5.820312 -2.289062 5.875 -2.71875 L 5.875 -3.4375 L 3.765625 -3.4375 C 3.210938 -3.4375 2.804688 -3.351562 2.546875 -3.1875 C 2.296875 -3.03125 2.171875 -2.769531 2.171875 -2.40625 C 2.171875 -2.050781 2.300781 -1.769531 2.5625 -1.5625 C 2.832031 -1.351562 3.203125 -1.25 3.671875 -1.25 Z M 3.671875 -1.25 "/></g></g></g><g fill="#101728" fill-opacity="1"><g transform="translate(71.528421, 44.804058)"><g><path d="M 7.421875 -13.59375 C 8.597656 -13.59375 9.625 -13.398438 10.5 -13.015625 C 11.375 -12.628906 12.039062 -12.070312 12.5 -11.34375 C 12.96875 -10.613281 13.203125 -9.753906 13.203125 -8.765625 C 13.203125 -7.773438 12.96875 -6.914062 12.5 -6.1875 C 12.039062 -5.457031 11.375 -4.894531 10.5 -4.5 C 9.625 -4.113281 8.597656 -3.921875 7.421875 -3.921875 L 4.34375 -3.921875 L 4.34375 0 L 1.828125 0 L 1.828125 -13.59375 Z M 7.296875 -6.0625 C 8.398438 -6.0625 9.234375 -6.289062 9.796875 -6.75 C 10.367188 -7.21875 10.65625 -7.890625 10.65625 -8.765625 C 10.65625 -9.628906 10.367188 -10.289062 9.796875 -10.75 C 9.234375 -11.21875 8.398438 -11.453125 7.296875 -11.453125 L 4.34375 -11.453125 L 4.34375 -6.0625 Z M 7.296875 -6.0625 "/></g></g></g><g fill="#101728" fill-opacity="1"><g transform="translate(85.62448, 44.804058)"><g><path d="M 1.59375 -14.40625 L 4.015625 -14.40625 L 4.015625 0 L 1.59375 0 Z M 1.59375 -14.40625 "/></g></g></g><g fill="#101728" fill-opacity="1"><g transform="translate(91.235716, 44.804058)"><g><path d="M 5.546875 -10.484375 C 7.078125 -10.484375 8.25 -10.117188 9.0625 -9.390625 C 9.875 -8.660156 10.28125 -7.554688 10.28125 -6.078125 L 10.28125 0 L 7.984375 0 L 7.984375 -1.265625 C 7.679688 -0.804688 7.253906 -0.457031 6.703125 -0.21875 C 6.160156 0.0195312 5.5 0.140625 4.71875 0.140625 C 3.9375 0.140625 3.253906 0.0078125 2.671875 -0.25 C 2.097656 -0.519531 1.648438 -0.890625 1.328125 -1.359375 C 1.015625 -1.835938 0.859375 -2.375 0.859375 -2.96875 C 0.859375 -3.90625 1.203125 -4.65625 1.890625 -5.21875 C 2.585938 -5.78125 3.679688 -6.0625 5.171875 -6.0625 L 7.84375 -6.0625 L 7.84375 -6.21875 C 7.84375 -6.9375 7.625 -7.488281 7.1875 -7.875 C 6.757812 -8.269531 6.117188 -8.46875 5.265625 -8.46875 C 4.679688 -8.46875 4.109375 -8.375 3.546875 -8.1875 C 2.984375 -8.007812 2.503906 -7.757812 2.109375 -7.4375 L 1.171875 -9.203125 C 1.710938 -9.617188 2.363281 -9.9375 3.125 -10.15625 C 3.882812 -10.375 4.691406 -10.484375 5.546875 -10.484375 Z M 5.21875 -1.625 C 5.832031 -1.625 6.375 -1.765625 6.84375 -2.046875 C 7.320312 -2.328125 7.65625 -2.726562 7.84375 -3.25 L 7.84375 -4.453125 L 5.34375 -4.453125 C 3.945312 -4.453125 3.25 -3.988281 3.25 -3.0625 C 3.25 -2.625 3.421875 -2.273438 3.765625 -2.015625 C 4.117188 -1.753906 4.601562 -1.625 5.21875 -1.625 Z M 5.21875 -1.625 "/></g></g></g><g fill="#101728" fill-opacity="1"><g transform="translate(103.021266, 44.804058)"><g><path d="M 11.296875 -10.375 L 6.453125 0.828125 C 5.992188 1.960938 5.441406 2.757812 4.796875 3.21875 C 4.148438 3.675781 3.367188 3.90625 2.453125 3.90625 C 1.929688 3.90625 1.414062 3.820312 0.90625 3.65625 C 0.40625 3.488281 -0.00390625 3.253906 -0.328125 2.953125 L 0.640625 1.171875 C 0.867188 1.390625 1.140625 1.5625 1.453125 1.6875 C 1.773438 1.820312 2.097656 1.890625 2.421875 1.890625 C 2.847656 1.890625 3.203125 1.773438 3.484375 1.546875 C 3.765625 1.328125 4.019531 0.960938 4.25 0.453125 L 4.421875 0.03125 L -0.09375 -10.375 L 2.421875 -10.375 L 5.6875 -2.703125 L 8.96875 -10.375 Z M 11.296875 -10.375 "/></g></g></g><g fill="#101728" fill-opacity="1"><g transform="translate(114.243753, 44.804058)"><g/></g></g><g fill="#101728" fill-opacity="1"><g transform="translate(119.60258, 44.804058)"><g><path d="M 6.046875 0.1875 C 4.992188 0.1875 3.976562 0.0390625 3 -0.25 C 2.019531 -0.550781 1.25 -0.945312 0.6875 -1.4375 L 1.546875 -3.40625 C 2.109375 -2.957031 2.789062 -2.59375 3.59375 -2.3125 C 4.40625 -2.039062 5.222656 -1.90625 6.046875 -1.90625 C 7.054688 -1.90625 7.804688 -2.066406 8.296875 -2.390625 C 8.796875 -2.710938 9.046875 -3.140625 9.046875 -3.671875 C 9.046875 -4.054688 8.90625 -4.375 8.625 -4.625 C 8.351562 -4.882812 8.003906 -5.082031 7.578125 -5.21875 C 7.148438 -5.363281 6.566406 -5.523438 5.828125 -5.703125 C 4.785156 -5.953125 3.941406 -6.195312 3.296875 -6.4375 C 2.660156 -6.6875 2.113281 -7.070312 1.65625 -7.59375 C 1.195312 -8.125 0.96875 -8.835938 0.96875 -9.734375 C 0.96875 -10.484375 1.171875 -11.164062 1.578125 -11.78125 C 1.984375 -12.394531 2.597656 -12.882812 3.421875 -13.25 C 4.242188 -13.613281 5.253906 -13.796875 6.453125 -13.796875 C 7.273438 -13.796875 8.085938 -13.691406 8.890625 -13.484375 C 9.691406 -13.273438 10.382812 -12.972656 10.96875 -12.578125 L 10.171875 -10.625 C 9.578125 -10.96875 8.957031 -11.226562 8.3125 -11.40625 C 7.664062 -11.59375 7.035156 -11.6875 6.421875 -11.6875 C 5.429688 -11.6875 4.691406 -11.519531 4.203125 -11.1875 C 3.710938 -10.851562 3.46875 -10.40625 3.46875 -9.84375 C 3.46875 -9.457031 3.609375 -9.140625 3.890625 -8.890625 C 4.171875 -8.648438 4.523438 -8.457031 4.953125 -8.3125 C 5.378906 -8.164062 5.960938 -8.003906 6.703125 -7.828125 C 7.710938 -7.597656 8.539062 -7.351562 9.1875 -7.09375 C 9.832031 -6.84375 10.382812 -6.457031 10.84375 -5.9375 C 11.300781 -5.425781 11.53125 -4.726562 11.53125 -3.84375 C 11.53125 -3.09375 11.328125 -2.410156 10.921875 -1.796875 C 10.515625 -1.191406 9.894531 -0.707031 9.0625 -0.34375 C 8.238281 0.0078125 7.234375 0.1875 6.046875 0.1875 Z M 6.046875 0.1875 "/></g></g></g><g fill="#101728" fill-opacity="1"><g transform="translate(131.815285, 44.804058)"><g><path d="M 7.828125 -0.5625 C 7.546875 -0.332031 7.195312 -0.15625 6.78125 -0.03125 C 6.375 0.0820312 5.945312 0.140625 5.5 0.140625 C 4.351562 0.140625 3.46875 -0.15625 2.84375 -0.75 C 2.226562 -1.351562 1.921875 -2.222656 1.921875 -3.359375 L 1.921875 -8.34375 L 0.21875 -8.34375 L 0.21875 -10.296875 L 1.921875 -10.296875 L 1.921875 -12.65625 L 4.34375 -12.65625 L 4.34375 -10.296875 L 7.125 -10.296875 L 7.125 -8.34375 L 4.34375 -8.34375 L 4.34375 -3.421875 C 4.34375 -2.910156 4.46875 -2.519531 4.71875 -2.25 C 4.96875 -1.988281 5.320312 -1.859375 5.78125 -1.859375 C 6.332031 -1.859375 6.785156 -2.003906 7.140625 -2.296875 Z M 7.828125 -0.5625 "/></g></g></g><g fill="#101728" fill-opacity="1"><g transform="translate(140.047697, 44.804058)"><g><path d="M 6.25 0.140625 C 5.207031 0.140625 4.265625 -0.0820312 3.421875 -0.53125 C 2.578125 -0.988281 1.914062 -1.625 1.4375 -2.4375 C 0.96875 -3.25 0.734375 -4.164062 0.734375 -5.1875 C 0.734375 -6.207031 0.96875 -7.117188 1.4375 -7.921875 C 1.914062 -8.722656 2.578125 -9.347656 3.421875 -9.796875 C 4.265625 -10.253906 5.207031 -10.484375 6.25 -10.484375 C 7.3125 -10.484375 8.265625 -10.253906 9.109375 -9.796875 C 9.953125 -9.347656 10.609375 -8.722656 11.078125 -7.921875 C 11.546875 -7.117188 11.78125 -6.207031 11.78125 -5.1875 C 11.78125 -4.164062 11.546875 -3.25 11.078125 -2.4375 C 10.609375 -1.625 9.953125 -0.988281 9.109375 -0.53125 C 8.265625 -0.0820312 7.3125 0.140625 6.25 0.140625 Z M 6.25 -1.9375 C 7.144531 -1.9375 7.882812 -2.234375 8.46875 -2.828125 C 9.050781 -3.429688 9.34375 -4.21875 9.34375 -5.1875 C 9.34375 -6.15625 9.050781 -6.9375 8.46875 -7.53125 C 7.882812 -8.125 7.144531 -8.421875 6.25 -8.421875 C 5.351562 -8.421875 4.617188 -8.125 4.046875 -7.53125 C 3.472656 -6.9375 3.1875 -6.15625 3.1875 -5.1875 C 3.1875 -4.21875 3.472656 -3.429688 4.046875 -2.828125 C 4.617188 -2.234375 5.351562 -1.9375 6.25 -1.9375 Z M 6.25 -1.9375 "/></g></g></g><g fill="#101728" fill-opacity="1"><g transform="translate(152.571056, 44.804058)"><g><path d="M 3.90625 -8.859375 C 4.601562 -9.941406 5.832031 -10.484375 7.59375 -10.484375 L 7.59375 -8.171875 C 7.382812 -8.210938 7.195312 -8.234375 7.03125 -8.234375 C 6.082031 -8.234375 5.34375 -7.957031 4.8125 -7.40625 C 4.28125 -6.851562 4.015625 -6.0625 4.015625 -5.03125 L 4.015625 0 L 1.59375 0 L 1.59375 -10.375 L 3.90625 -10.375 Z M 3.90625 -8.859375 "/></g></g></g><g fill="#101728" fill-opacity="1"><g transform="translate(160.725805, 44.804058)"><g><path d="M 11.34375 -5.125 C 11.34375 -4.957031 11.328125 -4.71875 11.296875 -4.40625 L 3.171875 -4.40625 C 3.304688 -3.644531 3.675781 -3.039062 4.28125 -2.59375 C 4.882812 -2.144531 5.632812 -1.921875 6.53125 -1.921875 C 7.664062 -1.921875 8.601562 -2.296875 9.34375 -3.046875 L 10.640625 -1.546875 C 10.171875 -0.992188 9.582031 -0.570312 8.875 -0.28125 C 8.164062 0 7.363281 0.140625 6.46875 0.140625 C 5.332031 0.140625 4.328125 -0.0820312 3.453125 -0.53125 C 2.585938 -0.988281 1.914062 -1.625 1.4375 -2.4375 C 0.96875 -3.25 0.734375 -4.164062 0.734375 -5.1875 C 0.734375 -6.195312 0.960938 -7.101562 1.421875 -7.90625 C 1.878906 -8.71875 2.515625 -9.347656 3.328125 -9.796875 C 4.148438 -10.253906 5.070312 -10.484375 6.09375 -10.484375 C 7.101562 -10.484375 8.003906 -10.257812 8.796875 -9.8125 C 9.597656 -9.363281 10.222656 -8.734375 10.671875 -7.921875 C 11.117188 -7.117188 11.34375 -6.1875 11.34375 -5.125 Z M 6.09375 -8.546875 C 5.320312 -8.546875 4.664062 -8.316406 4.125 -7.859375 C 3.59375 -7.398438 3.265625 -6.785156 3.140625 -6.015625 L 9.03125 -6.015625 C 8.925781 -6.765625 8.609375 -7.375 8.078125 -7.84375 C 7.546875 -8.3125 6.882812 -8.546875 6.09375 -8.546875 Z M 6.09375 -8.546875 "/></g></g></g></svg>