<svg xmlns="http://www.w3.org/2000/svg" xmlns:xlink="http://www.w3.org/1999/xlink" width="1920" zoomAndPan="magnify" viewBox="0 0 1440 809.999993" height="1080" preserveAspectRatio="xMidYMid meet" version="1.0"><defs><g/><clipPath id="3f9bfb5614"><path d="M 163.5 249 L 1277.175781 249 L 1277.175781 560.828125 L 163.5 560.828125 Z M 163.5 249 " clip-rule="nonzero"/></clipPath><clipPath id="7bae4ff435"><path d="M 256 276 L 397 276 L 397 535.121094 L 256 535.121094 Z M 256 276 " clip-rule="nonzero"/></clipPath><clipPath id="171e04c3a7"><path d="M 405 360 L 435.777344 360 L 435.777344 457 L 405 457 Z M 405 360 " clip-rule="nonzero"/></clipPath></defs><g clip-path="url(#3f9bfb5614)"><path fill="#ffffff" d="M 177.09375 249 L 1263.582031 249 C 1271.035156 249 1277.078125 255.039062 1277.078125 262.492188 L 1277.078125 547.335938 C 1277.078125 554.789062 1271.035156 560.828125 1263.582031 560.828125 L 177.09375 560.828125 C 169.640625 560.828125 163.597656 554.789062 163.597656 547.335938 L 163.597656 262.492188 C 163.597656 255.039062 169.640625 249 177.09375 249 " fill-opacity="1" fill-rule="nonzero"/></g><g clip-path="url(#7bae4ff435)"><path fill="#a4c639" d="M 281.882812 277.96875 L 293.503906 298.773438 C 271.917969 309.585938 256.988281 330.3125 256.988281 354.53125 L 396.351562 354.53125 C 396.351562 330.40625 381.425781 309.601562 359.855469 298.773438 L 371.472656 277.96875 C 371.472656 277.96875 372.304688 277.132812 370.644531 276.300781 C 369.8125 275.464844 368.980469 277.132812 368.980469 277.132812 L 356.527344 297.945312 C 351.703125 295.769531 346.703125 294.121094 341.527344 293 C 336.355469 291.878906 331.125 291.308594 325.832031 291.292969 C 320.539062 291.308594 315.304688 291.878906 310.132812 293 C 304.960938 294.121094 299.960938 295.769531 295.132812 297.945312 L 282.707031 277.140625 C 282.707031 277.140625 281.882812 276.316406 281.042969 276.316406 C 281.132812 276.964844 281.410156 277.519531 281.875 277.984375 Z M 293.585938 318.734375 C 296.8125 318.734375 300.21875 321.972656 300.21875 325.390625 C 300.21875 328.804688 296.988281 332.042969 293.585938 332.042969 C 293.148438 332.050781 292.714844 332.011719 292.285156 331.933594 C 291.855469 331.851562 291.4375 331.726562 291.03125 331.5625 C 290.625 331.398438 290.242188 331.195312 289.875 330.953125 C 289.511719 330.710938 289.175781 330.433594 288.863281 330.125 C 288.554688 329.8125 288.28125 329.476562 288.039062 329.109375 C 287.796875 328.742188 287.59375 328.359375 287.429688 327.949219 C 287.265625 327.542969 287.144531 327.125 287.0625 326.695312 C 286.980469 326.261719 286.945312 325.828125 286.949219 325.390625 C 286.945312 324.949219 286.980469 324.515625 287.0625 324.085938 C 287.144531 323.652344 287.265625 323.234375 287.429688 322.828125 C 287.59375 322.421875 287.796875 322.035156 288.039062 321.667969 C 288.28125 321.304688 288.554688 320.964844 288.863281 320.65625 C 289.175781 320.34375 289.511719 320.066406 289.875 319.824219 C 290.242188 319.582031 290.625 319.378906 291.03125 319.214844 C 291.4375 319.050781 291.855469 318.925781 292.285156 318.847656 C 292.714844 318.765625 293.148438 318.726562 293.585938 318.734375 Z M 359.949219 318.734375 C 363.179688 318.734375 366.582031 321.972656 366.582031 325.390625 C 366.582031 328.804688 363.355469 332.042969 359.949219 332.042969 C 359.511719 332.050781 359.078125 332.011719 358.648438 331.933594 C 358.21875 331.851562 357.800781 331.726562 357.398438 331.5625 C 356.992188 331.398438 356.605469 331.195312 356.242188 330.953125 C 355.878906 330.710938 355.539062 330.433594 355.230469 330.125 C 354.921875 329.8125 354.644531 329.476562 354.40625 329.109375 C 354.164062 328.742188 353.960938 328.359375 353.796875 327.949219 C 353.632812 327.542969 353.507812 327.125 353.429688 326.695312 C 353.347656 326.261719 353.308594 325.828125 353.316406 325.390625 C 353.308594 324.949219 353.347656 324.515625 353.429688 324.085938 C 353.507812 323.652344 353.632812 323.234375 353.796875 322.828125 C 353.960938 322.421875 354.164062 322.035156 354.40625 321.667969 C 354.644531 321.304688 354.921875 320.964844 355.230469 320.65625 C 355.539062 320.34375 355.878906 320.066406 356.242188 319.824219 C 356.605469 319.582031 356.992188 319.378906 357.398438 319.214844 C 357.800781 319.050781 358.21875 318.925781 358.648438 318.847656 C 359.078125 318.765625 359.511719 318.726562 359.949219 318.734375 Z M 256.15625 362.855469 L 256.15625 469.386719 C 256.15625 474.382812 262.789062 481.871094 267.777344 481.871094 L 284.367188 481.871094 L 284.367188 518.484375 C 284.367188 527.632812 291.003906 535.128906 299.296875 535.128906 C 307.59375 535.128906 314.226562 527.640625 314.226562 518.484375 L 314.226562 481.855469 L 338.273438 481.855469 L 338.273438 518.46875 C 338.273438 527.617188 344.910156 535.113281 353.203125 535.113281 C 361.5 535.113281 368.132812 527.625 368.132812 518.46875 L 368.132812 481.855469 L 384.726562 481.855469 C 389.703125 481.855469 396.34375 475.199219 396.34375 469.371094 L 396.34375 362.855469 Z M 256.15625 362.855469 " fill-opacity="1" fill-rule="nonzero"/></g><path fill="#a4c639" d="M 232.925781 360.359375 C 241.21875 360.359375 247.851562 367.847656 247.851562 377.003906 L 247.851562 440.253906 C 247.851562 449.398438 241.21875 456.898438 232.925781 456.898438 C 224.628906 456.898438 217.996094 449.410156 217.996094 440.253906 L 217.996094 377.003906 C 217.996094 367.855469 224.628906 360.359375 232.925781 360.359375 Z M 232.925781 360.359375 " fill-opacity="1" fill-rule="nonzero"/><g clip-path="url(#171e04c3a7)"><path fill="#a4c639" d="M 420.417969 360.359375 C 428.714844 360.359375 435.347656 367.847656 435.347656 377.003906 L 435.347656 440.253906 C 435.347656 449.398438 428.714844 456.898438 420.417969 456.898438 C 412.121094 456.898438 405.488281 449.410156 405.488281 440.253906 L 405.488281 377.003906 C 405.488281 367.855469 412.121094 360.359375 420.417969 360.359375 Z M 420.417969 360.359375 " fill-opacity="1" fill-rule="nonzero"/></g><g fill="#101728" fill-opacity="1"><g transform="translate(558.63485, 365.970925)"><g><path d="M 6.640625 -50.515625 L 28.578125 -50.515625 C 33.828125 -50.515625 37.96875 -49.394531 41 -47.15625 C 44.03125 -44.925781 45.546875 -41.835938 45.546875 -37.890625 C 45.546875 -35.046875 44.75 -32.625 43.15625 -30.625 C 41.570312 -28.632812 39.40625 -27.300781 36.65625 -26.625 C 40.03125 -26.050781 42.675781 -24.632812 44.59375 -22.375 C 46.519531 -20.113281 47.484375 -17.273438 47.484375 -13.859375 C 47.484375 -9.523438 45.847656 -6.128906 42.578125 -3.671875 C 39.304688 -1.222656 34.804688 0 29.078125 0 L 6.640625 0 Z M 15.15625 -42.9375 L 15.15625 -29.59375 L 28.140625 -29.59375 C 30.835938 -29.59375 32.957031 -30.191406 34.5 -31.390625 C 36.039062 -32.597656 36.8125 -34.257812 36.8125 -36.375 C 36.8125 -38.488281 36.050781 -40.109375 34.53125 -41.234375 C 33.019531 -42.367188 30.890625 -42.9375 28.140625 -42.9375 Z M 15.15625 -22.078125 L 15.15625 -7.578125 L 28.140625 -7.578125 C 31.515625 -7.578125 34.125 -8.210938 35.96875 -9.484375 C 37.820312 -10.765625 38.75 -12.582031 38.75 -14.9375 C 38.75 -17.15625 37.8125 -18.898438 35.9375 -20.171875 C 34.0625 -21.441406 31.460938 -22.078125 28.140625 -22.078125 Z M 15.15625 -22.078125 "/></g></g></g><g fill="#101728" fill-opacity="1"><g transform="translate(609.588793, 365.970925)"><g><path d="M 29.15625 0 L 29.15625 -4.6875 C 26.414062 -1.320312 22.179688 0.359375 16.453125 0.359375 C 12.367188 0.359375 9.097656 -0.753906 6.640625 -2.984375 C 4.179688 -5.222656 2.953125 -8.078125 2.953125 -11.546875 C 2.953125 -15.054688 4.226562 -17.84375 6.78125 -19.90625 C 9.332031 -21.976562 12.894531 -23.039062 17.46875 -23.09375 L 29.078125 -23.09375 L 29.078125 -24.25 C 29.078125 -26.707031 28.296875 -28.609375 26.734375 -29.953125 C 25.171875 -31.296875 22.898438 -31.96875 19.921875 -31.96875 C 16.210938 -31.96875 12.4375 -30.671875 8.59375 -28.078125 L 5.203125 -33.84375 C 8.128906 -35.582031 10.757812 -36.820312 13.09375 -37.5625 C 15.425781 -38.3125 18.300781 -38.6875 21.71875 -38.6875 C 26.625 -38.6875 30.425781 -37.492188 33.125 -35.109375 C 35.820312 -32.734375 37.191406 -29.425781 37.234375 -25.1875 L 37.3125 0 Z M 18.1875 -6.203125 C 21.125 -6.203125 23.613281 -6.890625 25.65625 -8.265625 C 27.695312 -9.640625 28.835938 -11.382812 29.078125 -13.5 L 29.078125 -17.03125 L 18.6875 -17.03125 C 15.945312 -17.03125 13.9375 -16.632812 12.65625 -15.84375 C 11.382812 -15.050781 10.75 -13.738281 10.75 -11.90625 C 10.75 -10.175781 11.410156 -8.789062 12.734375 -7.75 C 14.054688 -6.71875 15.875 -6.203125 18.1875 -6.203125 Z M 18.1875 -6.203125 "/></g></g></g><g fill="#101728" fill-opacity="1"><g transform="translate(651.882033, 365.970925)"><g><path d="M 6.78125 -53.015625 C 7.695312 -53.953125 8.851562 -54.421875 10.25 -54.421875 C 11.644531 -54.421875 12.796875 -53.953125 13.703125 -53.015625 C 14.617188 -52.078125 15.078125 -50.859375 15.078125 -49.359375 C 15.078125 -47.921875 14.617188 -46.734375 13.703125 -45.796875 C 12.796875 -44.859375 11.644531 -44.390625 10.25 -44.390625 C 8.851562 -44.390625 7.695312 -44.859375 6.78125 -45.796875 C 5.863281 -46.734375 5.40625 -47.921875 5.40625 -49.359375 C 5.40625 -50.859375 5.863281 -52.078125 6.78125 -53.015625 Z M 14.359375 0 L 6.140625 0 L 6.140625 -38.390625 L 14.359375 -38.390625 Z M 14.359375 0 "/></g></g></g><g fill="#101728" fill-opacity="1"><g transform="translate(672.379078, 365.970925)"><g><path d="M 20.0625 -25.265625 L 28.796875 -38.390625 L 37.890625 -38.390625 L 25.546875 -19.703125 L 38.75 0 L 29.234375 0 L 20.0625 -14.078125 L 10.25 0 L 1.015625 0 L 14.578125 -19.703125 L 1.953125 -38.390625 L 11.46875 -38.390625 Z M 20.0625 -25.265625 "/></g></g></g><g fill="#101728" fill-opacity="1"><g transform="translate(712.362756, 365.970925)"><g><path d="M 21.9375 -38.6875 C 28.53125 -38.6875 33.304688 -36.703125 36.265625 -32.734375 C 39.222656 -28.765625 40.4375 -23.191406 39.90625 -16.015625 L 10.890625 -16.015625 C 11.566406 -13.035156 12.960938 -10.691406 15.078125 -8.984375 C 17.203125 -7.273438 19.78125 -6.421875 22.8125 -6.421875 C 27.132812 -6.421875 30.738281 -7.910156 33.625 -10.890625 L 38.03125 -6.203125 C 34.082031 -1.878906 28.789062 0.28125 22.15625 0.28125 C 16.238281 0.28125 11.488281 -1.507812 7.90625 -5.09375 C 4.320312 -8.675781 2.53125 -13.351562 2.53125 -19.125 C 2.53125 -24.894531 4.332031 -29.582031 7.9375 -33.1875 C 11.550781 -36.800781 16.21875 -38.632812 21.9375 -38.6875 Z M 10.75 -22.078125 L 32.6875 -22.078125 C 32.550781 -25.160156 31.519531 -27.59375 29.59375 -29.375 C 27.664062 -31.15625 25.140625 -32.046875 22.015625 -32.046875 C 18.984375 -32.046875 16.46875 -31.15625 14.46875 -29.375 C 12.46875 -27.59375 11.226562 -25.160156 10.75 -22.078125 Z M 10.75 -22.078125 "/></g></g></g><g fill="#101728" fill-opacity="1"><g transform="translate(754.800331, 365.970925)"><g/></g></g><g fill="#101728" fill-opacity="1"><g transform="translate(773.420887, 365.970925)"><g><path d="M 28.21875 -38.6875 C 33.65625 -38.6875 38.066406 -36.867188 41.453125 -33.234375 C 44.847656 -29.597656 46.546875 -24.867188 46.546875 -19.046875 C 46.546875 -13.273438 44.882812 -8.609375 41.5625 -5.046875 C 38.25 -1.492188 33.847656 0.28125 28.359375 0.28125 C 22.203125 0.28125 17.679688 -2.023438 14.796875 -6.640625 L 14.796875 14 L 6.5 14 L 6.5 -38.390625 L 14.796875 -38.390625 L 14.796875 -31.75 C 17.679688 -36.375 22.15625 -38.6875 28.21875 -38.6875 Z M 18.078125 -10.28125 C 20.265625 -7.945312 23.066406 -6.78125 26.484375 -6.78125 C 29.898438 -6.78125 32.703125 -7.945312 34.890625 -10.28125 C 37.078125 -12.613281 38.171875 -15.632812 38.171875 -19.34375 C 38.171875 -22.945312 37.078125 -25.914062 34.890625 -28.25 C 32.703125 -30.582031 29.898438 -31.75 26.484375 -31.75 C 23.066406 -31.75 20.265625 -30.582031 18.078125 -28.25 C 15.890625 -25.914062 14.796875 -22.945312 14.796875 -19.34375 C 14.796875 -15.632812 15.890625 -12.613281 18.078125 -10.28125 Z M 18.078125 -10.28125 "/></g></g></g><g fill="#101728" fill-opacity="1"><g transform="translate(822.498341, 365.970925)"><g><path d="M 21.9375 -38.6875 C 28.53125 -38.6875 33.304688 -36.703125 36.265625 -32.734375 C 39.222656 -28.765625 40.4375 -23.191406 39.90625 -16.015625 L 10.890625 -16.015625 C 11.566406 -13.035156 12.960938 -10.691406 15.078125 -8.984375 C 17.203125 -7.273438 19.78125 -6.421875 22.8125 -6.421875 C 27.132812 -6.421875 30.738281 -7.910156 33.625 -10.890625 L 38.03125 -6.203125 C 34.082031 -1.878906 28.789062 0.28125 22.15625 0.28125 C 16.238281 0.28125 11.488281 -1.507812 7.90625 -5.09375 C 4.320312 -8.675781 2.53125 -13.351562 2.53125 -19.125 C 2.53125 -24.894531 4.332031 -29.582031 7.9375 -33.1875 C 11.550781 -36.800781 16.21875 -38.632812 21.9375 -38.6875 Z M 10.75 -22.078125 L 32.6875 -22.078125 C 32.550781 -25.160156 31.519531 -27.59375 29.59375 -29.375 C 27.664062 -31.15625 25.140625 -32.046875 22.015625 -32.046875 C 18.984375 -32.046875 16.46875 -31.15625 14.46875 -29.375 C 12.46875 -27.59375 11.226562 -25.160156 10.75 -22.078125 Z M 10.75 -22.078125 "/></g></g></g><g fill="#101728" fill-opacity="1"><g transform="translate(864.935916, 365.970925)"><g><path d="M 14.796875 0 L 6.5 0 L 6.5 -53.546875 L 14.796875 -53.546875 Z M 14.796875 0 "/></g></g></g><g fill="#101728" fill-opacity="1"><g transform="translate(886.226905, 365.970925)"><g><path d="M 29.15625 0 L 29.15625 -4.6875 C 26.414062 -1.320312 22.179688 0.359375 16.453125 0.359375 C 12.367188 0.359375 9.097656 -0.753906 6.640625 -2.984375 C 4.179688 -5.222656 2.953125 -8.078125 2.953125 -11.546875 C 2.953125 -15.054688 4.226562 -17.84375 6.78125 -19.90625 C 9.332031 -21.976562 12.894531 -23.039062 17.46875 -23.09375 L 29.078125 -23.09375 L 29.078125 -24.25 C 29.078125 -26.707031 28.296875 -28.609375 26.734375 -29.953125 C 25.171875 -31.296875 22.898438 -31.96875 19.921875 -31.96875 C 16.210938 -31.96875 12.4375 -30.671875 8.59375 -28.078125 L 5.203125 -33.84375 C 8.128906 -35.582031 10.757812 -36.820312 13.09375 -37.5625 C 15.425781 -38.3125 18.300781 -38.6875 21.71875 -38.6875 C 26.625 -38.6875 30.425781 -37.492188 33.125 -35.109375 C 35.820312 -32.734375 37.191406 -29.425781 37.234375 -25.1875 L 37.3125 0 Z M 18.1875 -6.203125 C 21.125 -6.203125 23.613281 -6.890625 25.65625 -8.265625 C 27.695312 -9.640625 28.835938 -11.382812 29.078125 -13.5 L 29.078125 -17.03125 L 18.6875 -17.03125 C 15.945312 -17.03125 13.9375 -16.632812 12.65625 -15.84375 C 11.382812 -15.050781 10.75 -13.738281 10.75 -11.90625 C 10.75 -10.175781 11.410156 -8.789062 12.734375 -7.75 C 14.054688 -6.71875 15.875 -6.203125 18.1875 -6.203125 Z M 18.1875 -6.203125 "/></g></g></g><g fill="#101728" fill-opacity="1"><g transform="translate(517.92502, 470.921935)"><g><path d="M 36.75 -67.359375 C 42.59375 -67.359375 47.675781 -66.394531 52 -64.46875 C 56.332031 -62.539062 59.648438 -59.78125 61.953125 -56.1875 C 64.265625 -52.59375 65.421875 -48.328125 65.421875 -43.390625 C 65.421875 -38.515625 64.265625 -34.265625 61.953125 -30.640625 C 59.648438 -27.015625 56.332031 -24.238281 52 -22.3125 C 47.675781 -20.394531 42.59375 -19.4375 36.75 -19.4375 L 21.546875 -19.4375 L 21.546875 0 L 9.046875 0 L 9.046875 -67.359375 Z M 36.171875 -30.015625 C 41.628906 -30.015625 45.769531 -31.171875 48.59375 -33.484375 C 51.414062 -35.796875 52.828125 -39.097656 52.828125 -43.390625 C 52.828125 -47.691406 51.414062 -50.992188 48.59375 -53.296875 C 45.769531 -55.609375 41.628906 -56.765625 36.171875 -56.765625 L 21.546875 -56.765625 L 21.546875 -30.015625 Z M 36.171875 -30.015625 "/></g></g></g><g fill="#101728" fill-opacity="1"><g transform="translate(587.771325, 470.921935)"><g><path d="M 7.890625 -71.390625 L 19.921875 -71.390625 L 19.921875 0 L 7.890625 0 Z M 7.890625 -71.390625 "/></g></g></g><g fill="#101728" fill-opacity="1"><g transform="translate(615.575135, 470.921935)"><g><path d="M 27.515625 -51.953125 C 35.085938 -51.953125 40.878906 -50.140625 44.890625 -46.515625 C 48.898438 -42.890625 50.90625 -37.421875 50.90625 -30.109375 L 50.90625 0 L 39.546875 0 L 39.546875 -6.25 C 38.066406 -4.007812 35.960938 -2.296875 33.234375 -1.109375 C 30.515625 0.078125 27.226562 0.671875 23.375 0.671875 C 19.53125 0.671875 16.164062 0.015625 13.28125 -1.296875 C 10.394531 -2.609375 8.164062 -4.4375 6.59375 -6.78125 C 5.019531 -9.125 4.234375 -11.769531 4.234375 -14.71875 C 4.234375 -19.34375 5.945312 -23.046875 9.375 -25.828125 C 12.8125 -28.617188 18.21875 -30.015625 25.59375 -30.015625 L 38.875 -30.015625 L 38.875 -30.796875 C 38.875 -34.378906 37.796875 -37.132812 35.640625 -39.0625 C 33.492188 -40.988281 30.304688 -41.953125 26.078125 -41.953125 C 23.191406 -41.953125 20.351562 -41.5 17.5625 -40.59375 C 14.769531 -39.695312 12.410156 -38.453125 10.484375 -36.859375 L 5.765625 -45.609375 C 8.460938 -47.660156 11.703125 -49.226562 15.484375 -50.3125 C 19.273438 -51.40625 23.285156 -51.953125 27.515625 -51.953125 Z M 25.890625 -8.078125 C 28.898438 -8.078125 31.570312 -8.765625 33.90625 -10.140625 C 36.25 -11.523438 37.90625 -13.5 38.875 -16.0625 L 38.875 -22.03125 L 26.453125 -22.03125 C 19.523438 -22.03125 16.0625 -19.753906 16.0625 -15.203125 C 16.0625 -13.023438 16.925781 -11.289062 18.65625 -10 C 20.394531 -8.71875 22.804688 -8.078125 25.890625 -8.078125 Z M 25.890625 -8.078125 "/></g></g></g><g fill="#101728" fill-opacity="1"><g transform="translate(673.972813, 470.921935)"><g><path d="M 56 -51.375 L 31.9375 4.140625 C 29.695312 9.722656 26.972656 13.648438 23.765625 15.921875 C 20.554688 18.203125 16.675781 19.34375 12.125 19.34375 C 9.5625 19.34375 7.023438 18.925781 4.515625 18.09375 C 2.015625 17.257812 -0.0351562 16.101562 -1.640625 14.625 L 3.171875 5.765625 C 4.328125 6.859375 5.691406 7.722656 7.265625 8.359375 C 8.835938 9.003906 10.425781 9.328125 12.03125 9.328125 C 14.144531 9.328125 15.890625 8.78125 17.265625 7.6875 C 18.648438 6.601562 19.921875 4.78125 21.078125 2.21875 L 21.9375 0.1875 L -0.484375 -51.375 L 12.03125 -51.375 L 28.1875 -13.375 L 44.453125 -51.375 Z M 56 -51.375 "/></g></g></g><g fill="#101728" fill-opacity="1"><g transform="translate(729.580501, 470.921935)"><g/></g></g><g fill="#101728" fill-opacity="1"><g transform="translate(756.133616, 470.921935)"><g><path d="M 29.921875 0.96875 C 24.722656 0.96875 19.703125 0.226562 14.859375 -1.25 C 10.015625 -2.726562 6.1875 -4.6875 3.375 -7.125 L 7.703125 -16.84375 C 10.453125 -14.65625 13.832031 -12.867188 17.84375 -11.484375 C 21.851562 -10.109375 25.878906 -9.421875 29.921875 -9.421875 C 34.921875 -9.421875 38.65625 -10.222656 41.125 -11.828125 C 43.601562 -13.429688 44.84375 -15.550781 44.84375 -18.1875 C 44.84375 -20.113281 44.148438 -21.703125 42.765625 -22.953125 C 41.390625 -24.203125 39.640625 -25.175781 37.515625 -25.875 C 35.398438 -26.582031 32.515625 -27.382812 28.859375 -28.28125 C 23.734375 -29.5 19.582031 -30.71875 16.40625 -31.9375 C 13.226562 -33.15625 10.5 -35.0625 8.21875 -37.65625 C 5.945312 -40.257812 4.8125 -43.773438 4.8125 -48.203125 C 4.8125 -51.921875 5.820312 -55.300781 7.84375 -58.34375 C 9.863281 -61.394531 12.910156 -63.816406 16.984375 -65.609375 C 21.054688 -67.410156 26.039062 -68.3125 31.9375 -68.3125 C 36.050781 -68.3125 40.09375 -67.796875 44.0625 -66.765625 C 48.039062 -65.742188 51.472656 -64.269531 54.359375 -62.34375 L 50.421875 -52.625 C 47.472656 -54.363281 44.394531 -55.679688 41.1875 -56.578125 C 37.976562 -57.472656 34.863281 -57.921875 31.84375 -57.921875 C 26.90625 -57.921875 23.234375 -57.085938 20.828125 -55.421875 C 18.421875 -53.753906 17.21875 -51.539062 17.21875 -48.78125 C 17.21875 -46.851562 17.90625 -45.28125 19.28125 -44.0625 C 20.664062 -42.84375 22.414062 -41.878906 24.53125 -41.171875 C 26.65625 -40.472656 29.546875 -39.675781 33.203125 -38.78125 C 38.203125 -37.625 42.304688 -36.421875 45.515625 -35.171875 C 48.722656 -33.921875 51.460938 -32.007812 53.734375 -29.4375 C 56.015625 -26.875 57.15625 -23.410156 57.15625 -19.046875 C 57.15625 -15.328125 56.144531 -11.957031 54.125 -8.9375 C 52.101562 -5.925781 49.039062 -3.519531 44.9375 -1.71875 C 40.832031 0.0703125 35.828125 0.96875 29.921875 0.96875 Z M 29.921875 0.96875 "/></g></g></g><g fill="#101728" fill-opacity="1"><g transform="translate(816.647859, 470.921935)"><g><path d="M 38.78125 -2.796875 C 37.363281 -1.640625 35.644531 -0.769531 33.625 -0.1875 C 31.601562 0.382812 29.472656 0.671875 27.234375 0.671875 C 21.585938 0.671875 17.222656 -0.800781 14.140625 -3.75 C 11.066406 -6.695312 9.53125 -10.992188 9.53125 -16.640625 L 9.53125 -41.375 L 1.0625 -41.375 L 1.0625 -51 L 9.53125 -51 L 9.53125 -62.734375 L 21.546875 -62.734375 L 21.546875 -51 L 35.3125 -51 L 35.3125 -41.375 L 21.546875 -41.375 L 21.546875 -16.9375 C 21.546875 -14.4375 22.15625 -12.523438 23.375 -11.203125 C 24.59375 -9.890625 26.359375 -9.234375 28.671875 -9.234375 C 31.367188 -9.234375 33.613281 -9.941406 35.40625 -11.359375 Z M 38.78125 -2.796875 "/></g></g></g><g fill="#101728" fill-opacity="1"><g transform="translate(857.43966, 470.921935)"><g><path d="M 30.984375 0.671875 C 25.785156 0.671875 21.101562 -0.445312 16.9375 -2.6875 C 12.769531 -4.9375 9.515625 -8.066406 7.171875 -12.078125 C 4.828125 -16.085938 3.65625 -20.625 3.65625 -25.6875 C 3.65625 -30.757812 4.828125 -35.28125 7.171875 -39.25 C 9.515625 -43.226562 12.769531 -46.335938 16.9375 -48.578125 C 21.101562 -50.828125 25.785156 -51.953125 30.984375 -51.953125 C 36.242188 -51.953125 40.957031 -50.828125 45.125 -48.578125 C 49.289062 -46.335938 52.546875 -43.226562 54.890625 -39.25 C 57.234375 -35.28125 58.40625 -30.757812 58.40625 -25.6875 C 58.40625 -20.625 57.234375 -16.085938 54.890625 -12.078125 C 52.546875 -8.066406 49.289062 -4.9375 45.125 -2.6875 C 40.957031 -0.445312 36.242188 0.671875 30.984375 0.671875 Z M 30.984375 -9.625 C 35.410156 -9.625 39.066406 -11.097656 41.953125 -14.046875 C 44.835938 -16.992188 46.28125 -20.875 46.28125 -25.6875 C 46.28125 -30.5 44.835938 -34.378906 41.953125 -37.328125 C 39.066406 -40.285156 35.410156 -41.765625 30.984375 -41.765625 C 26.554688 -41.765625 22.914062 -40.285156 20.0625 -37.328125 C 17.207031 -34.378906 15.78125 -30.5 15.78125 -25.6875 C 15.78125 -20.875 17.207031 -16.992188 20.0625 -14.046875 C 22.914062 -11.097656 26.554688 -9.625 30.984375 -9.625 Z M 30.984375 -9.625 "/></g></g></g><g fill="#101728" fill-opacity="1"><g transform="translate(919.493198, 470.921935)"><g><path d="M 19.34375 -43.875 C 22.800781 -49.257812 28.894531 -51.953125 37.625 -51.953125 L 37.625 -40.515625 C 36.59375 -40.703125 35.660156 -40.796875 34.828125 -40.796875 C 30.148438 -40.796875 26.492188 -39.429688 23.859375 -36.703125 C 21.234375 -33.984375 19.921875 -30.054688 19.921875 -24.921875 L 19.921875 0 L 7.890625 0 L 7.890625 -51.375 L 19.34375 -51.375 Z M 19.34375 -43.875 "/></g></g></g><g fill="#101728" fill-opacity="1"><g transform="translate(959.900175, 470.921935)"><g><path d="M 56.1875 -25.40625 C 56.1875 -24.570312 56.125 -23.382812 56 -21.84375 L 15.6875 -21.84375 C 16.382812 -18.0625 18.222656 -15.0625 21.203125 -12.84375 C 24.191406 -10.632812 27.898438 -9.53125 32.328125 -9.53125 C 37.972656 -9.53125 42.625 -11.390625 46.28125 -15.109375 L 52.734375 -7.703125 C 50.421875 -4.941406 47.5 -2.851562 43.96875 -1.4375 C 40.445312 -0.03125 36.472656 0.671875 32.046875 0.671875 C 26.398438 0.671875 21.425781 -0.445312 17.125 -2.6875 C 12.832031 -4.9375 9.515625 -8.066406 7.171875 -12.078125 C 4.828125 -16.085938 3.65625 -20.625 3.65625 -25.6875 C 3.65625 -30.695312 4.789062 -35.203125 7.0625 -39.203125 C 9.34375 -43.210938 12.503906 -46.335938 16.546875 -48.578125 C 20.585938 -50.828125 25.144531 -51.953125 30.21875 -51.953125 C 35.21875 -51.953125 39.6875 -50.84375 43.625 -48.625 C 47.570312 -46.414062 50.648438 -43.304688 52.859375 -39.296875 C 55.078125 -35.296875 56.1875 -30.664062 56.1875 -25.40625 Z M 30.21875 -42.34375 C 26.363281 -42.34375 23.101562 -41.203125 20.4375 -38.921875 C 17.78125 -36.640625 16.164062 -33.609375 15.59375 -29.828125 L 44.734375 -29.828125 C 44.222656 -33.546875 42.648438 -36.5625 40.015625 -38.875 C 37.390625 -41.1875 34.125 -42.34375 30.21875 -42.34375 Z M 30.21875 -42.34375 "/></g></g></g></svg>