<svg xmlns="http://www.w3.org/2000/svg" xmlns:xlink="http://www.w3.org/1999/xlink" width="240" zoomAndPan="magnify" viewBox="0 0 180 179.999997" height="240" preserveAspectRatio="xMidYMid meet" version="1.0"><rect x="-18" width="216" fill="#ffffff" y="-18" height="215.999996" fill-opacity="1"/><path stroke-linecap="butt" transform="matrix(6.206896, 0, 0, 6.206896, 0.0000017, 0.000000000000063949)" fill-opacity="1" fill="#ffffff" fill-rule="nonzero" stroke-linejoin="miter" d="M 2.000043 2.49974 L 9.000196 2.49974 M 10.000218 2.49974 L 12.000261 2.49974 M 13.000283 2.49974 L 15.999719 2.49974 M 19.999806 2.49974 L 26.999959 2.49974 M 2.000043 3.499762 L 3.000065 3.499762 M 8.000174 3.499762 L 9.000196 3.499762 M 11.00024 3.499762 L 13.000283 3.499762 M 14.000305 3.499762 L 14.999697 3.499762 M 15.999719 3.499762 L 16.999741 3.499762 M 19.999806 3.499762 L 20.999828 3.499762 M 25.999937 3.499762 L 26.999959 3.499762 M 2.000043 4.499783 L 3.000065 4.499783 M 4.000087 4.499783 L 7.000152 4.499783 M 8.000174 4.499783 L 9.000196 4.499783 M 10.000218 4.499783 L 15.999719 4.499783 M 17.999763 4.499783 L 18.999785 4.499783 M 19.999806 4.499783 L 20.999828 4.499783 M 21.99985 4.499783 L 24.999915 4.499783 M 25.999937 4.499783 L 26.999959 4.499783 M 2.000043 5.499805 L 3.000065 5.499805 M 4.000087 5.499805 L 7.000152 5.499805 M 8.000174 5.499805 L 9.000196 5.499805 M 11.00024 5.499805 L 13.000283 5.499805 M 14.999697 5.499805 L 16.999741 5.499805 M 17.999763 5.499805 L 18.999785 5.499805 M 19.999806 5.499805 L 20.999828 5.499805 M 21.99985 5.499805 L 24.999915 5.499805 M 25.999937 5.499805 L 26.999959 5.499805 M 2.000043 6.499827 L 3.000065 6.499827 M 4.000087 6.499827 L 7.000152 6.499827 M 8.000174 6.499827 L 9.000196 6.499827 M 12.000261 6.499827 L 13.000283 6.499827 M 14.000305 6.499827 L 16.999741 6.499827 M 19.999806 6.499827 L 20.999828 6.499827 M 21.99985 6.499827 L 24.999915 6.499827 M 25.999937 6.499827 L 26.999959 6.499827 M 2.000043 7.499849 L 3.000065 7.499849 M 8.000174 7.499849 L 9.000196 7.499849 M 10.000218 7.499849 L 11.00024 7.499849 M 12.000261 7.499849 L 13.000283 7.499849 M 14.999697 7.499849 L 15.999719 7.499849 M 17.999763 7.499849 L 18.999785 7.499849 M 19.999806 7.499849 L 20.999828 7.499849 M 25.999937 7.499849 L 26.999959 7.499849 M 2.000043 8.499871 L 9.000196 8.499871 M 10.000218 8.499871 L 11.00024 8.499871 M 12.000261 8.499871 L 13.000283 8.499871 M 14.000305 8.499871 L 14.999697 8.499871 M 15.999719 8.499871 L 16.999741 8.499871 M 17.999763 8.499871 L 18.999785 8.499871 M 19.999806 8.499871 L 26.999959 8.499871 M 11.00024 9.499892 L 12.000261 9.499892 M 13.000283 9.499892 L 14.000305 9.499892 M 16.999741 9.499892 L 18.999785 9.499892 M 2.000043 10.499914 L 3.000065 10.499914 M 4.000087 10.499914 L 5.000109 10.499914 M 8.000174 10.499914 L 10.000218 10.499914 M 12.000261 10.499914 L 14.999697 10.499914 M 17.999763 10.499914 L 18.999785 10.499914 M 20.999828 10.499914 L 21.99985 10.499914 M 23.999894 10.499914 L 24.999915 10.499914 M 25.999937 10.499914 L 26.999959 10.499914 M 3.000065 11.499936 L 8.000174 11.499936 M 10.000218 11.499936 L 13.000283 11.499936 M 16.999741 11.499936 L 17.999763 11.499936 M 19.999806 11.499936 L 21.99985 11.499936 M 22.999872 11.499936 L 23.999894 11.499936 M 24.999915 11.499936 L 26.999959 11.499936 M 4.000087 12.499958 L 6.000131 12.499958 M 7.000152 12.499958 L 9.000196 12.499958 M 10.000218 12.499958 L 12.000261 12.499958 M 13.000283 12.499958 L 14.999697 12.499958 M 15.999719 12.499958 L 17.999763 12.499958 M 18.999785 12.499958 L 20.999828 12.499958 M 21.99985 12.499958 L 22.999872 12.499958 M 25.999937 12.499958 L 26.999959 12.499958 M 6.000131 13.49998 L 8.000174 13.49998 M 9.000196 13.49998 L 10.000218 13.49998 M 12.000261 13.49998 L 13.000283 13.49998 M 15.999719 13.49998 L 16.999741 13.49998 M 17.999763 13.49998 L 18.999785 13.49998 M 19.999806 13.49998 L 21.99985 13.49998 M 24.999915 13.49998 L 26.999959 13.49998 M 2.000043 14.500001 L 3.000065 14.500001 M 6.000131 14.500001 L 7.000152 14.500001 M 8.000174 14.500001 L 9.000196 14.500001 M 10.000218 14.500001 L 11.00024 14.500001 M 13.000283 14.500001 L 14.999697 14.500001 M 17.999763 14.500001 L 18.999785 14.500001 M 19.999806 14.500001 L 20.999828 14.500001 M 22.999872 14.500001 L 23.999894 14.500001 M 25.999937 14.500001 L 26.999959 14.500001 M 4.000087 15.500023 L 7.000152 15.500023 M 9.000196 15.500023 L 10.000218 15.500023 M 11.00024 15.500023 L 12.000261 15.500023 M 14.000305 15.500023 L 14.999697 15.500023 M 16.999741 15.500023 L 18.999785 15.500023 M 19.999806 15.500023 L 21.99985 15.500023 M 22.999872 15.500023 L 26.999959 15.500023 M 2.000043 16.500045 L 4.000087 16.500045 M 6.000131 16.500045 L 7.000152 16.500045 M 8.000174 16.500045 L 13.000283 16.500045 M 14.000305 16.500045 L 17.999763 16.500045 M 19.999806 16.500045 L 20.999828 16.500045 M 22.999872 16.500045 L 23.999894 16.500045 M 25.999937 16.500045 L 26.999959 16.500045 M 5.000109 17.500067 L 6.000131 17.500067 M 7.000152 17.500067 L 8.000174 17.500067 M 9.000196 17.500067 L 12.000261 17.500067 M 13.000283 17.500067 L 14.999697 17.500067 M 15.999719 17.500067 L 19.999806 17.500067 M 22.999872 17.500067 L 23.999894 17.500067 M 24.999915 17.500067 L 26.999959 17.500067 M 2.000043 18.500089 L 10.000218 18.500089 M 11.00024 18.500089 L 13.000283 18.500089 M 17.999763 18.500089 L 22.999872 18.500089 M 25.999937 18.500089 L 26.999959 18.500089 M 10.000218 19.50011 L 11.00024 19.50011 M 14.999697 19.50011 L 15.999719 19.50011 M 17.999763 19.50011 L 18.999785 19.50011 M 21.99985 19.50011 L 22.999872 19.50011 M 24.999915 19.50011 L 26.999959 19.50011 M 2.000043 20.500132 L 9.000196 20.500132 M 10.000218 20.500132 L 11.00024 20.500132 M 12.000261 20.500132 L 14.000305 20.500132 M 14.999697 20.500132 L 15.999719 20.500132 M 17.999763 20.500132 L 18.999785 20.500132 M 19.999806 20.500132 L 20.999828 20.500132 M 21.99985 20.500132 L 23.999894 20.500132 M 25.999937 20.500132 L 26.999959 20.500132 M 2.000043 21.500154 L 3.000065 21.500154 M 8.000174 21.500154 L 9.000196 21.500154 M 15.999719 21.500154 L 18.999785 21.500154 M 21.99985 21.500154 L 23.999894 21.500154 M 24.999915 21.500154 L 26.999959 21.500154 M 2.000043 22.500176 L 3.000065 22.500176 M 4.000087 22.500176 L 7.000152 22.500176 M 8.000174 22.500176 L 9.000196 22.500176 M 12.000261 22.500176 L 14.999697 22.500176 M 16.999741 22.500176 L 22.999872 22.500176 M 25.999937 22.500176 L 26.999959 22.500176 M 2.000043 23.500198 L 3.000065 23.500198 M 4.000087 23.500198 L 7.000152 23.500198 M 8.000174 23.500198 L 9.000196 23.500198 M 11.00024 23.500198 L 13.000283 23.500198 M 14.000305 23.500198 L 14.999697 23.500198 M 15.999719 23.500198 L 18.999785 23.500198 M 21.99985 23.500198 L 23.999894 23.500198 M 24.999915 23.500198 L 25.999937 23.500198 M 2.000043 24.500219 L 3.000065 24.500219 M 4.000087 24.500219 L 7.000152 24.500219 M 8.000174 24.500219 L 9.000196 24.500219 M 10.000218 24.500219 L 11.00024 24.500219 M 12.000261 24.500219 L 13.000283 24.500219 M 14.000305 24.500219 L 19.999806 24.500219 M 21.99985 24.500219 L 22.999872 24.500219 M 23.999894 24.500219 L 26.999959 24.500219 M 2.000043 25.500241 L 3.000065 25.500241 M 8.000174 25.500241 L 9.000196 25.500241 M 11.00024 25.500241 L 12.000261 25.500241 M 13.000283 25.500241 L 14.999697 25.500241 M 17.999763 25.500241 L 20.999828 25.500241 M 21.99985 25.500241 L 23.999894 25.500241 M 2.000043 26.500263 L 9.000196 26.500263 M 10.000218 26.500263 L 11.00024 26.500263 M 14.000305 26.500263 L 16.999741 26.500263 M 17.999763 26.500263 L 19.999806 26.500263 M 20.999828 26.500263 L 23.999894 26.500263 M 25.999937 26.500263 L 26.999959 26.500263 " stroke="#000000" stroke-width="1" stroke-opacity="1" stroke-miterlimit="4"/></svg>