<svg xmlns="http://www.w3.org/2000/svg" xmlns:xlink="http://www.w3.org/1999/xlink" width="1920" zoomAndPan="magnify" viewBox="0 0 1440 809.999993" height="1080" preserveAspectRatio="xMidYMid meet" version="1.0"><defs><clipPath id="b757dac420"><path d="M 632.25 317.25 L 807.75 317.25 L 807.75 492.75 L 632.25 492.75 Z M 632.25 317.25 " clip-rule="nonzero"/></clipPath></defs><g clip-path="url(#b757dac420)"><path fill="#ffffff" d="M 632.25 317.25 L 807.75 317.25 L 807.75 492.75 L 632.25 492.75 Z M 632.25 317.25 " fill-opacity="1" fill-rule="nonzero"/></g><path stroke-linecap="butt" transform="matrix(6.051724, 0, 0, 6.051724, 632.249974, 317.250004)" fill-opacity="1" fill="#ffffff" fill-rule="nonzero" stroke-linejoin="miter" d="M 1.999693 2.499933 L 8.999893 2.499933 M 9.999737 2.499933 L 12.000071 2.499933 M 12.999915 2.499933 L 16.000093 2.499933 M 20.000115 2.499933 L 27.000315 2.499933 M 1.999693 3.499777 L 3.000182 3.499777 M 8.000049 3.499777 L 8.999893 3.499777 M 11.000227 3.499777 L 12.999915 3.499777 M 13.999759 3.499777 L 15.000249 3.499777 M 16.000093 3.499777 L 16.999937 3.499777 M 20.000115 3.499777 L 20.999959 3.499777 M 25.999826 3.499777 L 27.000315 3.499777 M 1.999693 4.500266 L 3.000182 4.500266 M 4.000026 4.500266 L 7.000204 4.500266 M 8.000049 4.500266 L 8.999893 4.500266 M 9.999737 4.500266 L 16.000093 4.500266 M 17.999781 4.500266 L 19.000271 4.500266 M 20.000115 4.500266 L 20.999959 4.500266 M 21.999803 4.500266 L 24.999981 4.500266 M 25.999826 4.500266 L 27.000315 4.500266 M 1.999693 5.500111 L 3.000182 5.500111 M 4.000026 5.500111 L 7.000204 5.500111 M 8.000049 5.500111 L 8.999893 5.500111 M 11.000227 5.500111 L 12.999915 5.500111 M 15.000249 5.500111 L 16.999937 5.500111 M 17.999781 5.500111 L 19.000271 5.500111 M 20.000115 5.500111 L 20.999959 5.500111 M 21.999803 5.500111 L 24.999981 5.500111 M 25.999826 5.500111 L 27.000315 5.500111 M 1.999693 6.499955 L 3.000182 6.499955 M 4.000026 6.499955 L 7.000204 6.499955 M 8.000049 6.499955 L 8.999893 6.499955 M 12.000071 6.499955 L 12.999915 6.499955 M 13.999759 6.499955 L 16.999937 6.499955 M 20.000115 6.499955 L 20.999959 6.499955 M 21.999803 6.499955 L 24.999981 6.499955 M 25.999826 6.499955 L 27.000315 6.499955 M 1.999693 7.499799 L 3.000182 7.499799 M 8.000049 7.499799 L 8.999893 7.499799 M 9.999737 7.499799 L 11.000227 7.499799 M 12.000071 7.499799 L 12.999915 7.499799 M 15.000249 7.499799 L 16.000093 7.499799 M 17.999781 7.499799 L 19.000271 7.499799 M 20.000115 7.499799 L 20.999959 7.499799 M 25.999826 7.499799 L 27.000315 7.499799 M 1.999693 8.500289 L 8.999893 8.500289 M 9.999737 8.500289 L 11.000227 8.500289 M 12.000071 8.500289 L 12.999915 8.500289 M 13.999759 8.500289 L 15.000249 8.500289 M 16.000093 8.500289 L 16.999937 8.500289 M 17.999781 8.500289 L 19.000271 8.500289 M 20.000115 8.500289 L 27.000315 8.500289 M 11.000227 9.500133 L 12.000071 9.500133 M 12.999915 9.500133 L 13.999759 9.500133 M 16.999937 9.500133 L 19.000271 9.500133 M 1.999693 10.499977 L 3.000182 10.499977 M 4.000026 10.499977 L 4.999871 10.499977 M 8.000049 10.499977 L 9.999737 10.499977 M 12.000071 10.499977 L 15.000249 10.499977 M 17.999781 10.499977 L 19.000271 10.499977 M 20.999959 10.499977 L 21.999803 10.499977 M 24.000137 10.499977 L 24.999981 10.499977 M 25.999826 10.499977 L 27.000315 10.499977 M 3.000182 11.499821 L 8.000049 11.499821 M 9.999737 11.499821 L 12.999915 11.499821 M 16.999937 11.499821 L 17.999781 11.499821 M 20.000115 11.499821 L 21.999803 11.499821 M 23.000293 11.499821 L 24.000137 11.499821 M 24.999981 11.499821 L 27.000315 11.499821 M 4.000026 12.500311 L 5.999715 12.500311 M 7.000204 12.500311 L 8.999893 12.500311 M 9.999737 12.500311 L 12.000071 12.500311 M 12.999915 12.500311 L 15.000249 12.500311 M 16.000093 12.500311 L 17.999781 12.500311 M 19.000271 12.500311 L 20.999959 12.500311 M 21.999803 12.500311 L 23.000293 12.500311 M 25.999826 12.500311 L 27.000315 12.500311 M 5.999715 13.500155 L 8.000049 13.500155 M 8.999893 13.500155 L 9.999737 13.500155 M 12.000071 13.500155 L 12.999915 13.500155 M 16.000093 13.500155 L 16.999937 13.500155 M 17.999781 13.500155 L 19.000271 13.500155 M 20.000115 13.500155 L 21.999803 13.500155 M 24.999981 13.500155 L 27.000315 13.500155 M 1.999693 14.499999 L 3.000182 14.499999 M 5.999715 14.499999 L 7.000204 14.499999 M 8.000049 14.499999 L 8.999893 14.499999 M 9.999737 14.499999 L 11.000227 14.499999 M 12.999915 14.499999 L 15.000249 14.499999 M 17.999781 14.499999 L 19.000271 14.499999 M 20.000115 14.499999 L 20.999959 14.499999 M 23.000293 14.499999 L 24.000137 14.499999 M 25.999826 14.499999 L 27.000315 14.499999 M 4.000026 15.499843 L 7.000204 15.499843 M 8.999893 15.499843 L 9.999737 15.499843 M 11.000227 15.499843 L 12.000071 15.499843 M 13.999759 15.499843 L 15.000249 15.499843 M 16.999937 15.499843 L 19.000271 15.499843 M 20.000115 15.499843 L 21.999803 15.499843 M 23.000293 15.499843 L 27.000315 15.499843 M 1.999693 16.499687 L 4.000026 16.499687 M 5.999715 16.499687 L 7.000204 16.499687 M 8.000049 16.499687 L 12.999915 16.499687 M 13.999759 16.499687 L 17.999781 16.499687 M 20.000115 16.499687 L 20.999959 16.499687 M 23.000293 16.499687 L 24.000137 16.499687 M 25.999826 16.499687 L 27.000315 16.499687 M 4.999871 17.500177 L 5.999715 17.500177 M 7.000204 17.500177 L 8.000049 17.500177 M 8.999893 17.500177 L 12.000071 17.500177 M 12.999915 17.500177 L 15.000249 17.500177 M 16.000093 17.500177 L 20.000115 17.500177 M 23.000293 17.500177 L 24.000137 17.500177 M 24.999981 17.500177 L 27.000315 17.500177 M 1.999693 18.500021 L 9.999737 18.500021 M 11.000227 18.500021 L 12.999915 18.500021 M 17.999781 18.500021 L 23.000293 18.500021 M 25.999826 18.500021 L 27.000315 18.500021 M 9.999737 19.499865 L 11.000227 19.499865 M 15.000249 19.499865 L 16.000093 19.499865 M 17.999781 19.499865 L 19.000271 19.499865 M 21.999803 19.499865 L 23.000293 19.499865 M 24.999981 19.499865 L 27.000315 19.499865 M 1.999693 20.49971 L 8.999893 20.49971 M 9.999737 20.49971 L 11.000227 20.49971 M 12.000071 20.49971 L 13.999759 20.49971 M 15.000249 20.49971 L 16.000093 20.49971 M 17.999781 20.49971 L 19.000271 20.49971 M 20.000115 20.49971 L 20.999959 20.49971 M 21.999803 20.49971 L 24.000137 20.49971 M 25.999826 20.49971 L 27.000315 20.49971 M 1.999693 21.500199 L 3.000182 21.500199 M 8.000049 21.500199 L 8.999893 21.500199 M 16.000093 21.500199 L 19.000271 21.500199 M 21.999803 21.500199 L 24.000137 21.500199 M 24.999981 21.500199 L 27.000315 21.500199 M 1.999693 22.500043 L 3.000182 22.500043 M 4.000026 22.500043 L 7.000204 22.500043 M 8.000049 22.500043 L 8.999893 22.500043 M 12.000071 22.500043 L 15.000249 22.500043 M 16.999937 22.500043 L 23.000293 22.500043 M 25.999826 22.500043 L 27.000315 22.500043 M 1.999693 23.499888 L 3.000182 23.499888 M 4.000026 23.499888 L 7.000204 23.499888 M 8.000049 23.499888 L 8.999893 23.499888 M 11.000227 23.499888 L 12.999915 23.499888 M 13.999759 23.499888 L 15.000249 23.499888 M 16.000093 23.499888 L 19.000271 23.499888 M 21.999803 23.499888 L 24.000137 23.499888 M 24.999981 23.499888 L 25.999826 23.499888 M 1.999693 24.499732 L 3.000182 24.499732 M 4.000026 24.499732 L 7.000204 24.499732 M 8.000049 24.499732 L 8.999893 24.499732 M 9.999737 24.499732 L 11.000227 24.499732 M 12.000071 24.499732 L 12.999915 24.499732 M 13.999759 24.499732 L 20.000115 24.499732 M 21.999803 24.499732 L 23.000293 24.499732 M 24.000137 24.499732 L 27.000315 24.499732 M 1.999693 25.500221 L 3.000182 25.500221 M 8.000049 25.500221 L 8.999893 25.500221 M 11.000227 25.500221 L 12.000071 25.500221 M 12.999915 25.500221 L 15.000249 25.500221 M 17.999781 25.500221 L 20.999959 25.500221 M 21.999803 25.500221 L 24.000137 25.500221 M 1.999693 26.500066 L 8.999893 26.500066 M 9.999737 26.500066 L 11.000227 26.500066 M 13.999759 26.500066 L 16.999937 26.500066 M 17.999781 26.500066 L 20.000115 26.500066 M 20.999959 26.500066 L 24.000137 26.500066 M 25.999826 26.500066 L 27.000315 26.500066 " stroke="#000000" stroke-width="1" stroke-opacity="1" stroke-miterlimit="4"/></svg>